<svg width="28" height="28" viewBox="0 0 28 28" fill="none" xmlns="http://www.w3.org/2000/svg">
<path d="M13.44 20.1264C15.1228 20.1264 16.6684 19.5244 17.8752 18.5276L20.6752 21.3276C20.7844 21.4368 20.9272 21.4928 21.07 21.4928C21.2128 21.4928 21.3556 21.4368 21.4648 21.3276C21.6832 21.1092 21.6832 20.7535 21.4648 20.5351L18.676 17.7464C19.7512 16.5199 20.4036 14.9156 20.4036 13.1627C20.4036 9.32115 17.2788 6.19635 13.4372 6.19635C9.59563 6.19635 6.47363 9.31835 6.47363 13.16C6.47363 17.0016 9.59843 20.1264 13.44 20.1264ZM13.44 7.31355C16.6628 7.31355 19.2864 9.93435 19.2864 13.16C19.2864 16.3856 16.6628 19.0064 13.44 19.0064C10.2172 19.0064 7.59363 16.3828 7.59363 13.16C7.59363 9.93715 10.2172 7.31355 13.44 7.31355Z" fill="black"/>
</svg>
