<svg width="334" height="54" viewBox="0 0 334 54" fill="none" xmlns="http://www.w3.org/2000/svg">
<g filter="url(#filter0_d_306_539)">
<path d="M15.424 36.768C11.808 36.768 9.152 35.856 7.456 34.032C5.76 32.208 4.912 29.184 4.912 24.96C4.912 21.6 5.472 17.984 6.592 14.112C7.744 10.24 9.568 6.928 12.064 4.176C14.592 1.392 17.792 -2.86102e-06 21.664 -2.86102e-06C24.064 -2.86102e-06 26 0.527998 27.472 1.584C28.944 2.64 29.68 4.256 29.68 6.432C29.68 7.808 29.408 8.896 28.864 9.696C28.32 10.464 27.472 10.848 26.32 10.848C25.168 10.848 24.256 10.432 23.584 9.6C24.16 9.312 24.672 8.736 25.12 7.872C25.568 7.008 25.792 6.112 25.792 5.184C25.792 4.32 25.552 3.616 25.072 3.072C24.624 2.528 23.888 2.256 22.864 2.256C21.168 2.256 19.552 3.424 18.016 5.76C16.48 8.064 15.232 10.976 14.272 14.496C13.344 18.016 12.88 21.408 12.88 24.672C12.88 27.104 13.296 28.96 14.128 30.24C14.96 31.52 16.464 32.16 18.64 32.16C20.528 32.16 22.272 31.744 23.872 30.912C25.472 30.08 26.848 28.896 28 27.36L29.104 27.84C28.304 29.856 27.12 31.536 25.552 32.88C23.984 34.224 22.304 35.216 20.512 35.856C18.72 36.464 17.024 36.768 15.424 36.768ZM34.8674 36.192C32.4994 36.192 30.6274 35.584 29.2514 34.368C27.8754 33.152 27.1874 31.232 27.1874 28.608C27.1874 26.432 27.6354 24.016 28.5314 21.36C29.4274 18.704 30.8674 16.416 32.8514 14.496C34.8354 12.544 37.3314 11.568 40.3394 11.568C44.4354 11.568 46.4834 14.128 46.4834 19.248V19.296C46.5794 19.328 46.7554 19.344 47.0114 19.344C48.0674 19.344 49.2834 19.072 50.6594 18.528C52.0354 17.952 53.2834 17.264 54.4034 16.464L54.8354 17.76C53.9074 18.752 52.6914 19.6 51.1874 20.304C49.7154 20.976 48.0994 21.456 46.3394 21.744C46.0834 24.656 45.4274 27.2 44.3714 29.376C43.3154 31.552 41.9554 33.232 40.2914 34.416C38.6274 35.6 36.8194 36.192 34.8674 36.192ZM36.7874 31.872C37.5554 31.872 38.3234 31.44 39.0914 30.576C39.8594 29.68 40.5314 28.48 41.1074 26.976C41.6834 25.44 42.0994 23.744 42.3554 21.888C41.4914 21.696 41.0594 21.024 41.0594 19.872C41.0594 18.56 41.5554 17.696 42.5474 17.28C42.4834 16.224 42.3234 15.504 42.0674 15.12C41.8114 14.704 41.3634 14.496 40.7234 14.496C39.6674 14.496 38.6434 15.264 37.6514 16.8C36.6594 18.336 35.8594 20.176 35.2514 22.32C34.6434 24.464 34.3394 26.352 34.3394 27.984C34.3394 29.52 34.5154 30.56 34.8674 31.104C35.2194 31.616 35.8594 31.872 36.7874 31.872ZM55.8171 36.288C53.4491 36.288 51.6091 35.68 50.2971 34.464C48.9851 33.216 48.3291 31.28 48.3291 28.656C48.3291 26.448 48.7611 24.016 49.6251 21.36C50.5211 18.704 51.9291 16.416 53.8491 14.496C55.8011 12.544 58.2651 11.568 61.2411 11.568C63.1611 11.568 64.5211 11.984 65.3211 12.816C66.1531 13.648 66.5691 14.704 66.5691 15.984C66.5691 17.104 66.3291 17.968 65.8491 18.576C65.3691 19.184 64.7611 19.488 64.0251 19.488C63.4811 19.488 62.9211 19.296 62.3451 18.912C62.7291 17.856 62.9211 16.912 62.9211 16.08C62.9211 15.472 62.8091 14.992 62.5851 14.64C62.3611 14.288 62.0251 14.112 61.5771 14.112C60.6171 14.112 59.6571 14.896 58.6971 16.464C57.7371 18.032 56.9531 19.936 56.3451 22.176C55.7371 24.416 55.4331 26.432 55.4331 28.224C55.4331 29.792 55.7051 30.864 56.2491 31.44C56.7931 31.984 57.6731 32.256 58.8891 32.256C60.6171 32.256 62.0891 31.856 63.3051 31.056C64.5531 30.256 65.9131 29.04 67.3851 27.408H69.0171C65.4651 33.328 61.0651 36.288 55.8171 36.288ZM75.391 9.408C74.335 9.408 73.439 9.04 72.703 8.304C71.967 7.568 71.599 6.672 71.599 5.616C71.599 4.56 71.967 3.664 72.703 2.928C73.439 2.16 74.335 1.776 75.391 1.776C76.447 1.776 77.343 2.16 78.079 2.928C78.847 3.664 79.231 4.56 79.231 5.616C79.231 6.672 78.847 7.568 78.079 8.304C77.343 9.04 76.447 9.408 75.391 9.408ZM72.127 36.288C70.591 36.288 69.343 35.808 68.383 34.848C67.455 33.888 66.991 32.448 66.991 30.528C66.991 29.728 67.119 28.688 67.375 27.408L70.639 12H77.551L74.095 28.32C73.967 28.8 73.903 29.312 73.903 29.856C73.903 30.496 74.047 30.96 74.335 31.248C74.655 31.504 75.167 31.632 75.871 31.632C76.799 31.632 77.663 31.248 78.463 30.48C79.263 29.68 79.839 28.656 80.191 27.408H82.207C81.023 30.864 79.503 33.216 77.647 34.464C75.791 35.68 73.951 36.288 72.127 36.288ZM97.4999 36.288C95.5479 36.288 94.1079 35.776 93.1799 34.752C92.2839 33.696 91.8359 32.4 91.8359 30.864C91.8359 30.192 91.9159 29.44 92.0759 28.608C92.2359 27.744 92.3959 26.912 92.5559 26.112C92.7479 25.312 92.8759 24.8 92.9399 24.576C93.1959 23.456 93.4359 22.352 93.6599 21.264C93.8839 20.176 93.9959 19.296 93.9959 18.624C93.9959 16.992 93.4199 16.176 92.2679 16.176C91.4359 16.176 90.6999 16.592 90.0599 17.424C89.4199 18.224 88.9079 19.28 88.5239 20.592L85.2599 36H78.3479L83.4359 12H90.3479L89.8199 14.496C91.4199 12.704 93.2919 11.808 95.4359 11.808C97.0679 11.808 98.3639 12.256 99.3239 13.152C100.284 14.048 100.764 15.408 100.764 17.232C100.764 18.16 100.652 19.2 100.428 20.352C100.204 21.472 99.8839 22.848 99.4679 24.48C99.2119 25.472 98.9719 26.448 98.7479 27.408C98.5559 28.336 98.4599 29.072 98.4599 29.616C98.4599 30.256 98.6039 30.752 98.8919 31.104C99.1799 31.456 99.6759 31.632 100.38 31.632C101.34 31.632 102.108 31.296 102.684 30.624C103.26 29.92 103.836 28.848 104.412 27.408H106.428C105.244 30.928 103.868 33.296 102.3 34.512C100.764 35.696 99.1639 36.288 97.4999 36.288ZM110.166 36.288C108.342 36.288 106.822 35.664 105.606 34.416C104.39 33.168 103.782 31.216 103.782 28.56C103.782 26.192 104.246 23.712 105.174 21.12C106.134 18.496 107.542 16.288 109.398 14.496C111.286 12.672 113.526 11.76 116.118 11.76C117.43 11.76 118.406 11.984 119.046 12.432C119.686 12.88 120.006 13.472 120.006 14.208V14.544L120.534 12H127.446L123.99 28.32C123.862 28.8 123.798 29.312 123.798 29.856C123.798 30.496 123.942 30.96 124.23 31.248C124.55 31.504 125.062 31.632 125.766 31.632C126.214 31.632 126.566 31.568 126.822 31.44C126.118 33.232 125.446 34.496 124.806 35.232C124.166 35.936 123.238 36.288 122.022 36.288C120.71 36.288 119.638 35.904 118.806 35.136C118.006 34.336 117.51 33.232 117.318 31.824C115.366 34.8 112.982 36.288 110.166 36.288ZM113.286 31.632C114.086 31.632 114.87 31.264 115.638 30.528C116.438 29.76 116.982 28.72 117.27 27.408L119.574 16.56C119.574 16.144 119.414 15.744 119.094 15.36C118.774 14.944 118.278 14.736 117.606 14.736C116.326 14.736 115.174 15.488 114.15 16.992C113.126 18.464 112.326 20.256 111.75 22.368C111.174 24.448 110.886 26.288 110.886 27.888C110.886 29.488 111.11 30.512 111.558 30.96C112.038 31.408 112.614 31.632 113.286 31.632ZM138.237 36.768C134.621 36.768 131.965 35.856 130.269 34.032C128.573 32.208 127.725 29.184 127.725 24.96C127.725 21.6 128.285 17.984 129.405 14.112C130.557 10.24 132.381 6.928 134.877 4.176C137.405 1.392 140.605 -2.86102e-06 144.477 -2.86102e-06C146.877 -2.86102e-06 148.813 0.527998 150.285 1.584C151.757 2.64 152.493 4.256 152.493 6.432C152.493 7.808 152.221 8.896 151.677 9.696C151.133 10.464 150.285 10.848 149.133 10.848C147.981 10.848 147.069 10.432 146.397 9.6C146.973 9.312 147.485 8.736 147.933 7.872C148.381 7.008 148.605 6.112 148.605 5.184C148.605 4.32 148.365 3.616 147.885 3.072C147.437 2.528 146.701 2.256 145.677 2.256C143.981 2.256 142.365 3.424 140.829 5.76C139.293 8.064 138.045 10.976 137.085 14.496C136.157 18.016 135.693 21.408 135.693 24.672C135.693 27.104 136.109 28.96 136.941 30.24C137.773 31.52 139.277 32.16 141.453 32.16C143.341 32.16 145.085 31.744 146.685 30.912C148.285 30.08 149.661 28.896 150.812 27.36L151.917 27.84C151.117 29.856 149.933 31.536 148.365 32.88C146.797 34.224 145.117 35.216 143.325 35.856C141.533 36.464 139.837 36.768 138.237 36.768ZM157.68 36.192C155.312 36.192 153.44 35.584 152.064 34.368C150.688 33.152 150 31.232 150 28.608C150 26.432 150.448 24.016 151.344 21.36C152.24 18.704 153.68 16.416 155.664 14.496C157.648 12.544 160.144 11.568 163.152 11.568C167.248 11.568 169.296 14.128 169.296 19.248V19.296C169.392 19.328 169.568 19.344 169.824 19.344C170.88 19.344 172.096 19.072 173.472 18.528C174.848 17.952 176.096 17.264 177.216 16.464L177.648 17.76C176.72 18.752 175.504 19.6 174 20.304C172.528 20.976 170.912 21.456 169.152 21.744C168.896 24.656 168.24 27.2 167.184 29.376C166.128 31.552 164.768 33.232 163.104 34.416C161.44 35.6 159.632 36.192 157.68 36.192ZM159.6 31.872C160.368 31.872 161.136 31.44 161.904 30.576C162.672 29.68 163.344 28.48 163.92 26.976C164.496 25.44 164.912 23.744 165.168 21.888C164.304 21.696 163.872 21.024 163.872 19.872C163.872 18.56 164.368 17.696 165.36 17.28C165.296 16.224 165.136 15.504 164.88 15.12C164.624 14.704 164.176 14.496 163.536 14.496C162.48 14.496 161.456 15.264 160.464 16.8C159.472 18.336 158.672 20.176 158.064 22.32C157.456 24.464 157.152 26.352 157.152 27.984C157.152 29.52 157.328 30.56 157.68 31.104C158.032 31.616 158.672 31.872 159.6 31.872ZM188.278 36.288C186.582 36.288 185.35 35.776 184.582 34.752C183.814 33.728 183.43 32.432 183.43 30.864C183.43 30.192 183.51 29.44 183.67 28.608C183.83 27.744 183.99 26.912 184.15 26.112C184.342 25.312 184.47 24.8 184.534 24.576C184.79 23.456 185.03 22.352 185.254 21.264C185.478 20.176 185.59 19.296 185.59 18.624C185.59 16.992 185.014 16.176 183.862 16.176C183.03 16.176 182.294 16.592 181.654 17.424C181.014 18.224 180.502 19.28 180.118 20.592L176.854 36H169.942L175.03 12H181.942L181.414 14.496C183.014 12.704 184.886 11.808 187.03 11.808C188.662 11.808 189.958 12.256 190.918 13.152C191.878 14.048 192.358 15.408 192.358 17.232C192.358 18.16 192.246 19.2 192.022 20.352C191.798 21.472 191.478 22.848 191.062 24.48C190.806 25.472 190.566 26.448 190.342 27.408C190.15 28.336 190.054 29.072 190.054 29.616C190.054 30.256 190.198 30.752 190.486 31.104C190.774 31.456 191.27 31.632 191.974 31.632C192.742 31.632 193.27 31.536 193.558 31.344C193.366 32.976 192.774 34.208 191.782 35.04C190.822 35.872 189.654 36.288 188.278 36.288ZM201.483 45.936C199.211 45.936 197.451 45.312 196.203 44.064C194.987 42.848 194.379 41.216 194.379 39.168C194.379 37.44 194.907 35.936 195.963 34.656C197.019 33.376 198.443 32.736 200.235 32.736C201.611 32.736 202.731 32.944 203.595 33.36C204.491 33.744 204.939 34.608 204.939 35.952C204.939 36.528 204.843 37.168 204.651 37.872C204.075 37.392 203.579 37.056 203.163 36.864C202.747 36.704 202.283 36.624 201.771 36.624C200.715 36.624 199.883 36.976 199.275 37.68C198.699 38.384 198.411 39.216 198.411 40.176C198.411 41.296 198.747 42.128 199.419 42.672C200.091 43.248 200.843 43.536 201.675 43.536C202.443 43.536 203.083 43.376 203.595 43.056C204.139 42.768 204.619 42.192 205.035 41.328C205.451 40.496 205.851 39.264 206.234 37.632L213.771 3.36C211.627 4.224 209.963 5.552 208.779 7.344C207.595 9.136 207.003 11.312 207.003 13.872C207.003 15.056 207.115 15.888 207.339 16.368C207.562 16.816 207.674 17.072 207.674 17.136C205.947 17.136 204.651 16.784 203.787 16.08C202.955 15.344 202.539 14.144 202.539 12.48C202.539 10.432 203.371 8.448 205.035 6.528C206.731 4.576 208.891 3.008 211.515 1.824C214.139 0.607998 216.763 -2.86102e-06 219.387 -2.86102e-06H221.307L214.107 34.08C213.275 38.016 211.899 40.976 209.979 42.96C208.059 44.944 205.227 45.936 201.483 45.936ZM225.057 36.288C223.233 36.288 221.713 35.664 220.497 34.416C219.281 33.168 218.673 31.216 218.673 28.56C218.673 26.192 219.137 23.712 220.065 21.12C221.025 18.496 222.433 16.288 224.289 14.496C226.177 12.672 228.417 11.76 231.009 11.76C232.321 11.76 233.297 11.984 233.937 12.432C234.577 12.88 234.897 13.472 234.897 14.208V14.544L235.425 12H242.337L238.881 28.32C238.753 28.8 238.689 29.312 238.689 29.856C238.689 31.232 239.345 31.92 240.657 31.92C241.553 31.92 242.321 31.504 242.961 30.672C243.633 29.84 244.161 28.752 244.545 27.408H246.561C245.377 30.864 243.905 33.216 242.145 34.464C240.417 35.68 238.673 36.288 236.913 36.288C235.569 36.288 234.481 35.92 233.649 35.184C232.849 34.416 232.369 33.312 232.209 31.872C231.281 33.184 230.241 34.256 229.089 35.088C227.969 35.888 226.625 36.288 225.057 36.288ZM228.177 31.632C228.977 31.632 229.761 31.264 230.529 30.528C231.329 29.76 231.873 28.72 232.161 27.408L234.465 16.56C234.465 16.144 234.305 15.744 233.985 15.36C233.665 14.944 233.169 14.736 232.497 14.736C231.217 14.736 230.065 15.488 229.041 16.992C228.017 18.464 227.217 20.256 226.641 22.368C226.065 24.448 225.777 26.288 225.777 27.888C225.777 29.488 226.001 30.512 226.449 30.96C226.929 31.408 227.505 31.632 228.177 31.632ZM250.035 36.288C248.179 36.288 246.723 35.824 245.667 34.896C244.643 33.936 244.13 32.512 244.13 30.624C244.13 29.856 244.21 29.088 244.37 28.32L247.827 12H254.739L251.283 28.32C251.123 29.12 251.043 29.696 251.043 30.048C251.043 31.104 251.587 31.632 252.675 31.632C254.147 31.632 255.507 30.704 256.755 28.848C258.035 26.992 259.059 24.784 259.827 22.224C260.595 19.664 260.979 17.456 260.979 15.6C260.915 15.76 260.707 15.888 260.355 15.984C260.003 16.048 259.699 16.08 259.443 16.08C258.899 16.08 258.467 15.824 258.147 15.312C257.859 14.8 257.715 14.24 257.715 13.632C257.715 12.864 257.955 12.24 258.435 11.76C258.947 11.28 259.699 11.04 260.691 11.04C261.747 11.04 262.515 11.44 262.995 12.24C263.475 13.008 263.715 14 263.715 15.216C263.715 18.096 263.219 21.184 262.227 24.48C261.235 27.744 259.715 30.528 257.667 32.832C255.619 35.136 253.075 36.288 250.035 36.288ZM272.454 9.408C271.398 9.408 270.502 9.04 269.766 8.304C269.03 7.568 268.662 6.672 268.662 5.616C268.662 4.56 269.03 3.664 269.766 2.928C270.502 2.16 271.398 1.776 272.454 1.776C273.51 1.776 274.406 2.16 275.142 2.928C275.91 3.664 276.294 4.56 276.294 5.616C276.294 6.672 275.91 7.568 275.142 8.304C274.406 9.04 273.51 9.408 272.454 9.408ZM269.19 36.288C267.654 36.288 266.406 35.808 265.446 34.848C264.518 33.888 264.053 32.448 264.053 30.528C264.053 29.728 264.181 28.688 264.438 27.408L267.702 12H274.614L271.158 28.32C271.03 28.8 270.966 29.312 270.966 29.856C270.966 30.496 271.11 30.96 271.398 31.248C271.718 31.504 272.23 31.632 272.934 31.632C273.862 31.632 274.726 31.248 275.526 30.48C276.326 29.68 276.902 28.656 277.254 27.408H279.27C278.086 30.864 276.566 33.216 274.71 34.464C272.854 35.68 271.014 36.288 269.19 36.288ZM281.986 36.288C280.45 36.288 279.218 35.824 278.29 34.896C277.362 33.936 276.898 32.496 276.898 30.576C276.898 29.84 277.026 28.784 277.282 27.408L280.162 13.92H278.578L278.962 12H280.546L281.986 5.376L289.09 4.416L287.458 12H297.538L299.41 22.368C300.85 20.832 301.97 19.392 302.77 18.048C303.57 16.704 303.97 15.6 303.97 14.736C303.97 14.448 303.954 14.256 303.922 14.16C303.474 14.224 303.202 14.256 303.106 14.256C302.306 14.256 301.73 14.016 301.378 13.536C301.026 13.024 300.85 12.368 300.85 11.568C300.85 10.864 301.106 10.32 301.618 9.936C302.13 9.52 302.77 9.312 303.538 9.312C304.562 9.312 305.362 9.712 305.938 10.512C306.514 11.312 306.802 12.336 306.802 13.584C306.802 15.12 306.258 16.784 305.17 18.576C304.114 20.336 302.37 22.48 299.938 25.008L300.37 27.408C300.402 27.568 300.498 28.08 300.658 28.944C300.85 29.776 301.154 30.432 301.57 30.912C301.986 31.392 302.53 31.632 303.202 31.632C304.13 31.632 304.994 31.248 305.794 30.48C306.594 29.68 307.17 28.656 307.522 27.408H309.538C308.354 30.864 306.85 33.216 305.026 34.464C303.234 35.68 301.442 36.288 299.65 36.288C298.146 36.288 296.978 35.792 296.146 34.8C295.346 33.776 294.658 32.08 294.082 29.712C292.386 31.6 290.466 33.168 288.322 34.416C286.178 35.664 284.066 36.288 281.986 36.288ZM285.922 31.584C287.138 31.584 288.45 31.184 289.858 30.384C291.266 29.552 292.498 28.464 293.554 27.12L291.106 13.92H287.074L284.002 28.32C283.874 28.8 283.81 29.312 283.81 29.856C283.81 31.008 284.514 31.584 285.922 31.584ZM312.268 36.288C310.732 36.288 309.484 35.808 308.524 34.848C307.596 33.888 307.132 32.448 307.132 30.528C307.132 29.728 307.26 28.688 307.516 27.408L310.78 12H317.692L314.236 28.32C314.14 28.704 314.092 29.104 314.092 29.52C314.092 30.928 314.572 31.632 315.532 31.632C316.428 31.632 317.196 31.264 317.836 30.528C318.476 29.76 318.988 28.72 319.372 27.408L322.636 12H329.548L326.092 28.32C325.964 28.8 325.9 29.312 325.9 29.856C325.9 30.496 326.044 30.96 326.332 31.248C326.652 31.504 327.164 31.632 327.868 31.632C328.38 31.632 328.748 31.6 328.972 31.536C329.228 31.44 329.388 31.376 329.452 31.344C329.324 32.976 328.764 34.208 327.772 35.04C326.78 35.872 325.564 36.288 324.124 36.288C322.78 36.288 321.692 35.888 320.86 35.088C320.06 34.288 319.58 33.168 319.42 31.728C318.332 33.488 317.18 34.688 315.964 35.328C314.78 35.968 313.548 36.288 312.268 36.288Z" fill="white"/>
<path d="M7.456 34.032L8.18834 33.3511L8.18834 33.3511L7.456 34.032ZM6.592 14.112L5.63349 13.8268L5.63138 13.8341L6.592 14.112ZM12.064 4.176L11.3237 3.50375L11.3233 3.50418L12.064 4.176ZM27.472 1.584L26.8891 2.39654L26.8891 2.39654L27.472 1.584ZM28.864 9.696L29.68 10.274L29.6856 10.2662L29.6909 10.2583L28.864 9.696ZM23.584 9.6L23.1368 8.70557L22.0251 9.26142L22.8061 10.2283L23.584 9.6ZM25.072 3.072L24.3001 3.70771L24.3109 3.72085L24.3222 3.73362L25.072 3.072ZM18.016 5.76L18.8481 6.31471L18.8516 6.3094L18.016 5.76ZM14.272 14.496L13.3072 14.2329L13.305 14.2411L14.272 14.496ZM14.128 30.24L13.2896 30.785L13.2896 30.785L14.128 30.24ZM23.872 30.912L24.3334 31.7992L24.3334 31.7992L23.872 30.912ZM28 27.36L28.3987 26.4429L27.6741 26.1279L27.2 26.76L28 27.36ZM29.104 27.84L30.0335 28.2088L30.3906 27.309L29.5027 26.9229L29.104 27.84ZM25.552 32.88L26.2028 33.6393L26.2028 33.6393L25.552 32.88ZM20.512 35.856L20.8333 36.803L20.8408 36.8004L20.8483 36.7977L20.512 35.856ZM15.424 35.768C11.9587 35.768 9.62318 34.8942 8.18834 33.3511L6.72366 34.7129C8.68082 36.8178 11.6573 37.768 15.424 37.768V35.768ZM8.18834 33.3511C6.75018 31.8044 5.912 29.0946 5.912 24.96H3.912C3.912 29.2734 4.76982 32.6116 6.72366 34.7129L8.18834 33.3511ZM5.912 24.96C5.912 21.7105 6.45371 18.1889 7.55262 14.3899L5.63138 13.8341C4.49029 17.7791 3.912 21.4895 3.912 24.96H5.912ZM7.55048 14.3972C8.66355 10.656 10.4179 7.47943 12.8047 4.84781L11.3233 3.50418C8.71809 6.37657 6.82445 9.824 5.63352 13.8268L7.55048 14.3972ZM12.8043 4.84825C15.1365 2.27991 18.0644 0.999997 21.664 0.999997V-1C17.5196 -1 14.0475 0.504088 11.3237 3.50375L12.8043 4.84825ZM21.664 0.999997C23.9221 0.999997 25.6345 1.49652 26.8891 2.39654L28.0549 0.771462C26.3655 -0.440526 24.2059 -1 21.664 -1V0.999997ZM26.8891 2.39654C28.0448 3.22564 28.68 4.50479 28.68 6.432H30.68C30.68 4.0072 29.8432 2.05435 28.0549 0.771461L26.8891 2.39654ZM28.68 6.432C28.68 7.68871 28.4299 8.55596 28.0371 9.13369L29.6909 10.2583C30.3861 9.23604 30.68 7.92729 30.68 6.432H28.68ZM28.048 9.11798C27.7343 9.56079 27.2297 9.848 26.32 9.848V11.848C27.7143 11.848 28.9057 11.3672 29.68 10.274L28.048 9.11798ZM26.32 9.848C25.4434 9.848 24.8279 9.54859 24.3619 8.97166L22.8061 10.2283C23.6841 11.3154 24.8926 11.848 26.32 11.848V9.848ZM24.0312 10.4944C24.8707 10.0747 25.5094 9.29335 26.0078 8.33232L24.2322 7.41168C23.8346 8.17865 23.4493 8.5493 23.1368 8.70557L24.0312 10.4944ZM26.0078 8.33232C26.5258 7.33324 26.792 6.28008 26.792 5.184H24.792C24.792 5.94391 24.6102 6.68276 24.2322 7.41168L26.0078 8.33232ZM26.792 5.184C26.792 4.12533 26.4927 3.17074 25.8218 2.41038L24.3222 3.73362C24.6113 4.06126 24.792 4.51467 24.792 5.184H26.792ZM25.8439 2.43629C25.1321 1.57192 24.047 1.256 22.864 1.256V3.256C23.729 3.256 24.1159 3.48408 24.3001 3.70771L25.8439 2.43629ZM22.864 1.256C20.6573 1.256 18.7792 2.77922 17.1804 5.21059L18.8516 6.3094C20.3248 4.06878 21.6787 3.256 22.864 3.256V1.256ZM17.184 5.2053C15.5728 7.62201 14.2871 10.6401 13.3072 14.2329L15.2368 14.7591C16.1769 11.3119 17.3872 8.50599 18.8481 6.3147L17.184 5.2053ZM13.305 14.2411C12.3576 17.8348 11.88 21.3127 11.88 24.672H13.88C13.88 21.5033 14.3304 18.1972 15.239 14.7509L13.305 14.2411ZM11.88 24.672C11.88 27.1927 12.3067 29.2729 13.2896 30.785L14.9664 29.695C14.2853 28.6471 13.88 27.0153 13.88 24.672H11.88ZM13.2896 30.785C14.3775 32.4587 16.2818 33.16 18.64 33.16V31.16C16.6462 31.16 15.5425 30.5813 14.9664 29.695L13.2896 30.785ZM18.64 33.16C20.6808 33.16 22.5841 32.7088 24.3334 31.7992L23.4106 30.0248C21.9599 30.7792 20.3752 31.16 18.64 31.16V33.16ZM24.3334 31.7992C26.0749 30.8936 27.564 29.608 28.8 27.96L27.2 26.76C26.132 28.184 24.8692 29.2664 23.4106 30.0248L24.3334 31.7992ZM27.6013 28.2771L28.7053 28.7571L29.5027 26.9229L28.3987 26.4429L27.6013 28.2771ZM28.1745 27.4712C27.4313 29.3442 26.3398 30.8877 24.9012 32.1207L26.2028 33.6393C27.9002 32.1843 29.1767 30.3678 30.0335 28.2088L28.1745 27.4712ZM24.9012 32.1207C23.4181 33.392 21.8431 34.3187 20.1757 34.9143L20.8483 36.7977C22.7649 36.1133 24.5499 35.056 26.2028 33.6393L24.9012 32.1207ZM20.1907 34.909C18.4838 35.4882 16.8968 35.768 15.424 35.768V37.768C17.1512 37.768 18.9562 37.4398 20.8333 36.803L20.1907 34.909ZM29.2514 34.368L28.5892 35.1173L28.5892 35.1173L29.2514 34.368ZM28.5314 21.36L29.4789 21.6797L29.4789 21.6797L28.5314 21.36ZM32.8514 14.496L33.5468 15.2146L33.5527 15.2088L32.8514 14.496ZM46.4834 19.296H45.4834V20.0168L46.1671 20.2447L46.4834 19.296ZM50.6594 18.528L51.027 19.458L51.0363 19.4543L51.0455 19.4504L50.6594 18.528ZM54.4034 16.464L55.3521 16.1478L54.9239 14.8633L53.8221 15.6503L54.4034 16.464ZM54.8354 17.76L55.5656 18.4432L55.9723 18.0085L55.7841 17.4438L54.8354 17.76ZM51.1874 20.304L51.6027 21.2137L51.6113 21.2097L51.1874 20.304ZM46.3394 21.744L46.1779 20.7571L45.4112 20.8826L45.3432 21.6564L46.3394 21.744ZM44.3714 29.376L43.4717 28.9394L43.4717 28.9394L44.3714 29.376ZM40.2914 34.416L39.7116 33.6012L39.7116 33.6012L40.2914 34.416ZM39.0914 30.576L39.8388 31.2404L39.8448 31.2336L39.8506 31.2268L39.0914 30.576ZM41.1074 26.976L42.0413 27.3337L42.0437 27.3271L41.1074 26.976ZM42.3554 21.888L43.346 22.0246L43.4719 21.1117L42.5723 20.9118L42.3554 21.888ZM42.5474 17.28L42.9341 18.2022L43.5885 17.9278L43.5455 17.2195L42.5474 17.28ZM42.0674 15.12L41.2157 15.6441L41.2252 15.6596L41.2353 15.6747L42.0674 15.12ZM37.6514 16.8L38.4914 17.3425L38.4914 17.3425L37.6514 16.8ZM35.2514 22.32L36.2134 22.5928L36.2134 22.5928L35.2514 22.32ZM34.8674 31.104L34.0278 31.6473L34.0354 31.659L34.0433 31.6705L34.8674 31.104ZM34.8674 35.192C32.6708 35.192 31.0589 34.6309 29.9136 33.6187L28.5892 35.1173C30.1958 36.5371 32.3279 37.192 34.8674 37.192V35.192ZM29.9136 33.6187C28.8317 32.6626 28.1874 31.0717 28.1874 28.608H26.1874C26.1874 31.3923 26.9191 33.6414 28.5892 35.1173L29.9136 33.6187ZM28.1874 28.608C28.1874 26.5669 28.6082 24.2608 29.4789 21.6797L27.5838 21.0403C26.6626 23.7712 26.1874 26.2971 26.1874 28.608H28.1874ZM29.4789 21.6797C30.3247 19.1724 31.6793 17.0219 33.5468 15.2146L32.156 13.7774C30.0555 15.8101 28.53 18.2356 27.5838 21.0403L29.4789 21.6797ZM33.5527 15.2088C35.3337 13.4566 37.5704 12.568 40.3394 12.568V10.568C37.0923 10.568 34.3371 11.6314 32.15 13.7832L33.5527 15.2088ZM40.3394 12.568C42.1667 12.568 43.3787 13.128 44.1665 14.1127C44.9884 15.14 45.4834 16.7948 45.4834 19.248H47.4834C47.4834 16.5812 46.9544 14.396 45.7282 12.8633C44.468 11.288 42.6081 10.568 40.3394 10.568V12.568ZM45.4834 19.248V19.296H47.4834V19.248H45.4834ZM46.1671 20.2447C46.4356 20.3342 46.7632 20.344 47.0114 20.344V18.344C46.9015 18.344 46.8258 18.3405 46.7779 18.3361C46.7667 18.3351 46.7582 18.3341 46.7523 18.3334C46.7463 18.3326 46.7437 18.3321 46.7442 18.3322C46.7445 18.3323 46.7493 18.3331 46.7578 18.3352C46.7661 18.3372 46.7805 18.341 46.7996 18.3473L46.1671 20.2447ZM47.0114 20.344C48.2328 20.344 49.5775 20.031 51.027 19.458L50.2917 17.598C48.9893 18.113 47.9019 18.344 47.0114 18.344V20.344ZM51.0455 19.4504C52.4847 18.848 53.799 18.1246 54.9846 17.2777L53.8221 15.6503C52.7677 16.4034 51.5861 17.056 50.2732 17.6056L51.0455 19.4504ZM53.4547 16.7802L53.8867 18.0762L55.7841 17.4438L55.3521 16.1478L53.4547 16.7802ZM54.1051 17.0768C53.2811 17.9577 52.177 18.7366 50.7634 19.3983L51.6113 21.2097C53.2057 20.4634 54.5336 19.5463 55.5656 18.4432L54.1051 17.0768ZM50.7721 19.3943C49.3886 20.0259 47.8591 20.482 46.1779 20.7571L46.5009 22.7309C48.3397 22.43 50.0421 21.9261 51.6027 21.2137L50.7721 19.3943ZM45.3432 21.6564C45.0957 24.4718 44.4648 26.8931 43.4717 28.9394L45.271 29.8126C46.39 27.5069 47.071 24.8402 47.3355 21.8316L45.3432 21.6564ZM43.4717 28.9394C42.4754 30.9923 41.2158 32.5309 39.7116 33.6012L40.8711 35.2308C42.695 33.9331 44.1553 32.1117 45.271 29.8126L43.4717 28.9394ZM39.7116 33.6012C38.2086 34.6707 36.6016 35.192 34.8674 35.192V37.192C37.0372 37.192 39.0461 36.5293 40.8711 35.2308L39.7116 33.6012ZM36.7874 32.872C37.9596 32.872 38.9774 32.2094 39.8388 31.2404L38.344 29.9116C37.6693 30.6706 37.1512 30.872 36.7874 30.872V32.872ZM39.8506 31.2268C40.7149 30.2185 41.4382 28.9083 42.0412 27.3336L40.1735 26.6184C39.6246 28.0517 39.0039 29.1415 38.3321 29.9252L39.8506 31.2268ZM42.0437 27.3271C42.649 25.7129 43.0813 23.9438 43.346 22.0246L41.3648 21.7514C41.1175 23.5442 40.7177 25.1671 40.171 26.6249L42.0437 27.3271ZM42.5723 20.9118C42.3672 20.8662 42.282 20.7886 42.2246 20.6992C42.1485 20.581 42.0594 20.3367 42.0594 19.872H40.0594C40.0594 20.5593 40.1862 21.227 40.5422 21.7808C40.9168 22.3634 41.4795 22.7178 42.1384 22.8642L42.5723 20.9118ZM42.0594 19.872C42.0594 19.337 42.1609 18.9777 42.2986 18.7379C42.4284 18.5117 42.6233 18.3325 42.9341 18.2022L42.1606 16.3578C41.4794 16.6435 40.9303 17.1043 40.5641 17.7421C40.2058 18.3663 40.0594 19.095 40.0594 19.872H42.0594ZM43.5455 17.2195C43.5116 16.6594 43.4507 16.1594 43.3556 15.7311C43.2629 15.314 43.1245 14.9029 42.8994 14.5653L41.2353 15.6747C41.2662 15.7211 41.3359 15.862 41.4032 16.1649C41.468 16.4566 41.5192 16.8446 41.5492 17.3405L43.5455 17.2195ZM42.919 14.5959C42.4252 13.7933 41.5887 13.496 40.7234 13.496V15.496C41.1381 15.496 41.1976 15.6147 41.2157 15.6441L42.919 14.5959ZM40.7234 13.496C39.1379 13.496 37.8528 14.6448 36.8113 16.2575L38.4914 17.3425C39.4339 15.8832 40.1968 15.496 40.7234 15.496V13.496ZM36.8113 16.2575C35.7552 17.8927 34.9187 19.8278 34.2893 22.0472L36.2134 22.5928C36.8001 20.5242 37.5635 18.7793 38.4914 17.3425L36.8113 16.2575ZM34.2893 22.0472C33.6646 24.25 33.3394 26.2331 33.3394 27.984H35.3394C35.3394 26.4709 35.6221 24.678 36.2134 22.5928L34.2893 22.0472ZM33.3394 27.984C33.3394 28.7851 33.3849 29.4891 33.4854 30.0829C33.5836 30.663 33.7459 31.2115 34.0278 31.6473L35.7069 30.5607C35.6369 30.4525 35.5352 30.209 35.4574 29.7491C35.3818 29.3029 35.3394 28.7189 35.3394 27.984H33.3394ZM34.0433 31.6705C34.6616 32.5698 35.7015 32.872 36.7874 32.872V30.872C36.0173 30.872 35.7772 30.6622 35.6914 30.5375L34.0433 31.6705ZM50.2971 34.464L49.6079 35.1886L49.6174 35.1974L50.2971 34.464ZM49.6251 21.36L48.6775 21.0403L48.6742 21.0507L49.6251 21.36ZM53.8491 14.496L53.142 13.7889L53.142 13.7889L53.8491 14.496ZM65.3211 12.816L64.6003 13.5091L64.6071 13.5162L64.614 13.5231L65.3211 12.816ZM65.8491 18.576L66.634 19.1956L66.634 19.1956L65.8491 18.576ZM62.3451 18.912L61.4053 18.5703L61.1369 19.3084L61.7904 19.7441L62.3451 18.912ZM58.6971 16.464L59.55 16.9862L59.55 16.9862L58.6971 16.464ZM56.3451 22.176L57.3102 22.4379L57.3102 22.4379L56.3451 22.176ZM56.2491 31.44L55.5221 32.1266L55.5319 32.137L55.542 32.1471L56.2491 31.44ZM63.3051 31.056L62.7654 30.2141L62.7555 30.2206L63.3051 31.056ZM67.3851 27.408V26.408H66.9404L66.6426 26.7382L67.3851 27.408ZM69.0171 27.408L69.8746 27.9225L70.7833 26.408H69.0171V27.408ZM55.8171 35.288C53.6176 35.288 52.0507 34.7258 50.9769 33.7306L49.6174 35.1974C51.1676 36.6342 53.2806 37.288 55.8171 37.288V35.288ZM50.9863 33.7394C49.9477 32.7514 49.3291 31.1303 49.3291 28.656H47.3291C47.3291 31.4297 48.0226 33.6806 49.6079 35.1886L50.9863 33.7394ZM49.3291 28.656C49.3291 26.5766 49.7364 24.2506 50.5761 21.6693L48.6742 21.0507C47.7859 23.7814 47.3291 26.3194 47.3291 28.656H49.3291ZM50.5727 21.6797C51.4211 19.1647 52.7487 17.0106 54.5562 15.2031L53.142 13.7889C51.1095 15.8214 49.6212 18.2433 48.6776 21.0403L50.5727 21.6797ZM54.5562 15.2031C56.3051 13.4542 58.5075 12.568 61.2411 12.568V10.568C58.0228 10.568 55.2971 11.6338 53.142 13.7889L54.5562 15.2031ZM61.2411 12.568C63.0609 12.568 64.0816 12.9697 64.6003 13.5091L66.042 12.1229C64.9607 10.9983 63.2613 10.568 61.2411 10.568V12.568ZM64.614 13.5231C65.2411 14.1502 65.5691 14.9435 65.5691 15.984H67.5691C67.5691 14.4645 67.0652 13.1458 66.0282 12.1089L64.614 13.5231ZM65.5691 15.984C65.5691 16.9764 65.3547 17.5884 65.0642 17.9564L66.634 19.1956C67.3035 18.3476 67.5691 17.2316 67.5691 15.984H65.5691ZM65.0642 17.9564C64.7624 18.3387 64.437 18.488 64.0251 18.488V20.488C65.0853 20.488 65.9759 20.0293 66.634 19.1956L65.0642 17.9564ZM64.0251 18.488C63.7261 18.488 63.3561 18.3842 62.8998 18.0799L61.7904 19.7441C62.4861 20.2078 63.2362 20.488 64.0251 20.488V18.488ZM63.2849 19.2537C63.6957 18.1241 63.9211 17.0615 63.9211 16.08H61.9211C61.9211 16.7625 61.7626 17.5879 61.4053 18.5703L63.2849 19.2537ZM63.9211 16.08C63.9211 15.3639 63.7915 14.6731 63.4288 14.1031L61.7415 15.1769C61.8268 15.3109 61.9211 15.5801 61.9211 16.08H63.9211ZM63.4288 14.1031C63.0056 13.4381 62.3368 13.112 61.5771 13.112V15.112C61.6687 15.112 61.7001 15.1293 61.7011 15.1298C61.7031 15.1308 61.7056 15.1323 61.7101 15.1366C61.715 15.1412 61.7262 15.1529 61.7415 15.1769L63.4288 14.1031ZM61.5771 13.112C60.0455 13.112 58.8262 14.338 57.8443 15.9418L59.55 16.9862C60.488 15.454 61.1887 15.112 61.5771 15.112V13.112ZM57.8443 15.9418C56.8237 17.6088 56.0067 19.6053 55.38 21.914L57.3102 22.4379C57.8995 20.2667 58.6505 18.4552 59.55 16.9862L57.8443 15.9418ZM55.38 21.914C54.7553 24.2157 54.4331 26.3219 54.4331 28.224H56.4331C56.4331 26.5421 56.719 24.6162 57.3102 22.4379L55.38 21.914ZM54.4331 28.224C54.4331 29.831 54.696 31.252 55.5221 32.1266L56.9761 30.7534C56.7142 30.476 56.4331 29.753 56.4331 28.224H54.4331ZM55.542 32.1471C56.3576 32.9627 57.5569 33.256 58.8891 33.256V31.256C57.7894 31.256 57.2286 31.0053 56.9562 30.7329L55.542 32.1471ZM58.8891 33.256C60.7753 33.256 62.447 32.8175 63.8547 31.8914L62.7555 30.2206C61.7312 30.8945 60.459 31.256 58.8891 31.256V33.256ZM63.8448 31.8979C65.1945 31.0327 66.6218 29.7473 68.1277 28.0778L66.6426 26.7382C65.2044 28.3327 63.9118 29.4793 62.7655 30.2141L63.8448 31.8979ZM67.3851 28.408H69.0171V26.408H67.3851V28.408ZM68.1596 26.8935C64.7236 32.6202 60.604 35.288 55.8171 35.288V37.288C61.5262 37.288 66.2067 34.0358 69.8746 27.9225L68.1596 26.8935ZM72.703 8.304L73.4101 7.59689L73.4101 7.59689L72.703 8.304ZM72.703 2.928L73.4101 3.63511L73.4176 3.62758L73.425 3.6199L72.703 2.928ZM78.079 2.928L77.357 3.6199L77.3717 3.63527L77.3871 3.64999L78.079 2.928ZM78.079 8.304L77.3871 7.58201L77.3794 7.58937L77.3719 7.59689L78.079 8.304ZM68.383 34.848L67.664 35.543L67.6699 35.5491L67.6759 35.5551L68.383 34.848ZM67.375 27.408L66.3966 27.2007L66.3944 27.2119L67.375 27.408ZM70.639 12V11H69.8286L69.6607 11.7928L70.639 12ZM77.551 12L78.5293 12.2072L78.7849 11H77.551V12ZM74.095 28.32L75.0612 28.5777L75.0679 28.5526L75.0733 28.5272L74.095 28.32ZM74.335 31.248L73.6279 31.9551L73.6671 31.9943L73.7103 32.0289L74.335 31.248ZM78.463 30.48L79.1555 31.2014L79.1629 31.1943L79.1701 31.1871L78.463 30.48ZM80.191 27.408V26.408H79.434L79.2286 27.1365L80.191 27.408ZM82.207 27.408L83.153 27.7321L83.6067 26.408H82.207V27.408ZM77.647 34.464L78.1951 35.3005L78.205 35.2938L77.647 34.464ZM75.391 8.408C74.5959 8.408 73.9555 8.14232 73.4101 7.59689L71.9959 9.01111C72.9225 9.93768 74.0741 10.408 75.391 10.408V8.408ZM73.4101 7.59689C72.8647 7.05147 72.599 6.41111 72.599 5.616H70.599C70.599 6.93288 71.0693 8.08453 71.9959 9.01111L73.4101 7.59689ZM72.599 5.616C72.599 4.82088 72.8647 4.18053 73.4101 3.63511L71.9959 2.22089C71.0693 3.14747 70.599 4.29911 70.599 5.616H72.599ZM73.425 3.6199C73.9739 3.04708 74.6098 2.776 75.391 2.776V0.775997C74.0602 0.775997 72.9041 1.27291 71.981 2.23609L73.425 3.6199ZM75.391 2.776C76.1722 2.776 76.8081 3.04708 77.357 3.6199L78.801 2.23609C77.8779 1.27291 76.7218 0.775997 75.391 0.775997V2.776ZM77.3871 3.64999C77.9599 4.19894 78.231 4.83485 78.231 5.616H80.231C80.231 4.28515 79.7341 3.12906 78.7709 2.20601L77.3871 3.64999ZM78.231 5.616C78.231 6.39715 77.9599 7.03306 77.3871 7.58201L78.7709 9.02599C79.7341 8.10294 80.231 6.94685 80.231 5.616H78.231ZM77.3719 7.59689C76.8265 8.14232 76.1861 8.408 75.391 8.408V10.408C76.7079 10.408 77.8595 9.93768 78.7861 9.01111L77.3719 7.59689ZM72.127 35.288C70.8182 35.288 69.8373 34.8881 69.0901 34.1409L67.6759 35.5551C68.8487 36.7279 70.3638 37.288 72.127 37.288V35.288ZM69.102 34.153C68.4202 33.4476 67.991 32.3022 67.991 30.528H65.991C65.991 32.5938 66.4898 34.3284 67.664 35.543L69.102 34.153ZM67.991 30.528C67.991 29.8219 68.1055 28.8545 68.3556 27.6041L66.3944 27.2119C66.1325 28.5215 65.991 29.6341 65.991 30.528H67.991ZM68.3533 27.6152L71.6173 12.2072L69.6607 11.7928L66.3967 27.2008L68.3533 27.6152ZM70.639 13H77.551V11H70.639V13ZM76.5727 11.7928L73.1167 28.1128L75.0733 28.5272L78.5293 12.2072L76.5727 11.7928ZM73.1288 28.0623C72.9763 28.6339 72.903 29.2332 72.903 29.856H74.903C74.903 29.3908 74.9577 28.9661 75.0612 28.5777L73.1288 28.0623ZM72.903 29.856C72.903 30.6143 73.0692 31.3964 73.6279 31.9551L75.0421 30.5409C75.0248 30.5236 74.903 30.3777 74.903 29.856H72.903ZM73.7103 32.0289C74.296 32.4974 75.0875 32.632 75.871 32.632V30.632C75.2465 30.632 75.014 30.5106 74.9597 30.4671L73.7103 32.0289ZM75.871 32.632C77.1062 32.632 78.208 32.111 79.1555 31.2014L77.7705 29.7586C77.118 30.385 76.4918 30.632 75.871 30.632V32.632ZM79.1701 31.1871C80.1078 30.2494 80.7619 29.0678 81.1535 27.6795L79.2286 27.1365C78.9161 28.2442 78.4182 29.1106 77.7559 29.7729L79.1701 31.1871ZM80.191 28.408H82.207V26.408H80.191V28.408ZM81.261 27.0839C80.1065 30.4537 78.6811 32.5636 77.089 33.6342L78.205 35.2938C80.3249 33.8684 81.9395 31.2743 83.153 27.7321L81.261 27.0839ZM77.099 33.6275C75.3703 34.7601 73.7177 35.288 72.127 35.288V37.288C74.1843 37.288 76.2117 36.5999 78.195 35.3005L77.099 33.6275ZM93.1799 34.752L92.4174 35.399L92.4279 35.4114L92.4389 35.4235L93.1799 34.752ZM92.0759 28.608L93.0579 28.7969L93.0592 28.7901L92.0759 28.608ZM92.5559 26.112L91.5835 25.8786L91.579 25.8972L91.5753 25.9159L92.5559 26.112ZM92.9399 24.576L93.9014 24.8507L93.9088 24.825L93.9147 24.7988L92.9399 24.576ZM90.0599 17.424L90.8407 18.0487L90.8467 18.0413L90.8525 18.0337L90.0599 17.424ZM88.5239 20.592L87.5641 20.3111L87.5535 20.3476L87.5456 20.3848L88.5239 20.592ZM85.2599 36V37H86.0702L86.2382 36.2072L85.2599 36ZM78.3479 36L77.3696 35.7926L77.1136 37H78.3479V36ZM83.4359 12V11H82.6257L82.4576 11.7926L83.4359 12ZM90.3479 12L91.3262 12.207L91.5815 11H90.3479V12ZM89.8199 14.496L88.8415 14.289L88.0642 17.9639L90.5658 15.162L89.8199 14.496ZM100.428 20.352L101.408 20.5481L101.409 20.5429L100.428 20.352ZM99.4679 24.48L100.436 24.7299L100.437 24.727L99.4679 24.48ZM98.7479 27.408L97.774 27.1808L97.7712 27.193L97.7686 27.2054L98.7479 27.408ZM102.684 30.624L103.443 31.2748L103.451 31.2661L103.458 31.2572L102.684 30.624ZM104.412 27.408V26.408H103.735L103.483 27.0366L104.412 27.408ZM106.428 27.408L107.376 27.7268L107.819 26.408H106.428V27.408ZM102.3 34.512L102.91 35.304L102.913 35.3022L102.3 34.512ZM97.4999 35.288C95.7105 35.288 94.5916 34.8206 93.9209 34.0805L92.4389 35.4235C93.6242 36.7314 95.3852 37.288 97.4999 37.288V35.288ZM93.9424 34.105C93.2167 33.2498 92.8359 32.1907 92.8359 30.864H90.8359C90.8359 32.6093 91.351 34.1422 92.4174 35.399L93.9424 34.105ZM92.8359 30.864C92.8359 30.2692 92.9069 29.5819 93.0579 28.7968L91.0939 28.4192C90.9248 29.2981 90.8359 30.1148 90.8359 30.864H92.8359ZM93.0592 28.7901C93.2184 27.9304 93.3775 27.1031 93.5365 26.3081L91.5753 25.9159C91.4143 26.7209 91.2534 27.5576 91.0926 28.4259L93.0592 28.7901ZM93.5283 26.3454C93.7217 25.5394 93.8445 25.05 93.9014 24.8507L91.9784 24.3013C91.9073 24.55 91.7741 25.0846 91.5835 25.8786L93.5283 26.3454ZM93.9147 24.7988C94.1723 23.672 94.4138 22.561 94.6393 21.4657L92.6804 21.0623C92.4579 22.143 92.2195 23.24 91.965 24.3532L93.9147 24.7988ZM94.6393 21.4657C94.8694 20.3483 94.9959 19.3932 94.9959 18.624H92.9959C92.9959 19.1988 92.8984 20.0037 92.6804 21.0623L94.6393 21.4657ZM94.9959 18.624C94.9959 17.7208 94.842 16.8646 94.3808 16.2113C93.8747 15.4942 93.1114 15.176 92.2679 15.176V17.176C92.5763 17.176 92.6771 17.2658 92.7469 17.3647C92.8618 17.5274 92.9959 17.8952 92.9959 18.624H94.9959ZM92.2679 15.176C91.0458 15.176 90.042 15.8071 89.2673 16.8143L90.8525 18.0337C91.3577 17.3769 91.826 17.176 92.2679 17.176V15.176ZM89.279 16.7993C88.5352 17.729 87.9732 18.9135 87.5641 20.3111L89.4836 20.8729C89.8425 19.6465 90.3045 18.719 90.8407 18.0487L89.279 16.7993ZM87.5456 20.3848L84.2816 35.7928L86.2382 36.2072L89.5022 20.7992L87.5456 20.3848ZM85.2599 35H78.3479V37H85.2599V35ZM79.3261 36.2074L84.4141 12.2074L82.4576 11.7926L77.3696 35.7926L79.3261 36.2074ZM83.4359 13H90.3479V11H83.4359V13ZM89.3695 11.793L88.8415 14.289L90.7982 14.703L91.3262 12.207L89.3695 11.793ZM90.5658 15.162C92.0015 13.554 93.6128 12.808 95.4359 12.808V10.808C92.9709 10.808 90.8382 11.854 89.0739 13.83L90.5658 15.162ZM95.4359 12.808C96.879 12.808 97.909 13.1993 98.6416 13.8831L100.006 12.4209C98.8188 11.3127 97.2568 10.808 95.4359 10.808V12.808ZM98.6416 13.8831C99.33 14.5256 99.7639 15.5742 99.7639 17.232H101.764C101.764 15.2418 101.238 13.5704 100.006 12.4209L98.6416 13.8831ZM99.7639 17.232C99.7639 18.0817 99.6611 19.0564 99.4463 20.1611L101.409 20.5429C101.643 19.3436 101.764 18.2383 101.764 17.232H99.7639ZM99.4473 20.1559C99.2279 21.2529 98.9124 22.6108 98.4989 24.233L100.437 24.727C100.855 23.0852 101.18 21.6911 101.408 20.5481L99.4473 20.1559ZM98.4996 24.2301C98.2417 25.2294 97.9999 26.2129 97.774 27.1808L99.7217 27.6352C99.9439 26.6831 100.182 25.7146 100.436 24.7299L98.4996 24.2301ZM97.7686 27.2054C97.5714 28.1588 97.4599 28.9718 97.4599 29.616H99.4599C99.4599 29.1722 99.5404 28.5132 99.7271 27.6106L97.7686 27.2054ZM97.4599 29.616C97.4599 30.3943 97.6343 31.1461 98.1179 31.7372L99.6658 30.4708C99.5735 30.3579 99.4599 30.1177 99.4599 29.616H97.4599ZM98.1179 31.7372C98.6804 32.4247 99.5416 32.632 100.38 32.632V30.632C99.8102 30.632 99.6793 30.4873 99.6658 30.4708L98.1179 31.7372ZM100.38 32.632C101.604 32.632 102.66 32.1888 103.443 31.2748L101.925 29.9732C101.556 30.4032 101.076 30.632 100.38 30.632V32.632ZM103.458 31.2572C104.128 30.438 104.749 29.2573 105.34 27.7794L103.483 27.0366C102.923 28.4387 102.392 29.402 101.91 29.9908L103.458 31.2572ZM104.412 28.408H106.428V26.408H104.412V28.408ZM105.48 27.0892C104.312 30.5613 103.014 32.6926 101.687 33.7218L102.913 35.3022C104.722 33.8994 106.176 31.2947 107.376 27.7268L105.48 27.0892ZM101.689 33.72C100.298 34.7924 98.9077 35.288 97.4999 35.288V37.288C99.42 37.288 101.23 36.5996 102.91 35.304L101.689 33.72ZM105.606 34.416L104.89 35.1139L104.89 35.1139L105.606 34.416ZM105.174 21.12L104.235 20.7764L104.233 20.7829L105.174 21.12ZM109.398 14.496L110.093 15.2154L110.093 15.2152L109.398 14.496ZM119.046 12.432L119.62 11.6128L119.62 11.6128L119.046 12.432ZM120.006 14.544H119.006L120.985 14.7472L120.006 14.544ZM120.534 12V11H119.72L119.555 11.7968L120.534 12ZM127.446 12L128.425 12.2072L128.68 11H127.446V12ZM123.99 28.32L124.956 28.5777L124.963 28.5526L124.969 28.5272L123.99 28.32ZM124.23 31.248L123.523 31.9551L123.562 31.9943L123.606 32.0289L124.23 31.248ZM126.822 31.44L127.753 31.8057L128.706 29.3802L126.375 30.5456L126.822 31.44ZM124.806 35.232L125.546 35.9047L125.554 35.8965L125.561 35.8882L124.806 35.232ZM118.806 35.136L118.099 35.8431L118.113 35.8572L118.128 35.8708L118.806 35.136ZM117.318 31.824L118.309 31.6889L117.948 29.0407L116.482 31.2755L117.318 31.824ZM115.638 30.528L116.33 31.25L116.331 31.2494L115.638 30.528ZM117.27 27.408L118.247 27.6224L118.248 27.6158L117.27 27.408ZM119.574 16.56L120.552 16.7678L120.574 16.665V16.56H119.574ZM119.094 15.36L118.302 15.9697L118.314 15.9852L118.326 16.0002L119.094 15.36ZM114.15 16.992L114.971 17.5631L114.977 17.5548L114.15 16.992ZM111.75 22.368L112.714 22.6349L112.715 22.6311L111.75 22.368ZM111.558 30.96L110.851 31.6671L110.863 31.6793L110.876 31.6911L111.558 30.96ZM110.166 35.288C108.598 35.288 107.341 34.7631 106.322 33.7181L104.89 35.1139C106.304 36.5649 108.087 37.288 110.166 37.288V35.288ZM106.322 33.7181C105.364 32.7346 104.782 31.089 104.782 28.56H102.782C102.782 31.343 103.416 33.6014 104.89 35.1139L106.322 33.7181ZM104.782 28.56C104.782 26.3239 105.22 23.9582 106.116 21.4571L104.233 20.7829C103.272 23.4658 102.782 26.0601 102.782 28.56H104.782ZM106.113 21.4636C107.026 18.9697 108.355 16.8937 110.093 15.2154L108.704 13.7766C106.73 15.6823 105.243 18.0223 104.235 20.7764L106.113 21.4636ZM110.093 15.2152C111.797 13.5687 113.789 12.76 116.118 12.76V10.76C113.263 10.76 110.775 11.7753 108.703 13.7768L110.093 15.2152ZM116.118 12.76C117.351 12.76 118.081 12.9767 118.473 13.2512L119.62 11.6128C118.732 10.9913 117.51 10.76 116.118 10.76V12.76ZM118.473 13.2512C118.865 13.5257 119.006 13.8213 119.006 14.208H121.006C121.006 13.1227 120.508 12.2343 119.62 11.6128L118.473 13.2512ZM119.006 14.208V14.544H121.006V14.208H119.006ZM120.985 14.7472L121.513 12.2032L119.555 11.7968L119.027 14.3408L120.985 14.7472ZM120.534 13H127.446V11H120.534V13ZM126.468 11.7928L123.012 28.1128L124.969 28.5272L128.425 12.2072L126.468 11.7928ZM123.024 28.0623C122.872 28.6339 122.798 29.2332 122.798 29.856H124.798C124.798 29.3908 124.853 28.9661 124.956 28.5777L123.024 28.0623ZM122.798 29.856C122.798 30.6143 122.964 31.3964 123.523 31.9551L124.937 30.5409C124.92 30.5236 124.798 30.3777 124.798 29.856H122.798ZM123.606 32.0289C124.191 32.4974 124.983 32.632 125.766 32.632V30.632C125.142 30.632 124.909 30.5106 124.855 30.4671L123.606 32.0289ZM125.766 32.632C126.29 32.632 126.818 32.5602 127.269 32.3344L126.375 30.5456C126.315 30.5758 126.138 30.632 125.766 30.632V32.632ZM125.891 31.0743C125.197 32.8428 124.575 33.974 124.052 34.5758L125.561 35.8882C126.318 35.018 127.04 33.6212 127.753 31.8057L125.891 31.0743ZM124.066 34.5593C123.665 35.0002 123.04 35.288 122.022 35.288V37.288C123.437 37.288 124.667 36.8718 125.546 35.9047L124.066 34.5593ZM122.022 35.288C120.919 35.288 120.103 34.9718 119.485 34.4012L118.128 35.8708C119.174 36.8362 120.502 37.288 122.022 37.288V35.288ZM119.513 34.4289C118.904 33.8193 118.479 32.9366 118.309 31.6889L116.327 31.9591C116.541 33.5274 117.109 34.8527 118.099 35.8431L119.513 34.4289ZM116.482 31.2755C114.66 34.054 112.556 35.288 110.166 35.288V37.288C113.409 37.288 116.073 35.546 118.154 32.3725L116.482 31.2755ZM113.286 32.632C114.42 32.632 115.439 32.104 116.33 31.25L114.946 29.806C114.301 30.424 113.753 30.632 113.286 30.632V32.632ZM116.331 31.2494C117.301 30.3176 117.926 29.0865 118.247 27.6224L116.294 27.1936C116.039 28.3535 115.575 29.2024 114.946 29.8066L116.331 31.2494ZM118.248 27.6158L120.552 16.7678L118.596 16.3522L116.292 27.2002L118.248 27.6158ZM120.574 16.56C120.574 15.8652 120.301 15.2458 119.862 14.7198L118.326 16.0002C118.528 16.2422 118.574 16.4228 118.574 16.56H120.574ZM119.887 14.7503C119.326 14.0214 118.493 13.736 117.606 13.736V15.736C118.063 15.736 118.222 15.8666 118.302 15.9697L119.887 14.7503ZM117.606 13.736C115.869 13.736 114.449 14.7759 113.324 16.4292L114.977 17.5548C115.899 16.2001 116.783 15.736 117.606 15.736V13.736ZM113.329 16.4209C112.228 18.0047 111.385 19.9063 110.785 22.1049L112.715 22.6311C113.267 20.6057 114.025 18.9233 114.971 17.5631L113.329 16.4209ZM110.787 22.1011C110.194 24.2399 109.886 26.1727 109.886 27.888H111.886C111.886 26.4033 112.154 24.6561 112.714 22.6349L110.787 22.1011ZM109.886 27.888C109.886 28.7265 109.944 29.4611 110.077 30.0697C110.206 30.6588 110.43 31.2458 110.851 31.6671L112.265 30.2529C112.239 30.2262 112.126 30.0772 112.031 29.6423C111.94 29.2269 111.886 28.6495 111.886 27.888H109.886ZM110.876 31.6911C111.546 32.3163 112.368 32.632 113.286 32.632V30.632C112.861 30.632 112.531 30.4997 112.241 30.2289L110.876 31.6911ZM130.269 34.032L131.001 33.3511L131.001 33.3511L130.269 34.032ZM129.405 14.112L128.446 13.8268L128.444 13.8341L129.405 14.112ZM134.877 4.176L134.136 3.50375L134.136 3.50418L134.877 4.176ZM150.285 1.584L149.702 2.39654L149.702 2.39654L150.285 1.584ZM151.677 9.696L152.493 10.274L152.498 10.2662L152.503 10.2583L151.677 9.696ZM146.397 9.6L145.949 8.70557L144.838 9.26142L145.619 10.2283L146.397 9.6ZM147.885 3.072L147.113 3.70771L147.123 3.72085L147.135 3.73362L147.885 3.072ZM140.829 5.76L141.661 6.31471L141.664 6.3094L140.829 5.76ZM137.085 14.496L136.12 14.2329L136.118 14.2411L137.085 14.496ZM136.941 30.24L136.102 30.785L136.102 30.785L136.941 30.24ZM146.685 30.912L147.146 31.7992L147.146 31.7992L146.685 30.912ZM150.812 27.36L151.211 26.4429L150.487 26.1279L150.012 26.76L150.812 27.36ZM151.917 27.84L152.846 28.2088L153.203 27.309L152.315 26.9229L151.917 27.84ZM148.365 32.88L149.015 33.6393L149.015 33.6393L148.365 32.88ZM143.325 35.856L143.646 36.803L143.653 36.8004L143.661 36.7977L143.325 35.856ZM138.237 35.768C134.771 35.768 132.436 34.8942 131.001 33.3511L129.536 34.7129C131.493 36.8178 134.47 37.768 138.237 37.768V35.768ZM131.001 33.3511C129.563 31.8044 128.725 29.0946 128.725 24.96H126.725C126.725 29.2734 127.582 32.6116 129.536 34.7129L131.001 33.3511ZM128.725 24.96C128.725 21.7105 129.266 18.1889 130.365 14.3899L128.444 13.8341C127.303 17.7791 126.725 21.4895 126.725 24.96H128.725ZM130.363 14.3972C131.476 10.656 133.23 7.47943 135.617 4.84781L134.136 3.50418C131.531 6.37657 129.637 9.824 128.446 13.8268L130.363 14.3972ZM135.617 4.84825C137.949 2.27991 140.877 0.999997 144.477 0.999997V-1C140.332 -1 136.86 0.504088 134.136 3.50375L135.617 4.84825ZM144.477 0.999997C146.735 0.999997 148.447 1.49652 149.702 2.39654L150.867 0.771462C149.178 -0.440526 147.018 -1 144.477 -1V0.999997ZM149.702 2.39654C150.857 3.22564 151.493 4.50479 151.493 6.432H153.493C153.493 4.0072 152.656 2.05435 150.867 0.771461L149.702 2.39654ZM151.493 6.432C151.493 7.68871 151.242 8.55596 150.85 9.13369L152.503 10.2583C153.199 9.23604 153.493 7.92729 153.493 6.432H151.493ZM150.86 9.11798C150.547 9.56079 150.042 9.848 149.133 9.848V11.848C150.527 11.848 151.718 11.3672 152.493 10.274L150.86 9.11798ZM149.133 9.848C148.256 9.848 147.64 9.54859 147.174 8.97166L145.619 10.2283C146.497 11.3154 147.705 11.848 149.133 11.848V9.848ZM146.844 10.4944C147.683 10.0747 148.322 9.29335 148.82 8.33232L147.045 7.41168C146.647 8.17865 146.262 8.5493 145.949 8.70557L146.844 10.4944ZM148.82 8.33232C149.338 7.33324 149.605 6.28008 149.605 5.184H147.605C147.605 5.94391 147.423 6.68276 147.045 7.41168L148.82 8.33232ZM149.605 5.184C149.605 4.12533 149.305 3.17074 148.634 2.41038L147.135 3.73362C147.424 4.06126 147.605 4.51467 147.605 5.184H149.605ZM148.656 2.43629C147.945 1.57192 146.859 1.256 145.677 1.256V3.256C146.542 3.256 146.928 3.48408 147.113 3.70771L148.656 2.43629ZM145.677 1.256C143.47 1.256 141.592 2.77922 139.993 5.21059L141.664 6.3094C143.137 4.06878 144.491 3.256 145.677 3.256V1.256ZM139.996 5.2053C138.385 7.62201 137.1 10.6401 136.12 14.2329L138.049 14.7591C138.989 11.3119 140.2 8.50599 141.661 6.3147L139.996 5.2053ZM136.118 14.2411C135.17 17.8348 134.693 21.3127 134.693 24.672H136.693C136.693 21.5033 137.143 18.1972 138.051 14.7509L136.118 14.2411ZM134.693 24.672C134.693 27.1927 135.119 29.2729 136.102 30.785L137.779 29.695C137.098 28.6471 136.693 27.0153 136.693 24.672H134.693ZM136.102 30.785C137.19 32.4587 139.094 33.16 141.453 33.16V31.16C139.459 31.16 138.355 30.5813 137.779 29.695L136.102 30.785ZM141.453 33.16C143.493 33.16 145.397 32.7088 147.146 31.7992L146.223 30.0248C144.772 30.7792 143.188 31.16 141.453 31.16V33.16ZM147.146 31.7992C148.887 30.8936 150.377 29.608 151.613 27.96L150.012 26.76C148.944 28.184 147.682 29.2664 146.223 30.0248L147.146 31.7992ZM150.414 28.2771L151.518 28.7571L152.315 26.9229L151.211 26.4429L150.414 28.2771ZM150.987 27.4712C150.244 29.3442 149.152 30.8877 147.714 32.1207L149.015 33.6393C150.713 32.1843 151.989 30.3678 152.846 28.2088L150.987 27.4712ZM147.714 32.1207C146.231 33.392 144.656 34.3187 142.988 34.9143L143.661 36.7977C145.577 36.1133 147.362 35.056 149.015 33.6393L147.714 32.1207ZM143.003 34.909C141.296 35.4882 139.709 35.768 138.237 35.768V37.768C139.964 37.768 141.769 37.4398 143.646 36.803L143.003 34.909ZM152.064 34.368L151.402 35.1173L151.402 35.1173L152.064 34.368ZM151.344 21.36L152.291 21.6797L152.291 21.6797L151.344 21.36ZM155.664 14.496L156.359 15.2146L156.365 15.2088L155.664 14.496ZM169.296 19.296H168.296V20.0168L168.98 20.2447L169.296 19.296ZM173.472 18.528L173.84 19.458L173.849 19.4543L173.858 19.4504L173.472 18.528ZM177.216 16.464L178.165 16.1478L177.736 14.8633L176.635 15.6503L177.216 16.464ZM177.648 17.76L178.378 18.4432L178.785 18.0085L178.597 17.4438L177.648 17.76ZM174 20.304L174.415 21.2137L174.424 21.2097L174 20.304ZM169.152 21.744L168.99 20.7571L168.224 20.8826L168.156 21.6564L169.152 21.744ZM167.184 29.376L166.284 28.9394L166.284 28.9394L167.184 29.376ZM163.104 34.416L162.524 33.6012L162.524 33.6012L163.104 34.416ZM161.904 30.576L162.651 31.2404L162.657 31.2336L162.663 31.2268L161.904 30.576ZM163.92 26.976L164.854 27.3337L164.856 27.3271L163.92 26.976ZM165.168 21.888L166.158 22.0246L166.284 21.1117L165.385 20.9118L165.168 21.888ZM165.36 17.28L165.747 18.2022L166.401 17.9278L166.358 17.2195L165.36 17.28ZM164.88 15.12L164.028 15.6441L164.038 15.6596L164.048 15.6747L164.88 15.12ZM160.464 16.8L161.304 17.3425L161.304 17.3425L160.464 16.8ZM158.064 22.32L159.026 22.5928L159.026 22.5928L158.064 22.32ZM157.68 31.104L156.84 31.6473L156.848 31.659L156.856 31.6705L157.68 31.104ZM157.68 35.192C155.483 35.192 153.871 34.6309 152.726 33.6187L151.402 35.1173C153.008 36.5371 155.14 37.192 157.68 37.192V35.192ZM152.726 33.6187C151.644 32.6626 151 31.0717 151 28.608H149C149 31.3923 149.732 33.6414 151.402 35.1173L152.726 33.6187ZM151 28.608C151 26.5669 151.421 24.2608 152.291 21.6797L150.396 21.0403C149.475 23.7712 149 26.2971 149 28.608H151ZM152.291 21.6797C153.137 19.1724 154.492 17.0219 156.359 15.2146L154.968 13.7774C152.868 15.8101 151.343 18.2356 150.396 21.0403L152.291 21.6797ZM156.365 15.2088C158.146 13.4566 160.383 12.568 163.152 12.568V10.568C159.905 10.568 157.15 11.6314 154.963 13.7832L156.365 15.2088ZM163.152 12.568C164.979 12.568 166.191 13.128 166.979 14.1127C167.801 15.14 168.296 16.7948 168.296 19.248H170.296C170.296 16.5812 169.767 14.396 168.541 12.8633C167.281 11.288 165.421 10.568 163.152 10.568V12.568ZM168.296 19.248V19.296H170.296V19.248H168.296ZM168.98 20.2447C169.248 20.3342 169.576 20.344 169.824 20.344V18.344C169.714 18.344 169.638 18.3405 169.59 18.3361C169.579 18.3351 169.571 18.3341 169.565 18.3334C169.559 18.3326 169.556 18.3321 169.557 18.3322C169.557 18.3323 169.562 18.3331 169.57 18.3352C169.579 18.3372 169.593 18.341 169.612 18.3473L168.98 20.2447ZM169.824 20.344C171.045 20.344 172.39 20.031 173.84 19.458L173.104 17.598C171.802 18.113 170.714 18.344 169.824 18.344V20.344ZM173.858 19.4504C175.297 18.848 176.612 18.1246 177.797 17.2777L176.635 15.6503C175.58 16.4034 174.399 17.056 173.086 17.6056L173.858 19.4504ZM176.267 16.7802L176.699 18.0762L178.597 17.4438L178.165 16.1478L176.267 16.7802ZM176.918 17.0768C176.094 17.9577 174.99 18.7366 173.576 19.3983L174.424 21.2097C176.018 20.4634 177.346 19.5463 178.378 18.4432L176.918 17.0768ZM173.585 19.3943C172.201 20.0259 170.672 20.482 168.99 20.7571L169.313 22.7309C171.152 22.43 172.855 21.9261 174.415 21.2137L173.585 19.3943ZM168.156 21.6564C167.908 24.4718 167.277 26.8931 166.284 28.9394L168.084 29.8126C169.202 27.5069 169.884 24.8402 170.148 21.8316L168.156 21.6564ZM166.284 28.9394C165.288 30.9923 164.028 32.5309 162.524 33.6012L163.684 35.2308C165.507 33.9331 166.968 32.1117 168.084 29.8126L166.284 28.9394ZM162.524 33.6012C161.021 34.6707 159.414 35.192 157.68 35.192V37.192C159.85 37.192 161.859 36.5293 163.684 35.2308L162.524 33.6012ZM159.6 32.872C160.772 32.872 161.79 32.2094 162.651 31.2404L161.156 29.9116C160.482 30.6706 159.964 30.872 159.6 30.872V32.872ZM162.663 31.2268C163.527 30.2185 164.251 28.9083 164.854 27.3336L162.986 26.6184C162.437 28.0517 161.816 29.1415 161.145 29.9252L162.663 31.2268ZM164.856 27.3271C165.462 25.7129 165.894 23.9438 166.158 22.0246L164.177 21.7514C163.93 23.5442 163.53 25.1671 162.984 26.6249L164.856 27.3271ZM165.385 20.9118C165.18 20.8662 165.095 20.7886 165.037 20.6992C164.961 20.581 164.872 20.3367 164.872 19.872H162.872C162.872 20.5593 162.999 21.227 163.355 21.7808C163.729 22.3634 164.292 22.7178 164.951 22.8642L165.385 20.9118ZM164.872 19.872C164.872 19.337 164.973 18.9777 165.111 18.7379C165.241 18.5117 165.436 18.3325 165.747 18.2022L164.973 16.3578C164.292 16.6435 163.743 17.1043 163.377 17.7421C163.018 18.3663 162.872 19.095 162.872 19.872H164.872ZM166.358 17.2195C166.324 16.6594 166.263 16.1594 166.168 15.7311C166.075 15.314 165.937 14.9029 165.712 14.5653L164.048 15.6747C164.079 15.7211 164.148 15.862 164.216 16.1649C164.281 16.4566 164.332 16.8446 164.362 17.3405L166.358 17.2195ZM165.732 14.5959C165.238 13.7933 164.401 13.496 163.536 13.496V15.496C163.951 15.496 164.01 15.6147 164.028 15.6441L165.732 14.5959ZM163.536 13.496C161.95 13.496 160.665 14.6448 159.624 16.2575L161.304 17.3425C162.246 15.8832 163.009 15.496 163.536 15.496V13.496ZM159.624 16.2575C158.568 17.8927 157.731 19.8278 157.102 22.0472L159.026 22.5928C159.613 20.5242 160.376 18.7793 161.304 17.3425L159.624 16.2575ZM157.102 22.0472C156.477 24.25 156.152 26.2331 156.152 27.984H158.152C158.152 26.4709 158.435 24.678 159.026 22.5928L157.102 22.0472ZM156.152 27.984C156.152 28.7851 156.197 29.4891 156.298 30.0829C156.396 30.663 156.558 31.2115 156.84 31.6473L158.519 30.5607C158.449 30.4525 158.348 30.209 158.27 29.7491C158.194 29.3029 158.152 28.7189 158.152 27.984H156.152ZM156.856 31.6705C157.474 32.5698 158.514 32.872 159.6 32.872V30.872C158.83 30.872 158.59 30.6622 158.504 30.5375L156.856 31.6705ZM184.582 34.752L185.382 34.152L185.382 34.152L184.582 34.752ZM183.67 28.608L184.652 28.7969L184.653 28.7901L183.67 28.608ZM184.15 26.112L183.177 25.8786L183.173 25.8972L183.169 25.9159L184.15 26.112ZM184.534 24.576L185.495 24.8507L185.503 24.825L185.508 24.7988L184.534 24.576ZM181.654 17.424L182.434 18.0487L182.44 18.0413L182.446 18.0337L181.654 17.424ZM180.118 20.592L179.158 20.3111L179.147 20.3476L179.139 20.3848L180.118 20.592ZM176.854 36V37H177.664L177.832 36.2072L176.854 36ZM169.942 36L168.963 35.7926L168.707 37H169.942V36ZM175.03 12V11H174.219L174.051 11.7926L175.03 12ZM181.942 12L182.92 12.207L183.175 11H181.942V12ZM181.414 14.496L180.435 14.289L179.658 17.9639L182.16 15.162L181.414 14.496ZM192.022 20.352L193.002 20.5481L193.003 20.5429L192.022 20.352ZM191.062 24.48L192.03 24.7299L192.031 24.727L191.062 24.48ZM190.342 27.408L189.368 27.1808L189.365 27.193L189.362 27.2054L190.342 27.408ZM193.558 31.344L194.551 31.4608L194.804 29.3115L193.003 30.5119L193.558 31.344ZM191.782 35.04L191.139 34.2738L191.133 34.279L191.127 34.2843L191.782 35.04ZM188.278 35.288C186.785 35.288 185.903 34.8468 185.382 34.152L183.782 35.352C184.796 36.7052 186.378 37.288 188.278 37.288V35.288ZM185.382 34.152C184.77 33.3371 184.43 32.2654 184.43 30.864H182.43C182.43 32.5986 182.857 34.1189 183.782 35.352L185.382 34.152ZM184.43 30.864C184.43 30.2692 184.501 29.5819 184.652 28.7968L182.688 28.4192C182.519 29.2981 182.43 30.1148 182.43 30.864H184.43ZM184.653 28.7901C184.812 27.9304 184.971 27.1031 185.13 26.3081L183.169 25.9159C183.008 26.7209 182.847 27.5576 182.686 28.4259L184.653 28.7901ZM185.122 26.3454C185.315 25.5394 185.438 25.05 185.495 24.8507L183.572 24.3013C183.501 24.55 183.368 25.0846 183.177 25.8786L185.122 26.3454ZM185.508 24.7988C185.766 23.672 186.008 22.561 186.233 21.4657L184.274 21.0623C184.052 22.143 183.813 23.24 183.559 24.3532L185.508 24.7988ZM186.233 21.4657C186.463 20.3483 186.59 19.3932 186.59 18.624H184.59C184.59 19.1988 184.492 20.0037 184.274 21.0623L186.233 21.4657ZM186.59 18.624C186.59 17.7208 186.436 16.8646 185.975 16.2113C185.468 15.4942 184.705 15.176 183.862 15.176V17.176C184.17 17.176 184.271 17.2658 184.341 17.3647C184.456 17.5274 184.59 17.8952 184.59 18.624H186.59ZM183.862 15.176C182.64 15.176 181.636 15.8071 180.861 16.8143L182.446 18.0337C182.951 17.3769 183.42 17.176 183.862 17.176V15.176ZM180.873 16.7993C180.129 17.729 179.567 18.9135 179.158 20.3111L181.077 20.8729C181.436 19.6465 181.898 18.719 182.434 18.0487L180.873 16.7993ZM179.139 20.3848L175.875 35.7928L177.832 36.2072L181.096 20.7992L179.139 20.3848ZM176.854 35H169.942V37H176.854V35ZM170.92 36.2074L176.008 12.2074L174.051 11.7926L168.963 35.7926L170.92 36.2074ZM175.03 13H181.942V11H175.03V13ZM180.963 11.793L180.435 14.289L182.392 14.703L182.92 12.207L180.963 11.793ZM182.16 15.162C183.595 13.554 185.207 12.808 187.03 12.808V10.808C184.565 10.808 182.432 11.854 180.668 13.83L182.16 15.162ZM187.03 12.808C188.473 12.808 189.503 13.1993 190.235 13.8831L191.6 12.4209C190.413 11.3127 188.851 10.808 187.03 10.808V12.808ZM190.235 13.8831C190.924 14.5256 191.358 15.5742 191.358 17.232H193.358C193.358 15.2418 192.831 13.5704 191.6 12.4209L190.235 13.8831ZM191.358 17.232C191.358 18.0817 191.255 19.0564 191.04 20.1611L193.003 20.5429C193.236 19.3436 193.358 18.2383 193.358 17.232H191.358ZM191.041 20.1559C190.822 21.2529 190.506 22.6108 190.093 24.233L192.031 24.727C192.449 23.0852 192.774 21.6911 193.002 20.5481L191.041 20.1559ZM190.093 24.2301C189.835 25.2294 189.594 26.2129 189.368 27.1808L191.315 27.6352C191.538 26.6831 191.776 25.7146 192.03 24.7299L190.093 24.2301ZM189.362 27.2054C189.165 28.1588 189.054 28.9718 189.054 29.616H191.054C191.054 29.1722 191.134 28.5132 191.321 27.6106L189.362 27.2054ZM189.054 29.616C189.054 30.3943 189.228 31.1461 189.712 31.7372L191.26 30.4708C191.167 30.3579 191.054 30.1177 191.054 29.616H189.054ZM189.712 31.7372C190.274 32.4247 191.135 32.632 191.974 32.632V30.632C191.404 30.632 191.273 30.4873 191.26 30.4708L189.712 31.7372ZM191.974 32.632C192.394 32.632 192.782 32.6061 193.125 32.5439C193.457 32.4835 193.81 32.3778 194.112 32.1761L193.003 30.5119C193.018 30.5022 192.963 30.5405 192.767 30.5761C192.581 30.6099 192.321 30.632 191.974 30.632V32.632ZM192.564 31.2272C192.394 32.6769 191.887 33.6464 191.139 34.2738L192.424 35.8062C193.66 34.7695 194.337 33.2751 194.551 31.4608L192.564 31.2272ZM191.127 34.2843C190.364 34.9451 189.435 35.288 188.278 35.288V37.288C189.873 37.288 191.279 36.7989 192.437 35.7957L191.127 34.2843ZM196.203 44.064L196.91 43.3569L196.91 43.3569L196.203 44.064ZM195.963 34.656L195.191 34.0196L195.191 34.0196L195.963 34.656ZM203.595 33.36L203.161 34.261L203.18 34.2705L203.201 34.2791L203.595 33.36ZM204.651 37.872L204.01 38.6402L205.206 39.6365L205.615 38.1351L204.651 37.872ZM203.163 36.864L203.582 35.956L203.552 35.9424L203.521 35.9307L203.163 36.864ZM199.275 37.68L198.518 37.0264L198.509 37.0365L198.501 37.0468L199.275 37.68ZM199.419 42.672L200.069 41.9127L200.059 41.9036L200.048 41.8948L199.419 42.672ZM203.595 43.056L203.127 42.1722L203.095 42.189L203.065 42.208L203.595 43.056ZM205.035 41.328L204.14 40.8808L204.137 40.8875L204.133 40.8942L205.035 41.328ZM206.234 37.632L207.208 37.861L207.21 37.8539L207.211 37.8468L206.234 37.632ZM213.771 3.36L214.747 3.57476L215.154 1.7243L213.397 2.43248L213.771 3.36ZM208.779 7.344L209.613 7.89526L209.613 7.89526L208.779 7.344ZM207.339 16.368L206.432 16.7909L206.438 16.8031L206.444 16.8152L207.339 16.368ZM207.674 17.136V18.136H208.674V17.136H207.674ZM203.787 16.08L203.124 16.829L203.139 16.8424L203.155 16.8552L203.787 16.08ZM205.035 6.528L204.28 5.87213L204.279 5.87307L205.035 6.528ZM211.515 1.824L211.926 2.73555L211.935 2.73131L211.515 1.824ZM221.307 -2.86102e-06L222.285 0.206702L222.54 -1H221.307V-2.86102e-06ZM214.107 34.08L215.085 34.2868L215.085 34.2867L214.107 34.08ZM201.483 44.936C199.396 44.936 197.92 44.3677 196.91 43.3569L195.495 44.7711C196.981 46.2563 199.025 46.936 201.483 46.936V44.936ZM196.91 43.3569C195.916 42.3636 195.379 41.0051 195.379 39.168H193.379C193.379 41.4269 194.057 43.3324 195.495 44.7711L196.91 43.3569ZM195.379 39.168C195.379 37.6618 195.832 36.3854 196.734 35.2924L195.191 34.0196C193.981 35.4866 193.379 37.2182 193.379 39.168H195.379ZM196.734 35.2924C197.583 34.2628 198.714 33.736 200.235 33.736V31.736C198.171 31.736 196.454 32.4892 195.191 34.0196L196.734 35.2924ZM200.235 33.736C201.521 33.736 202.478 33.9322 203.161 34.261L204.028 32.459C202.983 31.9558 201.7 31.736 200.235 31.736V33.736ZM203.201 34.2791C203.588 34.4451 203.939 34.828 203.939 35.952H205.939C205.939 34.388 205.393 33.0429 203.988 32.4409L203.201 34.2791ZM203.939 35.952C203.939 36.4192 203.86 36.969 203.686 37.6089L205.615 38.1351C205.825 37.367 205.939 36.6368 205.939 35.952H203.939ZM205.291 37.1038C204.684 36.5984 204.111 36.2005 203.582 35.956L202.743 37.772C203.046 37.9115 203.465 38.1856 204.01 38.6402L205.291 37.1038ZM203.521 35.9307C202.975 35.7206 202.387 35.624 201.771 35.624V37.624C202.178 37.624 202.518 37.6874 202.804 37.7973L203.521 35.9307ZM201.771 35.624C200.468 35.624 199.343 36.0713 198.518 37.0264L200.031 38.3336C200.422 37.8807 200.961 37.624 201.771 37.624V35.624ZM198.501 37.0468C197.77 37.9398 197.411 38.999 197.411 40.176H199.411C199.411 39.433 199.627 38.8282 200.048 38.3132L198.501 37.0468ZM197.411 40.176C197.411 41.5014 197.817 42.6621 198.789 43.4492L200.048 41.8948C199.676 41.5939 199.411 41.0906 199.411 40.176H197.411ZM198.768 43.4313C199.608 44.1519 200.588 44.536 201.675 44.536V42.536C201.097 42.536 200.573 42.3441 200.069 41.9127L198.768 43.4313ZM201.675 44.536C202.579 44.536 203.416 44.347 204.124 43.904L203.065 42.208C202.749 42.405 202.306 42.536 201.675 42.536V44.536ZM204.062 43.9398C204.874 43.51 205.475 42.7179 205.936 41.7618L204.133 40.8942C203.762 41.6661 203.403 42.026 203.127 42.1722L204.062 43.9398ZM205.929 41.7752C206.397 40.8394 206.818 39.5187 207.208 37.861L205.261 37.403C204.883 39.0093 204.504 40.1526 204.14 40.8808L205.929 41.7752ZM207.211 37.8468L214.747 3.57476L212.794 3.14524L205.258 37.4172L207.211 37.8468ZM213.397 2.43248C211.08 3.36621 209.249 4.81844 207.944 6.79274L209.613 7.89526C210.676 6.28556 212.173 5.08178 214.144 4.28752L213.397 2.43248ZM207.944 6.79274C206.633 8.7775 206.003 11.1542 206.003 13.872H208.003C208.003 11.4698 208.556 9.4945 209.613 7.89526L207.944 6.79274ZM206.003 13.872C206.003 15.0649 206.107 16.0939 206.432 16.7909L208.245 15.9451C208.122 15.6821 208.003 15.0471 208.003 13.872H206.003ZM206.444 16.8152C206.553 17.0338 206.629 17.1921 206.674 17.2968C206.698 17.3504 206.708 17.3764 206.71 17.3823C206.711 17.3855 206.706 17.3714 206.699 17.3455C206.696 17.3321 206.69 17.309 206.686 17.2789C206.681 17.2509 206.674 17.2005 206.674 17.136H208.674C208.674 16.9273 208.607 16.748 208.597 16.7216C208.571 16.6476 208.539 16.5696 208.507 16.4952C208.44 16.3439 208.348 16.1502 208.233 15.9208L206.444 16.8152ZM207.674 16.136C206.057 16.136 205.029 15.8023 204.418 15.3048L203.155 16.8552C204.272 17.7657 205.836 18.136 207.674 18.136V16.136ZM204.449 15.331C203.92 14.8629 203.539 14.0014 203.539 12.48H201.539C201.539 14.2866 201.989 15.8251 203.124 16.829L204.449 15.331ZM203.539 12.48C203.539 10.7265 204.244 8.96647 205.79 7.18293L204.279 5.87307C202.497 7.92953 201.539 10.1375 201.539 12.48H203.539ZM205.789 7.18387C207.38 5.35267 209.418 3.86688 211.926 2.7355L211.103 0.912494C208.363 2.14912 206.081 3.79932 204.28 5.87213L205.789 7.18387ZM211.935 2.73131C214.441 1.57007 216.922 0.999997 219.387 0.999997V-1C216.603 -1 213.836 -0.354073 211.094 0.916689L211.935 2.73131ZM219.387 0.999997H221.307V-1H219.387V0.999997ZM220.328 -0.206708L213.128 33.8733L215.085 34.2867L222.285 0.206702L220.328 -0.206708ZM213.128 33.8732C212.318 37.7045 211.002 40.4641 209.26 42.2646L210.697 43.6554C212.795 41.4879 214.231 38.3275 215.085 34.2868L213.128 33.8732ZM209.26 42.2646C207.588 43.9924 205.055 44.936 201.483 44.936V46.936C205.398 46.936 208.529 45.8956 210.697 43.6554L209.26 42.2646ZM220.497 34.416L219.781 35.1139L219.781 35.1139L220.497 34.416ZM220.065 21.12L219.126 20.7764L219.123 20.7829L220.065 21.12ZM224.289 14.496L224.983 15.2154L224.984 15.2152L224.289 14.496ZM233.937 12.432L234.51 11.6128L234.51 11.6128L233.937 12.432ZM234.897 14.544H233.897L235.876 14.7472L234.897 14.544ZM235.425 12V11H234.611L234.446 11.7968L235.425 12ZM242.337 12L243.315 12.2072L243.571 11H242.337V12ZM238.881 28.32L239.847 28.5777L239.854 28.5526L239.859 28.5272L238.881 28.32ZM242.961 30.672L242.183 30.0437L242.175 30.0529L242.168 30.0623L242.961 30.672ZM244.545 27.408V26.408H243.791L243.583 27.1333L244.545 27.408ZM246.561 27.408L247.507 27.7321L247.961 26.408H246.561V27.408ZM242.145 34.464L242.72 35.2818L242.723 35.2797L242.145 34.464ZM233.649 35.184L232.956 35.9054L232.971 35.9195L232.986 35.933L233.649 35.184ZM232.209 31.872L233.203 31.7616L232.912 29.146L231.392 31.2945L232.209 31.872ZM229.089 35.088L229.67 35.9017L229.674 35.8987L229.089 35.088ZM230.529 30.528L231.221 31.25L231.221 31.2494L230.529 30.528ZM232.161 27.408L233.138 27.6224L233.139 27.6158L232.161 27.408ZM234.465 16.56L235.443 16.7678L235.465 16.665V16.56H234.465ZM233.985 15.36L233.192 15.9697L233.204 15.9852L233.217 16.0002L233.985 15.36ZM229.041 16.992L229.862 17.5631L229.867 17.5548L229.041 16.992ZM226.641 22.368L227.605 22.6349L227.606 22.6311L226.641 22.368ZM226.449 30.96L225.742 31.6671L225.754 31.6793L225.767 31.6911L226.449 30.96ZM225.057 35.288C223.488 35.288 222.231 34.7631 221.213 33.7181L219.781 35.1139C221.195 36.5649 222.977 37.288 225.057 37.288V35.288ZM221.213 33.7181C220.255 32.7346 219.673 31.089 219.673 28.56H217.673C217.673 31.343 218.307 33.6014 219.781 35.1139L221.213 33.7181ZM219.673 28.56C219.673 26.3239 220.111 23.9582 221.006 21.4571L219.123 20.7829C218.163 23.4658 217.673 26.0601 217.673 28.56H219.673ZM221.004 21.4636C221.916 18.9697 223.245 16.8937 224.983 15.2154L223.594 13.7766C221.621 15.6823 220.133 18.0223 219.126 20.7764L221.004 21.4636ZM224.984 15.2152C226.688 13.5687 228.68 12.76 231.009 12.76V10.76C228.154 10.76 225.666 11.7753 223.594 13.7768L224.984 15.2152ZM231.009 12.76C232.241 12.76 232.971 12.9767 233.363 13.2512L234.51 11.6128C233.623 10.9913 232.401 10.76 231.009 10.76V12.76ZM233.363 13.2512C233.755 13.5257 233.897 13.8213 233.897 14.208H235.897C235.897 13.1227 235.398 12.2343 234.51 11.6128L233.363 13.2512ZM233.897 14.208V14.544H235.897V14.208H233.897ZM235.876 14.7472L236.404 12.2032L234.446 11.7968L233.918 14.3408L235.876 14.7472ZM235.425 13H242.337V11H235.425V13ZM241.359 11.7928L237.903 28.1128L239.859 28.5272L243.315 12.2072L241.359 11.7928ZM237.915 28.0623C237.762 28.6339 237.689 29.2332 237.689 29.856H239.689C239.689 29.3908 239.744 28.9661 239.847 28.5777L237.915 28.0623ZM237.689 29.856C237.689 30.6866 237.886 31.4951 238.457 32.0941C239.037 32.7019 239.834 32.92 240.657 32.92V30.92C240.167 30.92 239.981 30.7941 239.905 30.7139C239.82 30.6249 239.689 30.4014 239.689 29.856H237.689ZM240.657 32.92C241.919 32.92 242.961 32.3122 243.754 31.2817L242.168 30.0623C241.681 30.6958 241.187 30.92 240.657 30.92V32.92ZM243.739 31.3003C244.517 30.3373 245.096 29.118 245.506 27.6827L243.583 27.1333C243.225 28.386 242.749 29.3427 242.183 30.0437L243.739 31.3003ZM244.545 28.408H246.561V26.408H244.545V28.408ZM245.615 27.0839C244.456 30.4653 243.073 32.58 241.566 33.6483L242.723 35.2797C244.737 33.852 246.297 31.2627 247.507 27.7321L245.615 27.0839ZM241.569 33.6462C239.975 34.7679 238.428 35.288 236.913 35.288V37.288C238.917 37.288 240.858 36.5921 242.72 35.2818L241.569 33.6462ZM236.913 35.288C235.759 35.288 234.924 34.9769 234.311 34.435L232.986 35.933C234.038 36.8631 235.378 37.288 236.913 37.288V35.288ZM234.341 34.4626C233.756 33.9008 233.345 33.0412 233.203 31.7616L231.215 31.9824C231.393 33.5828 231.942 34.9312 232.956 35.9054L234.341 34.4626ZM231.392 31.2945C230.52 32.5282 229.555 33.5176 228.503 34.2773L229.674 35.8987C230.927 34.9944 232.042 33.8398 233.025 32.4495L231.392 31.2945ZM228.508 34.2743C227.58 34.9367 226.447 35.288 225.057 35.288V37.288C226.803 37.288 228.358 36.8393 229.67 35.9017L228.508 34.2743ZM228.177 32.632C229.311 32.632 230.33 32.104 231.221 31.25L229.837 29.806C229.192 30.424 228.643 30.632 228.177 30.632V32.632ZM231.221 31.2494C232.192 30.3176 232.816 29.0865 233.138 27.6224L231.184 27.1936C230.93 28.3535 230.466 29.2024 229.836 29.8066L231.221 31.2494ZM233.139 27.6158L235.443 16.7678L233.487 16.3522L231.183 27.2002L233.139 27.6158ZM235.465 16.56C235.465 15.8652 235.191 15.2458 234.753 14.7198L233.217 16.0002C233.418 16.2422 233.465 16.4228 233.465 16.56H235.465ZM234.777 14.7503C234.217 14.0214 233.384 13.736 232.497 13.736V15.736C232.954 15.736 233.113 15.8666 233.192 15.9697L234.777 14.7503ZM232.497 13.736C230.76 13.736 229.34 14.7759 228.214 16.4292L229.867 17.5548C230.79 16.2001 231.674 15.736 232.497 15.736V13.736ZM228.22 16.4209C227.118 18.0047 226.276 19.9063 225.676 22.1049L227.606 22.6311C228.158 20.6057 228.916 18.9233 229.862 17.5631L228.22 16.4209ZM225.677 22.1011C225.085 24.2399 224.777 26.1727 224.777 27.888H226.777C226.777 26.4033 227.045 24.6561 227.605 22.6349L225.677 22.1011ZM224.777 27.888C224.777 28.7265 224.835 29.4611 224.968 30.0697C225.097 30.6588 225.32 31.2458 225.742 31.6671L227.156 30.2529C227.129 30.2262 227.017 30.0772 226.922 29.6423C226.831 29.2269 226.777 28.6495 226.777 27.888H224.777ZM225.767 31.6911C226.436 32.3163 227.258 32.632 228.177 32.632V30.632C227.752 30.632 227.421 30.4997 227.131 30.2289L225.767 31.6911ZM245.667 34.896L244.983 35.6255L244.994 35.6365L245.006 35.6472L245.667 34.896ZM244.37 28.32L243.392 28.1128L243.392 28.116L244.37 28.32ZM247.827 12V11H247.016L246.848 11.7928L247.827 12ZM254.739 12L255.717 12.2072L255.972 11H254.739V12ZM251.283 28.32L250.304 28.1128L250.302 28.1239L251.283 28.32ZM256.755 28.848L255.931 28.2802L255.925 28.29L256.755 28.848ZM259.827 22.224L260.784 22.5113L260.784 22.5113L259.827 22.224ZM260.979 15.6H261.979L260.05 15.2286L260.979 15.6ZM260.355 15.984L260.533 16.9679L260.576 16.9601L260.618 16.9488L260.355 15.984ZM258.147 15.312L257.275 15.8023L257.286 15.8224L257.299 15.842L258.147 15.312ZM258.435 11.76L257.751 11.0305L257.739 11.0415L257.727 11.0529L258.435 11.76ZM262.995 12.24L262.137 12.7545L262.142 12.7623L262.147 12.77L262.995 12.24ZM262.227 24.48L263.183 24.7708L263.184 24.7682L262.227 24.48ZM257.667 32.832L256.919 32.1676L256.919 32.1676L257.667 32.832ZM250.035 35.288C248.342 35.288 247.148 34.867 246.327 34.1448L245.006 35.6472C246.297 36.781 248.015 37.288 250.035 37.288V35.288ZM246.35 34.1665C245.591 33.4541 245.13 32.3348 245.13 30.624H243.13C243.13 32.6892 243.694 34.4179 244.983 35.6255L246.35 34.1665ZM245.13 30.624C245.13 29.926 245.203 29.2263 245.349 28.524L243.392 28.116C243.218 28.9497 243.13 29.786 243.13 30.624H245.13ZM245.349 28.5272L248.805 12.2072L246.848 11.7928L243.392 28.1128L245.349 28.5272ZM247.827 13H254.739V11H247.827V13ZM253.76 11.7928L250.304 28.1128L252.261 28.5272L255.717 12.2072L253.76 11.7928ZM250.302 28.1239C250.141 28.9266 250.043 29.5879 250.043 30.048H252.043C252.043 29.8041 252.104 29.3134 252.263 28.5161L250.302 28.1239ZM250.043 30.048C250.043 30.7379 250.222 31.4371 250.754 31.9536C251.281 32.4647 251.984 32.632 252.675 32.632V30.632C252.277 30.632 252.164 30.5353 252.147 30.5184C252.135 30.5069 252.043 30.4141 252.043 30.048H250.043ZM252.675 32.632C254.627 32.632 256.252 31.3874 257.584 29.406L255.925 28.29C254.761 30.0206 253.666 30.632 252.675 30.632V32.632ZM257.578 29.4157C258.927 27.4597 259.992 25.1533 260.784 22.5113L258.869 21.9367C258.125 24.4147 257.142 26.5243 255.931 28.2803L257.578 29.4157ZM260.784 22.5113C261.569 19.8954 261.979 17.5858 261.979 15.6H259.979C259.979 17.3262 259.62 19.4326 258.869 21.9367L260.784 22.5113ZM260.05 15.2286C260.125 15.0414 260.246 14.9673 260.25 14.9643C260.257 14.9604 260.249 14.966 260.22 14.9775C260.192 14.9888 260.15 15.0033 260.091 15.0192L260.618 16.9488C260.845 16.8868 261.084 16.7997 261.299 16.6677C261.511 16.5367 261.768 16.3186 261.907 15.9714L260.05 15.2286ZM260.176 15.0001C259.861 15.0573 259.62 15.08 259.443 15.08V17.08C259.777 17.08 260.144 17.0387 260.533 16.9679L260.176 15.0001ZM259.443 15.08C259.286 15.08 259.156 15.0399 258.994 14.782L257.299 15.842C257.777 16.6081 258.511 17.08 259.443 17.08V15.08ZM259.018 14.8217C258.817 14.4648 258.715 14.0745 258.715 13.632H256.715C256.715 14.4055 256.9 15.1352 257.275 15.8023L259.018 14.8217ZM258.715 13.632C258.715 13.0912 258.874 12.7343 259.142 12.4671L257.727 11.0529C257.035 11.7457 256.715 12.6368 256.715 13.632H258.715ZM259.118 12.4895C259.38 12.2439 259.847 12.04 260.691 12.04V10.04C259.55 10.04 258.513 10.3161 257.751 11.0305L259.118 12.4895ZM260.691 12.04C261.451 12.04 261.864 12.3003 262.137 12.7545L263.852 11.7255C263.165 10.5797 262.042 10.04 260.691 10.04V12.04ZM262.147 12.77C262.499 13.3334 262.715 14.125 262.715 15.216H264.715C264.715 13.875 264.45 12.6826 263.842 11.71L262.147 12.77ZM262.715 15.216C262.715 17.9815 262.238 20.9716 261.269 24.1918L263.184 24.7682C264.199 21.3964 264.715 18.2105 264.715 15.216H262.715ZM261.27 24.1892C260.315 27.3299 258.861 29.9826 256.919 32.1676L258.414 33.4964C260.568 31.0734 262.154 28.1581 263.183 24.7708L261.27 24.1892ZM256.919 32.1676C255.058 34.2616 252.784 35.288 250.035 35.288V37.288C253.365 37.288 256.179 36.0104 258.414 33.4964L256.919 32.1676ZM269.766 8.304L270.473 7.59689L270.473 7.59689L269.766 8.304ZM269.766 2.928L270.473 3.63511L270.48 3.62758L270.487 3.6199L269.766 2.928ZM275.142 2.928L274.42 3.6199L274.434 3.63527L274.45 3.64999L275.142 2.928ZM275.142 8.304L274.45 7.58201L274.442 7.58937L274.434 7.59689L275.142 8.304ZM265.446 34.848L264.727 35.543L264.732 35.5491L264.738 35.5551L265.446 34.848ZM264.438 27.408L263.459 27.2007L263.457 27.2119L264.438 27.408ZM267.702 12V11H266.891L266.723 11.7928L267.702 12ZM274.614 12L275.592 12.2072L275.847 11H274.614V12ZM271.158 28.32L272.124 28.5777L272.13 28.5526L272.136 28.5272L271.158 28.32ZM271.398 31.248L270.69 31.9551L270.73 31.9943L270.773 32.0289L271.398 31.248ZM275.526 30.48L276.218 31.2014L276.225 31.1943L276.233 31.1871L275.526 30.48ZM277.254 27.408V26.408H276.497L276.291 27.1365L277.254 27.408ZM279.27 27.408L280.216 27.7321L280.669 26.408H279.27V27.408ZM274.71 34.464L275.258 35.3005L275.267 35.2938L274.71 34.464ZM272.454 8.408C271.658 8.408 271.018 8.14232 270.473 7.59689L269.058 9.01111C269.985 9.93768 271.137 10.408 272.454 10.408V8.408ZM270.473 7.59689C269.927 7.05147 269.662 6.41111 269.662 5.616H267.662C267.662 6.93288 268.132 8.08453 269.058 9.01111L270.473 7.59689ZM269.662 5.616C269.662 4.82088 269.927 4.18053 270.473 3.63511L269.058 2.22089C268.132 3.14747 267.662 4.29911 267.662 5.616H269.662ZM270.487 3.6199C271.036 3.04708 271.672 2.776 272.454 2.776V0.775997C271.123 0.775997 269.967 1.27291 269.044 2.23609L270.487 3.6199ZM272.454 2.776C273.235 2.776 273.871 3.04708 274.42 3.6199L275.863 2.23609C274.94 1.27291 273.784 0.775997 272.454 0.775997V2.776ZM274.45 3.64999C275.022 4.19894 275.294 4.83485 275.294 5.616H277.294C277.294 4.28515 276.797 3.12906 275.833 2.20601L274.45 3.64999ZM275.294 5.616C275.294 6.39715 275.022 7.03306 274.45 7.58201L275.833 9.02599C276.797 8.10294 277.294 6.94685 277.294 5.616H275.294ZM274.434 7.59689C273.889 8.14232 273.249 8.408 272.454 8.408V10.408C273.77 10.408 274.922 9.93768 275.849 9.01111L274.434 7.59689ZM269.19 35.288C267.881 35.288 266.9 34.8881 266.153 34.1409L264.738 35.5551C265.911 36.7279 267.426 37.288 269.19 37.288V35.288ZM266.164 34.153C265.483 33.4476 265.053 32.3022 265.053 30.528H263.053C263.053 32.5938 263.552 34.3284 264.727 35.543L266.164 34.153ZM265.053 30.528C265.053 29.8219 265.168 28.8545 265.418 27.6041L263.457 27.2119C263.195 28.5215 263.053 29.6341 263.053 30.528H265.053ZM265.416 27.6152L268.68 12.2072L266.723 11.7928L263.459 27.2008L265.416 27.6152ZM267.702 13H274.614V11H267.702V13ZM273.635 11.7928L270.179 28.1128L272.136 28.5272L275.592 12.2072L273.635 11.7928ZM270.191 28.0623C270.039 28.6339 269.966 29.2332 269.966 29.856H271.966C271.966 29.3908 272.02 28.9661 272.124 28.5777L270.191 28.0623ZM269.966 29.856C269.966 30.6143 270.132 31.3964 270.69 31.9551L272.105 30.5409C272.087 30.5236 271.966 30.3777 271.966 29.856H269.966ZM270.773 32.0289C271.358 32.4974 272.15 32.632 272.934 32.632V30.632C272.309 30.632 272.077 30.5106 272.022 30.4671L270.773 32.0289ZM272.934 32.632C274.169 32.632 275.27 32.111 276.218 31.2014L274.833 29.7586C274.181 30.385 273.554 30.632 272.934 30.632V32.632ZM276.233 31.1871C277.17 30.2494 277.824 29.0678 278.216 27.6795L276.291 27.1365C275.979 28.2442 275.481 29.1106 274.818 29.7729L276.233 31.1871ZM277.254 28.408H279.27V26.408H277.254V28.408ZM278.323 27.0839C277.169 30.4537 275.744 32.5636 274.152 33.6342L275.267 35.2938C277.387 33.8684 279.002 31.2743 280.216 27.7321L278.323 27.0839ZM274.161 33.6275C272.433 34.7601 270.78 35.288 269.19 35.288V37.288C271.247 37.288 273.274 36.5999 275.258 35.3005L274.161 33.6275ZM278.29 34.896L277.571 35.591L277.577 35.5971L277.583 35.6031L278.29 34.896ZM277.282 27.408L276.304 27.1992L276.302 27.2121L276.299 27.2251L277.282 27.408ZM280.162 13.92L281.14 14.1288L281.398 12.92H280.162V13.92ZM278.578 13.92L277.598 13.7239L277.359 14.92H278.578V13.92ZM278.962 12V11H278.143L277.982 11.8039L278.962 12ZM280.546 12V13H281.352L281.524 12.2124L280.546 12ZM281.986 5.376L281.852 4.38501L281.158 4.47885L281.009 5.16357L281.986 5.376ZM289.09 4.416L290.068 4.62637L290.368 3.23432L288.956 3.42501L289.09 4.416ZM287.458 12L286.481 11.7896L286.22 13H287.458V12ZM297.538 12L298.522 11.8223L298.374 11H297.538V12ZM299.41 22.368L298.426 22.5457L298.78 24.5029L300.14 23.0519L299.41 22.368ZM302.77 18.048L301.911 17.5365L301.911 17.5365L302.77 18.048ZM303.922 14.16L304.871 13.8438L304.607 13.052L303.781 13.17L303.922 14.16ZM301.378 13.536L300.554 14.1025L300.563 14.1151L300.572 14.1274L301.378 13.536ZM301.618 9.936L302.218 10.736L302.234 10.7244L302.249 10.7121L301.618 9.936ZM305.938 10.512L305.127 11.0963L305.127 11.0963L305.938 10.512ZM305.17 18.576L304.316 18.057L304.313 18.0615L305.17 18.576ZM299.938 25.008L299.218 24.3147L298.864 24.6827L298.954 25.1852L299.938 25.008ZM300.37 27.408L299.386 27.5852L299.388 27.5947L299.39 27.6041L300.37 27.408ZM300.658 28.944L299.675 29.1261L299.679 29.1476L299.684 29.1689L300.658 28.944ZM305.794 30.48L306.487 31.2014L306.494 31.1943L306.501 31.1871L305.794 30.48ZM307.522 27.408V26.408H306.765L306.56 27.1365L307.522 27.408ZM309.538 27.408L310.484 27.7321L310.938 26.408H309.538V27.408ZM305.026 34.464L305.588 35.2915L305.591 35.2893L305.026 34.464ZM296.146 34.8L295.358 35.4156L295.369 35.4293L295.38 35.4426L296.146 34.8ZM294.082 29.712L295.054 29.4756L294.606 27.6329L293.338 29.0437L294.082 29.712ZM288.322 34.416L288.825 35.2802L288.825 35.2802L288.322 34.416ZM289.858 30.384L290.352 31.2535L290.36 31.2493L290.367 31.2449L289.858 30.384ZM293.554 27.12L294.341 27.7378L294.62 27.3823L294.538 26.9377L293.554 27.12ZM291.106 13.92L292.09 13.7377L291.938 12.92H291.106V13.92ZM287.074 13.92V12.92H286.265L286.096 13.7114L287.074 13.92ZM284.002 28.32L284.969 28.5777L284.975 28.5533L284.98 28.5286L284.002 28.32ZM281.986 35.288C280.667 35.288 279.706 34.8975 278.997 34.1889L277.583 35.6031C278.731 36.7505 280.234 37.288 281.986 37.288V35.288ZM279.009 34.201C278.328 33.4956 277.898 32.3502 277.898 30.576H275.898C275.898 32.6418 276.397 34.3764 277.571 35.591L279.009 34.201ZM277.898 30.576C277.898 29.9338 278.013 28.9502 278.266 27.5909L276.299 27.2251C276.04 28.6178 275.898 29.7462 275.898 30.576H277.898ZM278.26 27.6168L281.14 14.1288L279.184 13.7112L276.304 27.1992L278.26 27.6168ZM280.162 12.92H278.578V14.92H280.162V12.92ZM279.559 14.1161L279.943 12.1961L277.982 11.8039L277.598 13.7239L279.559 14.1161ZM278.962 13H280.546V11H278.962V13ZM281.524 12.2124L282.964 5.58843L281.009 5.16357L279.569 11.7876L281.524 12.2124ZM282.12 6.36699L289.224 5.40699L288.956 3.42501L281.852 4.38501L282.12 6.36699ZM288.113 4.20562L286.481 11.7896L288.436 12.2104L290.068 4.62637L288.113 4.20562ZM287.458 13H297.538V11H287.458V13ZM296.554 12.1777L298.426 22.5457L300.394 22.1903L298.522 11.8223L296.554 12.1777ZM300.14 23.0519C301.613 21.4801 302.783 19.9826 303.63 18.5595L301.911 17.5365C301.158 18.8014 300.087 20.1839 298.681 21.6841L300.14 23.0519ZM303.63 18.5595C304.458 17.1682 304.97 15.8737 304.97 14.736H302.97C302.97 15.3263 302.683 16.2398 301.911 17.5365L303.63 18.5595ZM304.97 14.736C304.97 14.4705 304.962 14.1174 304.871 13.8438L302.974 14.4762C302.96 14.4343 302.956 14.4095 302.957 14.4144C302.957 14.4165 302.959 14.4303 302.962 14.459C302.967 14.5175 302.97 14.6076 302.97 14.736H304.97ZM303.781 13.17C303.561 13.2015 303.39 13.2242 303.266 13.2388C303.203 13.2462 303.157 13.2509 303.125 13.2538C303.086 13.2571 303.086 13.256 303.106 13.256V15.256C303.291 15.256 303.65 15.2091 304.064 15.1499L303.781 13.17ZM303.106 13.256C302.506 13.256 302.288 13.0849 302.185 12.9446L300.572 14.1274C301.173 14.9471 302.107 15.256 303.106 15.256V13.256ZM302.202 12.9695C301.994 12.6662 301.85 12.2236 301.85 11.568H299.85C299.85 12.5124 300.059 13.3818 300.554 14.1025L302.202 12.9695ZM301.85 11.568C301.85 11.1424 301.986 10.9104 302.218 10.736L301.018 9.136C300.227 9.72964 299.85 10.5856 299.85 11.568H301.85ZM302.249 10.7121C302.554 10.4641 302.961 10.312 303.538 10.312V8.312C302.58 8.312 301.706 8.57594 300.988 9.15988L302.249 10.7121ZM303.538 10.312C304.255 10.312 304.747 10.569 305.127 11.0963L306.75 9.92769C305.978 8.85496 304.869 8.312 303.538 8.312V10.312ZM305.127 11.0963C305.551 11.6856 305.802 12.4896 305.802 13.584H307.802C307.802 12.1824 307.478 10.9384 306.75 9.92769L305.127 11.0963ZM305.802 13.584C305.802 14.8819 305.342 16.3665 304.316 18.057L306.025 19.095C307.175 17.2015 307.802 15.3581 307.802 13.584H305.802ZM304.313 18.0615C303.313 19.7273 301.629 21.8086 299.218 24.3147L300.659 25.7013C303.112 23.1514 304.915 20.9447 306.028 19.0905L304.313 18.0615ZM298.954 25.1852L299.386 27.5852L301.355 27.2308L300.923 24.8308L298.954 25.1852ZM299.39 27.6041C299.42 27.7552 299.514 28.2581 299.675 29.1261L301.642 28.7619C301.482 27.9019 301.385 27.3808 301.351 27.2119L299.39 27.6041ZM299.684 29.1689C299.901 30.1075 300.261 30.9285 300.815 31.5669L302.326 30.2571C302.047 29.9355 301.8 29.4445 301.633 28.7191L299.684 29.1689ZM300.815 31.5669C301.433 32.2801 302.259 32.632 303.202 32.632V30.632C302.801 30.632 302.54 30.5039 302.326 30.2571L300.815 31.5669ZM303.202 32.632C304.438 32.632 305.539 32.111 306.487 31.2014L305.102 29.7586C304.449 30.385 303.823 30.632 303.202 30.632V32.632ZM306.501 31.1871C307.439 30.2494 308.093 29.0678 308.485 27.6795L306.56 27.1365C306.248 28.2442 305.75 29.1106 305.087 29.7729L306.501 31.1871ZM307.522 28.408H309.538V26.408H307.522V28.408ZM308.592 27.0839C307.437 30.4576 306.025 32.569 304.462 33.6387L305.591 35.2893C307.676 33.863 309.272 31.2704 310.484 27.7321L308.592 27.0839ZM304.465 33.6365C302.804 34.7639 301.204 35.288 299.65 35.288V37.288C301.681 37.288 303.665 36.5961 305.588 35.2915L304.465 33.6365ZM299.65 35.288C298.389 35.288 297.523 34.885 296.913 34.1574L295.38 35.4426C296.434 36.699 297.904 37.288 299.65 37.288V35.288ZM296.934 34.1844C296.268 33.332 295.621 31.8056 295.054 29.4756L293.111 29.9484C293.696 32.3544 294.424 34.22 295.358 35.4156L296.934 34.1844ZM293.338 29.0437C291.71 30.8561 289.871 32.3573 287.819 33.5518L288.825 35.2802C291.062 33.9787 293.062 32.3439 294.826 30.3803L293.338 29.0437ZM287.819 33.5518C285.799 34.728 283.858 35.288 281.986 35.288V37.288C284.274 37.288 286.558 36.6 288.825 35.2802L287.819 33.5518ZM285.922 32.584C287.36 32.584 288.842 32.1116 290.352 31.2535L289.364 29.5145C288.059 30.2564 286.917 30.584 285.922 30.584V32.584ZM290.367 31.2449C291.887 30.347 293.212 29.1749 294.341 27.7378L292.768 26.5022C291.785 27.7531 290.646 28.757 289.35 29.5231L290.367 31.2449ZM294.538 26.9377L292.09 13.7377L290.123 14.1023L292.571 27.3023L294.538 26.9377ZM291.106 12.92H287.074V14.92H291.106V12.92ZM286.096 13.7114L283.024 28.1114L284.98 28.5286L288.052 14.1286L286.096 13.7114ZM283.036 28.0623C282.884 28.6339 282.81 29.2332 282.81 29.856H284.81C284.81 29.3908 284.865 28.9661 284.969 28.5777L283.036 28.0623ZM282.81 29.856C282.81 30.645 283.061 31.3991 283.705 31.926C284.311 32.4214 285.108 32.584 285.922 32.584V30.584C285.329 30.584 285.07 30.4586 284.972 30.378C284.912 30.3289 284.81 30.219 284.81 29.856H282.81ZM308.524 34.848L307.805 35.543L307.811 35.5491L307.817 35.5551L308.524 34.848ZM307.516 27.408L306.537 27.2007L306.535 27.2119L307.516 27.408ZM310.78 12V11H309.969L309.801 11.7928L310.78 12ZM317.692 12L318.67 12.2072L318.926 11H317.692V12ZM314.236 28.32L315.206 28.5625L315.21 28.5449L315.214 28.5272L314.236 28.32ZM317.836 30.528L318.59 31.1842L318.597 31.1763L318.604 31.1682L317.836 30.528ZM319.372 27.408L320.331 27.6889L320.342 27.6524L320.35 27.6152L319.372 27.408ZM322.636 12V11H321.825L321.657 11.7928L322.636 12ZM329.548 12L330.526 12.2072L330.782 11H329.548V12ZM326.092 28.32L327.058 28.5777L327.065 28.5526L327.07 28.5272L326.092 28.32ZM326.332 31.248L325.625 31.9551L325.664 31.9943L325.707 32.0289L326.332 31.248ZM328.972 31.536L329.246 32.4975L329.285 32.4865L329.323 32.4723L328.972 31.536ZM329.452 31.344L330.449 31.4222L330.587 29.6583L329.004 30.4496L329.452 31.344ZM327.772 35.04L328.414 35.8062L327.772 35.04ZM320.86 35.088L320.153 35.7951L320.159 35.802L320.167 35.8088L320.86 35.088ZM319.42 31.728L320.414 31.6176L320.093 28.7363L318.569 31.2022L319.42 31.728ZM315.964 35.328L315.498 34.443L315.488 34.4483L315.964 35.328ZM312.268 35.288C310.959 35.288 309.978 34.8881 309.231 34.1409L307.817 35.5551C308.989 36.7279 310.504 37.288 312.268 37.288V35.288ZM309.243 34.153C308.561 33.4476 308.132 32.3022 308.132 30.528H306.132C306.132 32.5938 306.63 34.3284 307.805 35.543L309.243 34.153ZM308.132 30.528C308.132 29.8219 308.246 28.8545 308.496 27.6041L306.535 27.2119C306.273 28.5215 306.132 29.6341 306.132 30.528H308.132ZM308.494 27.6152L311.758 12.2072L309.801 11.7928L306.537 27.2008L308.494 27.6152ZM310.78 13H317.692V11H310.78V13ZM316.713 11.7928L313.257 28.1128L315.214 28.5272L318.67 12.2072L316.713 11.7928ZM313.265 28.0775C313.149 28.5447 313.092 29.0264 313.092 29.52H315.092C315.092 29.1816 315.131 28.8633 315.206 28.5625L313.265 28.0775ZM313.092 29.52C313.092 30.3064 313.22 31.0728 313.625 31.6673C314.078 32.3306 314.77 32.632 315.532 32.632V30.632C315.414 30.632 315.36 30.6108 315.341 30.6016C315.327 30.5947 315.306 30.5827 315.278 30.5407C315.203 30.4312 315.092 30.1416 315.092 29.52H313.092ZM315.532 32.632C316.745 32.632 317.779 32.1168 318.59 31.1842L317.081 29.8718C316.612 30.4112 316.11 30.632 315.532 30.632V32.632ZM318.604 31.1682C319.358 30.2637 319.922 29.0871 320.331 27.6889L318.412 27.1271C318.053 28.3529 317.594 29.2563 317.067 29.8878L318.604 31.1682ZM320.35 27.6152L323.614 12.2072L321.657 11.7928L318.393 27.2008L320.35 27.6152ZM322.636 13H329.548V11H322.636V13ZM328.569 11.7928L325.113 28.1128L327.07 28.5272L330.526 12.2072L328.569 11.7928ZM325.125 28.0623C324.973 28.6339 324.9 29.2332 324.9 29.856H326.9C326.9 29.3908 326.954 28.9661 327.058 28.5777L325.125 28.0623ZM324.9 29.856C324.9 30.6143 325.066 31.3964 325.625 31.9551L327.039 30.5409C327.021 30.5236 326.9 30.3777 326.9 29.856H324.9ZM325.707 32.0289C326.293 32.4974 327.084 32.632 327.868 32.632V30.632C327.243 30.632 327.011 30.5106 326.956 30.4671L325.707 32.0289ZM327.868 32.632C328.389 32.632 328.878 32.6028 329.246 32.4975L328.697 30.5745C328.617 30.5972 328.37 30.632 327.868 30.632V32.632ZM329.323 32.4723C329.562 32.3827 329.778 32.299 329.899 32.2384L329.004 30.4496C329.013 30.445 328.992 30.4555 328.912 30.4875C328.842 30.5158 328.745 30.5529 328.621 30.5997L329.323 32.4723ZM328.455 31.2658C328.342 32.7049 327.864 33.6571 327.129 34.2738L328.414 35.8062C329.663 34.7589 330.305 33.2471 330.449 31.4222L328.455 31.2658ZM327.129 34.2738C326.338 34.9376 325.357 35.288 324.124 35.288V37.288C325.771 37.288 327.222 36.8064 328.414 35.8062L327.129 34.2738ZM324.124 35.288C322.992 35.288 322.168 34.9587 321.553 34.3672L320.167 35.8088C321.215 36.8173 322.567 37.288 324.124 37.288V35.288ZM321.567 34.3809C320.968 33.7819 320.556 32.8962 320.414 31.6176L318.426 31.8384C318.604 33.4398 319.152 34.7941 320.153 35.7951L321.567 34.3809ZM318.569 31.2022C317.531 32.8814 316.495 33.9181 315.498 34.4431L316.429 36.2129C317.864 35.4579 319.132 34.0946 320.27 32.2538L318.569 31.2022ZM315.488 34.4483C314.442 35.0135 313.373 35.288 312.268 35.288V37.288C313.722 37.288 315.117 36.9225 316.439 36.2077L315.488 34.4483Z" fill="black"/>
</g>
<defs>
<filter id="filter0_d_306_539" x="0.912109" y="0" width="332.635" height="53.936" filterUnits="userSpaceOnUse" color-interpolation-filters="sRGB">
<feFlood flood-opacity="0" result="BackgroundImageFix"/>
<feColorMatrix in="SourceAlpha" type="matrix" values="0 0 0 0 0 0 0 0 0 0 0 0 0 0 0 0 0 0 127 0" result="hardAlpha"/>
<feOffset dy="4"/>
<feGaussianBlur stdDeviation="2"/>
<feComposite in2="hardAlpha" operator="out"/>
<feColorMatrix type="matrix" values="0 0 0 0 0 0 0 0 0 0 0 0 0 0 0 0 0 0 0.25 0"/>
<feBlend mode="normal" in2="BackgroundImageFix" result="effect1_dropShadow_306_539"/>
<feBlend mode="normal" in="SourceGraphic" in2="effect1_dropShadow_306_539" result="shape"/>
</filter>
</defs>
</svg>
