<svg xmlns="http://www.w3.org/2000/svg" width="342" height="311" viewBox="0 0 342 311" version="1.1">
    <path d="M 152.500 18.630 C 139.228 20.077, 123.294 23.584, 118.764 26.053 C 117.809 26.574, 115.896 27, 114.514 27 C 112.499 27, 112 27.496, 112 29.500 C 112 31.500, 112.500 32, 114.500 32 C 115.875 32, 117 31.550, 117 31 C 117 30.450, 118.773 30, 120.941 30 C 123.109 30, 125.118 29.617, 125.407 29.150 C 127.394 25.935, 176.809 24.143, 191 26.770 C 260.258 39.594, 309.924 89.099, 312.684 148.059 C 313.054 155.952, 312.830 163.196, 312.083 167.559 C 310.866 174.663, 307.103 188.468, 306.552 187.846 C 306.384 187.656, 307.114 183.450, 308.174 178.500 C 312.757 157.110, 307.713 126.342, 296.124 105 C 289.003 91.885, 277.770 78.897, 275.506 81.160 C 275.191 81.476, 275.413 83.879, 276 86.500 C 277.077 91.306, 276.059 97.227, 273.930 98.543 C 273.404 98.868, 273.435 97.985, 274.003 96.492 C 276.104 90.965, 274.853 83, 271.883 83 C 270.469 83, 270 82.273, 270 80.082 C 270 75.863, 269.049 74, 266.893 74 C 265.682 74, 265 73.297, 265 72.047 C 265 68.759, 262.781 65, 260.839 65 C 259.828 65, 259 64.346, 259 63.547 C 259 59.957, 256.669 57, 253.839 57 C 251.445 57, 251 57.409, 251 59.611 L 251 62.222 249.250 60.080 C 248.287 58.903, 245.813 57.669, 243.750 57.339 C 240.029 56.743, 240 56.765, 240 60.169 C 240 62.056, 240.563 64.196, 241.250 64.925 C 242.250 65.985, 242.250 66.342, 241.250 66.708 C 239.414 67.381, 239.727 72.584, 241.723 74.581 C 242.705 75.562, 243.326 77.457, 243.166 78.982 C 243.008 80.486, 243.567 82.226, 244.442 82.952 C 245.299 83.663, 246 85.432, 246 86.882 C 246 88.436, 246.821 90.032, 248 90.768 C 249.264 91.557, 250 93.100, 250 94.959 C 250 96.706, 250.711 98.315, 251.750 98.920 C 253.215 99.773, 253.244 99.944, 251.930 99.970 C 251.067 99.986, 249.717 98.550, 248.930 96.778 C 248.144 95.005, 246.545 93.318, 245.379 93.028 C 244.212 92.737, 242.035 91.038, 240.540 89.250 L 237.822 86 240.411 86 C 243.384 86, 243.504 85.441, 241.643 80.270 C 238.579 71.755, 238.166 69.088, 238.545 60.255 L 238.942 51.011 235.116 49.059 C 228.723 45.798, 208.452 39.157, 199.211 37.296 C 192.371 35.919, 185.346 35.539, 166.500 35.525 C 139.823 35.507, 134.162 36.283, 115.107 42.572 C 99.977 47.566, 96 49.740, 96 53.018 C 96 54.483, 95.330 57.891, 94.511 60.591 C 92.478 67.291, 92.618 69.725, 95.113 71.060 C 97.729 72.461, 97.382 75.376, 92.986 88.903 C 91.306 94.075, 88.368 103.525, 86.459 109.903 C 84.549 116.281, 81.190 127.350, 78.993 134.500 C 73.999 150.761, 73.993 151, 78.596 151 C 80.573 151, 83.423 151.877, 84.928 152.949 C 98.375 162.524, 129.153 176.180, 131.652 173.681 C 132.046 173.287, 131.868 170.835, 131.256 168.232 C 130.644 165.629, 129.877 162.262, 129.552 160.750 C 129.228 159.238, 128.365 158, 127.636 158 C 126.907 158, 125.575 157.188, 124.677 156.195 C 123.163 154.522, 123.188 154.011, 125.022 149.185 C 126.110 146.321, 126.992 142.521, 126.983 140.739 C 126.967 137.782, 126.498 137.297, 121.579 135.169 C 114.731 132.205, 106.529 124.127, 103.134 117 C 101.016 112.556, 100.518 110.059, 100.538 104 C 100.569 94.289, 103.345 87.852, 110.352 81.238 C 117.863 74.149, 125.439 70.760, 135.015 70.205 C 144.644 69.648, 151.199 71.146, 158.579 75.590 C 165.018 79.467, 165.752 79.560, 173.661 77.500 C 186.416 74.178, 200.171 76.843, 210.259 84.590 L 216.018 89.012 223.259 88.376 C 228.538 87.913, 231.113 87.183, 232.763 85.683 C 234.510 84.096, 235.298 83.898, 236.213 84.813 C 237.129 85.729, 236.897 86, 235.200 86 C 233.426 86, 233 86.577, 233 88.975 C 233 91.756, 232.832 91.887, 230.435 90.975 C 229.024 90.439, 226.549 90, 224.935 90 C 222.523 90, 222 90.418, 222 92.345 C 222 93.635, 222.822 95.434, 223.827 96.343 C 225.081 97.478, 225.515 98.942, 225.212 101.008 C 224.969 102.664, 225.327 104.689, 226.008 105.509 C 227.048 106.763, 226.847 107, 224.747 107 C 222.741 107, 222.125 107.625, 221.614 110.179 C 220.478 115.859, 215.193 122.718, 208.665 126.982 C 205.284 129.192, 201.950 131, 201.258 131 C 199.121 131, 199.837 137.210, 202.565 142.334 C 204.958 146.830, 205.025 147.313, 203.565 149.541 C 202.704 150.855, 202 153.473, 202 155.359 C 202 159.348, 198.400 171.635, 196.973 172.517 C 195.460 173.452, 195.806 178, 197.390 178 C 201.720 178, 219.279 173.533, 228.978 169.964 C 252.098 161.457, 266.093 152.667, 265.943 146.750 C 265.911 145.512, 263.934 141.350, 261.549 137.500 L 257.212 130.500 250.473 129.909 L 243.734 129.318 237.867 122.939 C 234.640 119.430, 232 116.209, 232 115.780 C 232 115.351, 231.100 114.100, 230 113 C 227.640 110.640, 227.376 108, 229.500 108 C 230.428 108, 231 108.941, 231 110.465 C 231 111.876, 231.825 113.371, 232.930 113.963 C 233.992 114.531, 235.004 116.005, 235.180 117.238 C 235.361 118.505, 236.697 120.053, 238.250 120.795 C 239.832 121.551, 241 122.921, 241 124.019 C 241 126.846, 244.336 128.136, 250.776 127.799 L 256.500 127.500 260.268 133.318 C 266.091 142.311, 269.432 149.356, 268.086 149.805 C 265.854 150.549, 260.915 155.263, 259.499 158.001 C 258.477 159.979, 257.010 160.963, 254.341 161.464 C 252.289 161.849, 248.476 163.246, 245.866 164.568 C 231.751 171.721, 214.258 176.947, 192.500 180.511 L 188.500 181.167 191.178 178.333 C 196.027 173.204, 199.285 165.244, 199.796 157.277 C 200.053 153.275, 200.654 150, 201.132 150 C 202.697 150, 202.042 144.463, 199.970 140.174 C 195.555 131.036, 195.526 131.318, 201.070 129.477 C 207.786 127.246, 215.272 121.136, 217.874 115.761 C 220.368 110.608, 220.720 101.659, 218.625 96.645 C 215.278 88.633, 206.790 81.930, 196.728 79.351 C 189.290 77.445, 174.418 77.916, 168.945 80.231 C 165.640 81.629, 165.220 81.597, 162.955 79.762 C 161.615 78.678, 158.265 76.600, 155.510 75.145 C 150.866 72.693, 149.587 72.500, 138 72.500 C 126.192 72.500, 125.200 72.658, 120.089 75.348 C 108.259 81.576, 102 91.516, 102 104.077 C 102 116.994, 108.844 127.244, 121.748 133.651 C 126.011 135.768, 129.617 137.542, 129.760 137.593 C 129.902 137.644, 128.890 141.145, 127.510 145.374 C 126.129 149.602, 125 153.723, 125 154.531 C 125 156.844, 127.944 156.285, 135.500 152.535 C 144.278 148.180, 155.061 146, 167.833 146 C 183.087 146, 183.683 146.224, 185.087 152.500 C 186.616 159.333, 185.676 163.965, 181.709 169.133 C 177.285 174.897, 174.510 176.700, 167.226 178.542 C 161.465 179.998, 160.484 179.994, 155.226 178.490 C 144.759 175.496, 138.132 168.877, 136.463 159.750 C 135.886 156.591, 135.381 156, 133.260 156 C 130.765 156, 130.748 156.059, 131.418 162.250 C 131.876 166.472, 133.014 170.001, 134.929 173.125 C 137.630 177.535, 137.663 177.729, 135.631 177.280 C 124.312 174.782, 106.778 167.417, 94.075 159.827 C 82.470 152.892, 79.383 151.838, 78.375 154.465 C 77.946 155.584, 77.225 155.232, 75.331 152.981 C 72.852 150.036, 72.851 150.024, 74.467 144.266 C 76.355 137.536, 84.362 111.463, 90.623 91.654 C 95.942 74.830, 96.117 72.404, 92.083 71.518 L 89.167 70.878 91.263 66.189 C 92.707 62.957, 93.381 59.325, 93.429 54.500 L 93.500 47.500 90.032 47.500 C 87.032 47.500, 86.255 48.041, 84.283 51.500 C 81.840 55.786, 80.239 60.790, 79.005 68 C 78.490 71.010, 78.196 71.590, 78.118 69.750 C 78.014 67.318, 77.611 67, 74.632 67 C 71.347 67, 71.221 67.156, 69.570 73.250 C 68.638 76.688, 65.931 85.575, 63.554 93 C 55.521 118.094, 48.857 140.651, 48.313 144.586 C 47.900 147.569, 47.025 148.976, 44.636 150.500 C 40.739 152.985, 37 160.190, 37 165.212 C 37 168.578, 37.276 169, 39.481 169 C 41.375 169, 42.105 168.349, 42.564 166.250 C 43.617 161.447, 43.869 161.050, 47.127 159.069 L 50.320 157.127 52.160 160.560 C 54.496 164.918, 54.469 166.161, 51.926 171.146 L 49.851 175.212 44.426 174.534 C 39.106 173.869, 39 173.905, 39 176.393 C 39 179.970, 44.279 185.559, 49.564 187.577 C 53.097 188.927, 55.760 189.151, 62.267 188.647 L 70.500 188.008 77.007 180.959 L 83.513 173.909 93.007 178.341 C 98.228 180.779, 106.213 183.774, 110.750 184.996 C 115.287 186.219, 119 187.620, 119 188.110 C 119 188.599, 120.237 189, 121.750 189 C 123.263 189, 128.100 189.749, 132.500 190.664 C 144.308 193.119, 178.123 193.082, 191 190.599 C 196.225 189.592, 201.971 188.835, 203.769 188.916 C 205.831 189.010, 207.246 188.522, 207.602 187.594 C 207.913 186.784, 209.592 185.819, 211.334 185.449 C 221.252 183.341, 251.129 169.924, 254.887 165.891 C 256.715 163.929, 256.753 163.989, 257.354 169.699 C 259.487 189.961, 259.466 190.720, 256.676 194.741 C 249.214 205.495, 232.686 217.444, 220.250 221.076 C 216.813 222.079, 216 222.765, 216 224.658 C 216 227.507, 217.594 227.618, 228.516 225.528 C 245.702 222.240, 253.966 218.053, 265.289 206.896 C 273.172 199.128, 273.207 199.071, 272.842 194.479 L 272.475 189.867 275.987 190.522 C 277.919 190.883, 279.626 191.302, 279.781 191.454 C 279.936 191.605, 280.338 194.061, 280.676 196.912 L 281.290 202.094 286.395 201.797 L 291.500 201.500 291.250 195.112 C 291.008 188.909, 291.117 188.597, 295 184.384 C 297.571 181.595, 299 179.097, 299 177.392 C 299 174.953, 298.737 174.782, 295.750 175.284 C 293.962 175.584, 291.812 176.103, 290.971 176.437 C 286.725 178.123, 282.725 169.764, 284.375 162.652 C 285.584 157.442, 287.202 157.439, 292.712 162.636 C 299.156 168.712, 302.149 166.133, 298.028 158.055 C 295.638 153.369, 292.024 150.387, 286.865 148.841 C 284.739 148.204, 282.997 147.417, 282.993 147.092 C 282.974 145.361, 273.904 108.846, 272.569 105.124 C 270.735 100.009, 270.734 100, 271.883 100 C 272.369 100, 272.988 101.013, 273.259 102.250 C 273.530 103.487, 274.907 108.550, 276.319 113.500 C 277.731 118.450, 280.085 127.804, 281.549 134.287 L 284.213 146.074 288.856 148.444 C 298.623 153.428, 302.534 160.400, 301.440 170.876 C 300.688 178.084, 299.488 181.078, 295.412 185.922 C 292.975 188.819, 292.806 189.572, 293.408 194.893 C 294.177 201.683, 293.310 202.881, 287.017 203.725 C 282.757 204.296, 279 202.229, 279 199.314 C 279 195.344, 275.584 197.359, 266.879 206.465 C 259.096 214.606, 256.404 216.712, 249.581 219.999 C 242.188 223.559, 231.274 226.880, 221.750 228.466 C 217.232 229.219, 217.109 230.143, 219.946 242.020 C 222.421 252.382, 223.700 268.450, 222.127 269.422 C 221.332 269.913, 221 268.074, 221 263.190 C 221 249.731, 215.856 228.784, 209.358 215.783 C 208.061 213.189, 207 209.702, 207 208.033 C 207 205.651, 206.564 205, 204.969 205 C 203.851 205, 202.678 204.325, 202.362 203.500 C 202.045 202.675, 200.658 202, 199.280 202 C 197.088 202, 196.837 202.346, 197.282 204.750 C 197.562 206.262, 198.956 210.252, 200.381 213.616 C 201.805 216.979, 203.701 223.054, 204.592 227.116 C 206.830 237.305, 207.432 257.627, 205.774 267 L 204.448 274.500 195.974 276.269 C 183.838 278.802, 159.893 279.601, 146.949 277.904 C 140.177 277.017, 137.730 276.412, 139.996 276.186 C 144.728 275.713, 146 274.419, 146 270.078 C 146 265.427, 144.561 264, 139.871 264 C 133.849 264, 131.178 268.727, 134.108 274.201 C 135.106 276.066, 134.982 276.216, 132.858 275.721 C 131.561 275.419, 127.930 274.615, 124.789 273.935 L 119.077 272.699 118.289 268.100 C 117.855 265.570, 117.506 256.652, 117.514 248.283 C 117.527 234.803, 117.734 232.915, 119.326 231.751 C 120.661 230.775, 121.236 228.669, 121.564 223.552 C 121.849 219.116, 122.894 214.728, 124.503 211.213 C 127.692 204.246, 127.733 202, 124.670 202 C 122.858 202, 121.493 203.447, 118.538 208.500 C 116.447 212.075, 114.160 215, 113.456 215 C 112.752 215, 108.649 214.331, 104.338 213.513 C 93.595 211.475, 83.157 206.139, 75.719 198.884 C 68.506 191.848, 66.474 191.323, 67.456 196.750 C 69.442 207.726, 87.446 223.826, 103.074 228.600 L 108.647 230.303 106.916 236.547 C 105.964 239.982, 104.648 247.901, 103.993 254.146 C 102.828 265.246, 102.494 266.828, 101.523 265.857 C 100.802 265.135, 102.787 248.466, 104.580 240.186 C 105.452 236.163, 105.950 232.311, 105.687 231.626 C 105.423 230.940, 103.334 229.817, 101.044 229.131 C 86.014 224.628, 65 203.939, 65 193.645 C 65 191.420, 64.560 191.237, 58.075 190.773 C 45.458 189.871, 38.181 183.410, 36.010 171.184 C 34.468 162.505, 36.942 155.426, 43.588 149.500 C 44.830 148.392, 46.564 144.823, 47.475 141.500 C 49.425 134.386, 57.647 107.464, 63.114 90.293 C 65.251 83.579, 67 76.941, 67 75.543 C 67 65.600, 45.915 87.313, 35.490 107.991 C 31.936 115.041, 27.374 128.222, 25.329 137.346 C 23.150 147.070, 23.184 170.877, 25.391 180.858 C 27.272 189.365, 31.376 201.723, 34.238 207.500 C 35.328 209.700, 35.748 211.050, 35.172 210.500 C 33.876 209.263, 27.645 196.711, 25.014 190.036 C 20.555 178.724, 17.414 157.667, 18.404 145.735 C 20.817 116.678, 31.459 93.070, 52.543 70 C 57.318 64.775, 61.657 60.339, 62.185 60.143 C 62.712 59.946, 65.137 57.849, 67.572 55.482 C 74.129 49.109, 73.303 46.684, 66.215 51.500 C 64.191 52.875, 62.017 54, 61.383 54 C 60.749 54, 59.493 55.125, 58.592 56.500 C 57.691 57.875, 56.342 59, 55.595 59 C 53.482 59, 36.609 77.188, 30.971 85.542 C 26.159 92.675, 18.562 107.031, 16.178 113.500 C 12.366 123.842, 8.987 143.584, 9.020 155.322 C 9.057 168.693, 12.940 188.900, 17.655 200.255 C 21.875 210.421, 23.261 213.471, 23.898 214 C 24.229 214.275, 25.239 216.075, 26.142 218 C 31.784 230.028, 53.922 253.063, 70.565 264.223 C 81.450 271.522, 97.410 279.419, 108.500 282.992 C 112.350 284.232, 117.525 286.040, 120 287.010 C 132.131 291.762, 172.011 294.030, 191.500 291.076 C 196.450 290.326, 201.850 289.635, 203.500 289.541 C 205.150 289.447, 207.175 289.093, 208 288.754 C 208.825 288.416, 215.125 286.277, 222 284.001 C 240.898 277.746, 260.263 267.432, 274.444 256.071 C 280.286 251.390, 293 239.108, 293 238.145 C 293 237.686, 293.939 236.460, 295.087 235.421 C 299.377 231.539, 310.428 213.428, 315.081 202.654 C 322.076 186.456, 324.403 174.474, 324.432 154.500 C 324.463 132.453, 321.989 120.785, 313.310 102.053 C 300.053 73.440, 276.922 50.704, 245.063 34.971 C 236.011 30.501, 227.724 27.125, 224 26.391 C 222.625 26.119, 218.596 25.007, 215.046 23.918 C 203.632 20.418, 191.942 18.885, 174 18.535 C 164.375 18.347, 154.700 18.390, 152.500 18.630 M 131.750 24.662 C 132.438 24.940, 133.563 24.940, 134.250 24.662 C 134.938 24.385, 134.375 24.158, 133 24.158 C 131.625 24.158, 131.063 24.385, 131.750 24.662 M 144.286 38.033 C 131.946 39.583, 112.241 45.311, 102.250 50.253 C 98.840 51.939, 98 52.881, 98 55.018 C 98 56.483, 97.333 59.891, 96.518 62.591 C 95.094 67.307, 95.119 67.563, 97.158 69.110 C 100.150 71.380, 99.412 77.033, 93.777 95 C 91.275 102.975, 86.890 117.150, 84.031 126.500 C 81.173 135.850, 78.445 144.738, 77.969 146.250 C 77.137 148.895, 77.239 149, 80.648 149 C 82.597 149, 85.423 149.877, 86.928 150.949 C 95.730 157.217, 112.986 165.943, 124.627 170.015 L 129.754 171.808 128.919 168.654 C 128.460 166.919, 127.831 164.262, 127.523 162.750 C 127.214 161.238, 126.365 160, 125.636 160 C 123.750 160, 121 156.691, 121.001 154.421 C 121.001 153.365, 121.901 150.133, 123.001 147.239 C 124.100 144.346, 124.992 141.421, 124.983 140.739 C 124.974 140.058, 122.542 138.451, 119.579 137.169 C 112.735 134.207, 104.534 126.131, 101.127 119 C 98.857 114.248, 98.502 112.207, 98.511 104 C 98.525 92.145, 100.835 86.333, 108.352 79.238 C 116.448 71.596, 123.473 68.659, 134.843 68.162 C 146.421 67.656, 153.012 69.033, 160.455 73.515 L 166.140 76.938 171.780 75.469 C 185.459 71.906, 201.868 74.707, 212 82.335 C 217.125 86.193, 217.875 86.453, 223 86.146 C 226.671 85.926, 229.187 85.182, 230.564 83.908 C 232.923 81.728, 236.965 81.411, 238.947 83.250 C 240.055 84.278, 240.159 84.145, 239.532 82.500 C 239.113 81.400, 238.424 79.150, 238.003 77.500 C 237.581 75.850, 236.708 73.168, 236.062 71.539 C 235.417 69.911, 235.181 67.436, 235.537 66.039 C 235.893 64.643, 236.257 61.090, 236.346 58.145 C 236.503 52.941, 236.406 52.737, 232.899 50.949 C 226.757 47.815, 206.421 41.160, 197.751 39.447 C 188.027 37.525, 155.233 36.658, 144.286 38.033 M 77 45.500 C 77 46.325, 77.675 47, 78.500 47 C 79.325 47, 80 46.325, 80 45.500 C 80 44.675, 79.325 44, 78.500 44 C 77.675 44, 77 44.675, 77 45.500 M 48.477 69.116 C 44.089 73.579, 41.010 77.067, 41.633 76.866 C 42.726 76.513, 57.581 61, 56.825 61 C 56.621 61, 52.864 64.652, 48.477 69.116 M 56.463 83.218 C 41.644 98.942, 32.302 116.952, 27.350 139.346 C 25.251 148.840, 25.282 169.111, 27.411 178.858 C 30.934 194.990, 37.419 209.836, 46.474 222.500 C 53.167 231.859, 67.215 247, 69.207 247 C 70.193 247, 71 247.600, 71 248.332 C 71 249.761, 76.297 253.796, 82 256.711 C 83.925 257.695, 85.725 258.748, 86 259.051 C 86.902 260.046, 98.194 266.139, 98.524 265.809 C 98.701 265.632, 99.357 260.765, 99.981 254.994 C 100.605 249.222, 101.707 241.903, 102.429 238.729 C 103.151 235.555, 103.462 232.802, 103.121 232.611 C 102.779 232.419, 100.722 231.689, 98.548 230.987 C 83.441 226.111, 63 205.789, 63 195.645 C 63 193.420, 62.560 193.237, 56.075 192.773 C 43.245 191.855, 36.123 185.386, 33.939 172.666 C 32.133 162.147, 34.117 154.922, 40.539 148.634 C 42.655 146.562, 44.313 143.467, 45.430 139.500 C 47.615 131.742, 56.129 103.949, 61.165 88.135 C 63.331 81.334, 64.915 75.582, 64.686 75.352 C 64.456 75.123, 60.756 78.662, 56.463 83.218 M 130.594 83.949 C 118.933 88.646, 113.851 99.626, 119.053 108.881 C 121.146 112.604, 125.702 116.261, 129.750 117.465 C 131.911 118.108, 132 117.892, 132 112.036 C 132 107.282, 132.365 105.797, 133.656 105.302 C 137.383 103.872, 141.176 114.003, 143.043 130.377 C 143.539 134.722, 144.120 138.453, 144.334 138.667 C 144.548 138.882, 148.170 137.730, 152.382 136.108 C 156.711 134.442, 164.053 132.649, 169.270 131.986 C 184.210 130.088, 182.730 131.138, 182.901 122.309 C 183.152 109.359, 186.845 97, 190.464 97 C 192.628 97, 192.996 98.210, 193.412 106.677 C 193.977 118.203, 195.023 124, 196.536 124 C 199.139 124, 206.550 117.373, 208.702 113.121 C 212.489 105.639, 208.980 97.711, 200.134 93.760 C 194.355 91.179, 183.271 90.964, 177.708 93.324 C 174.152 94.833, 173.930 95.180, 174.148 98.885 C 174.611 106.734, 168.880 107.902, 167.649 100.208 C 166.744 94.548, 161.894 88.490, 155.759 85.358 C 148.616 81.710, 137.671 81.098, 130.594 83.949 M 278.716 89.784 C 279.009 93.105, 278.576 95.563, 277.253 98.095 C 275.455 101.534, 275.448 101.908, 277.077 106.700 C 278.013 109.455, 280.484 119.191, 282.567 128.336 L 286.355 144.962 289.808 146.102 C 294.785 147.744, 300.618 153.432, 302.572 158.549 C 305.921 167.320, 302.666 183.883, 296.603 188.914 C 295.425 189.893, 295.219 191.534, 295.669 196.360 C 296.385 204.023, 295.284 205.207, 286.880 205.815 C 282.162 206.156, 280.522 205.877, 278.964 204.468 C 277.884 203.490, 277 202.119, 277 201.422 C 277 200.725, 272.799 204.390, 267.664 209.566 C 260.060 217.232, 256.940 219.620, 250.847 222.435 C 243.895 225.647, 232.621 228.988, 223.750 230.466 C 221.688 230.810, 220 231.267, 220 231.482 C 220 231.697, 220.893 235.612, 221.984 240.181 C 223.076 244.750, 224.264 253.061, 224.625 258.650 L 225.282 268.812 229.350 267.376 C 240.869 263.312, 266.153 247.539, 268.536 242.930 C 269.370 241.318, 270.698 240, 271.489 240 C 272.280 240, 276.241 236.209, 280.293 231.575 C 297.288 212.135, 309.092 179.550, 307.670 156 C 306.659 139.264, 301.556 120.600, 294.387 107.427 C 290.693 100.637, 281.028 86.753, 279.217 85.634 C 278.690 85.308, 278.477 87.071, 278.716 89.784 M 256 101.414 C 256 103.841, 258.571 108, 260.072 108 C 263.746 108, 266.246 116.959, 264.101 122.437 C 263.551 123.841, 264.433 126.042, 267.307 130.437 C 272.624 138.566, 272.984 138.870, 271.967 134.371 C 271.485 132.242, 269.726 124.452, 268.056 117.060 C 266.386 109.668, 264.678 103.314, 264.260 102.940 C 263.498 102.259, 256 100.873, 256 101.414 M 223.614 112.179 C 222.478 117.859, 217.193 124.718, 210.665 128.982 C 207.284 131.192, 203.950 133, 203.258 133 C 201.378 133, 201.721 134.992, 204.500 140.212 C 207.351 145.568, 207.642 148.769, 205.532 151.559 C 204.724 152.626, 204.049 155.106, 204.032 157.068 C 203.995 161.224, 201.428 170.562, 199.486 173.606 L 198.143 175.712 206.931 173.909 C 225.099 170.183, 252.674 158.326, 259.840 151.160 L 264.017 146.983 259.618 139.741 C 255.321 132.668, 255.117 132.494, 250.859 132.236 C 248.462 132.091, 245.391 131.721, 244.035 131.413 C 241.670 130.877, 230 119.596, 230 117.847 C 230 117.381, 229.100 116.100, 228 115 C 226.900 113.900, 226 112.100, 226 111 C 226 107.840, 224.316 108.672, 223.614 112.179 M 246.083 110.283 C 246.313 110.439, 247.400 111.226, 248.500 112.033 C 250.350 113.390, 250.397 113.369, 249.128 111.750 C 248.373 110.787, 247.285 110, 246.711 110 C 246.137 110, 245.854 110.127, 246.083 110.283 M 252 116.500 C 252 117.325, 252.177 118, 252.393 118 C 252.609 118, 253.045 117.325, 253.362 116.500 C 253.678 115.675, 253.501 115, 252.969 115 C 252.436 115, 252 115.675, 252 116.500 M 58.182 136.182 C 57.588 138.521, 57.275 140.608, 57.485 140.819 C 57.696 141.029, 58.378 139.311, 59 137 C 59.622 134.689, 59.936 132.602, 59.696 132.363 C 59.457 132.124, 58.776 133.842, 58.182 136.182 M 63.033 159.691 C 63.051 160.136, 63.891 162.890, 64.900 165.812 C 66.404 170.168, 66.839 170.724, 67.315 168.904 C 67.935 166.532, 65.926 160.690, 64.102 159.563 C 63.496 159.188, 63.015 159.246, 63.033 159.691 M 271.557 163.223 C 269.813 165.713, 269.527 170.721, 271 173 C 271.730 174.129, 271.982 173.635, 272.020 171 C 272.048 169.075, 272.714 166.375, 273.500 165 C 274.286 163.625, 274.945 162.162, 274.965 161.750 C 275.037 160.219, 273.063 161.071, 271.557 163.223 M 39 164.941 C 39 167.356, 39.556 167.599, 40.349 165.532 C 40.659 164.725, 40.482 163.798, 39.956 163.473 C 39.430 163.148, 39 163.809, 39 164.941 M 244.441 168.555 C 242.577 170.049, 242.589 170.067, 244.750 169.020 C 245.988 168.420, 247 167.720, 247 167.465 C 247 166.700, 246.481 166.921, 244.441 168.555 M 140.245 199.155 C 138.547 200.853, 138.670 207.481, 140.426 208.939 C 141.210 209.590, 143.790 209.982, 146.158 209.811 C 149.827 209.546, 150.605 209.094, 151.424 206.750 C 152.040 204.990, 152.040 203.010, 151.424 201.250 C 150.593 198.875, 149.850 198.460, 145.976 198.205 C 143.352 198.033, 140.973 198.427, 140.245 199.155 M 136 222 C 131.860 226.140, 134.657 233, 140.485 233 C 144.768 233, 147 230.773, 147 226.500 C 147 224.654, 146.293 222.436, 145.429 221.571 C 143.245 219.387, 138.392 219.608, 136 222 M 118.436 224.750 C 118.104 226.262, 117.619 228.175, 117.357 229 C 117.053 229.960, 117.215 230.140, 117.809 229.500 C 118.806 228.424, 120.250 222, 119.494 222 C 119.243 222, 118.767 223.238, 118.436 224.750 M 133.571 244.571 C 132.707 245.436, 132 247.654, 132 249.500 C 132 251.346, 132.707 253.564, 133.571 254.429 C 134.436 255.293, 136.654 256, 138.500 256 C 142.656 256, 145 253.787, 145 249.863 C 145 244.828, 143.411 243, 139.036 243 C 136.830 243, 134.462 243.681, 133.571 244.571" stroke="none" fill="#060404" fill-rule="evenodd"/>
    <path d="M 131.750 24.662 C 132.438 24.940, 133.563 24.940, 134.250 24.662 C 134.938 24.385, 134.375 24.158, 133 24.158 C 131.625 24.158, 131.063 24.385, 131.750 24.662 M 144.286 38.033 C 131.946 39.583, 112.241 45.311, 102.250 50.253 C 98.840 51.939, 98 52.881, 98 55.018 C 98 56.483, 97.333 59.891, 96.518 62.591 C 95.094 67.307, 95.119 67.563, 97.158 69.110 C 100.150 71.380, 99.412 77.033, 93.777 95 C 91.275 102.975, 86.890 117.150, 84.031 126.500 C 81.173 135.850, 78.445 144.738, 77.969 146.250 C 77.137 148.895, 77.239 149, 80.648 149 C 82.597 149, 85.423 149.877, 86.928 150.949 C 95.730 157.217, 112.986 165.943, 124.627 170.015 L 129.754 171.808 128.919 168.654 C 128.460 166.919, 127.831 164.262, 127.523 162.750 C 127.214 161.238, 126.365 160, 125.636 160 C 123.750 160, 121 156.691, 121.001 154.421 C 121.001 153.365, 121.901 150.133, 123.001 147.239 C 124.100 144.346, 124.992 141.421, 124.983 140.739 C 124.974 140.058, 122.542 138.451, 119.579 137.169 C 112.735 134.207, 104.534 126.131, 101.127 119 C 98.857 114.248, 98.502 112.207, 98.511 104 C 98.525 92.145, 100.835 86.333, 108.352 79.238 C 116.448 71.596, 123.473 68.659, 134.843 68.162 C 146.421 67.656, 153.012 69.033, 160.455 73.515 L 166.140 76.938 171.780 75.469 C 185.459 71.906, 201.868 74.707, 212 82.335 C 217.125 86.193, 217.875 86.453, 223 86.146 C 226.671 85.926, 229.187 85.182, 230.564 83.908 C 232.923 81.728, 236.965 81.411, 238.947 83.250 C 240.055 84.278, 240.159 84.145, 239.532 82.500 C 239.113 81.400, 238.424 79.150, 238.003 77.500 C 237.581 75.850, 236.708 73.168, 236.062 71.539 C 235.417 69.911, 235.181 67.436, 235.537 66.039 C 235.893 64.643, 236.257 61.090, 236.346 58.145 C 236.503 52.941, 236.406 52.737, 232.899 50.949 C 226.757 47.815, 206.421 41.160, 197.751 39.447 C 188.027 37.525, 155.233 36.658, 144.286 38.033 M 48.477 69.116 C 44.089 73.579, 41.010 77.067, 41.633 76.866 C 42.726 76.513, 57.581 61, 56.825 61 C 56.621 61, 52.864 64.652, 48.477 69.116 M 56.463 83.218 C 41.644 98.942, 32.302 116.952, 27.350 139.346 C 25.251 148.840, 25.282 169.111, 27.411 178.858 C 30.934 194.990, 37.419 209.836, 46.474 222.500 C 53.167 231.859, 67.215 247, 69.207 247 C 70.193 247, 71 247.600, 71 248.332 C 71 249.761, 76.297 253.796, 82 256.711 C 83.925 257.695, 85.725 258.748, 86 259.051 C 86.902 260.046, 98.194 266.139, 98.524 265.809 C 98.701 265.632, 99.357 260.765, 99.981 254.994 C 100.605 249.222, 101.707 241.903, 102.429 238.729 C 103.151 235.555, 103.462 232.802, 103.121 232.611 C 102.779 232.419, 100.722 231.689, 98.548 230.987 C 83.441 226.111, 63 205.789, 63 195.645 C 63 193.420, 62.560 193.237, 56.075 192.773 C 43.245 191.855, 36.123 185.386, 33.939 172.666 C 32.133 162.147, 34.117 154.922, 40.539 148.634 C 42.655 146.562, 44.313 143.467, 45.430 139.500 C 47.615 131.742, 56.129 103.949, 61.165 88.135 C 63.331 81.334, 64.915 75.582, 64.686 75.352 C 64.456 75.123, 60.756 78.662, 56.463 83.218 M 278.716 89.784 C 279.009 93.105, 278.576 95.563, 277.253 98.095 C 275.455 101.534, 275.448 101.908, 277.077 106.700 C 278.013 109.455, 280.484 119.191, 282.567 128.336 L 286.355 144.962 289.808 146.102 C 294.785 147.744, 300.618 153.432, 302.572 158.549 C 305.921 167.320, 302.666 183.883, 296.603 188.914 C 295.425 189.893, 295.219 191.534, 295.669 196.360 C 296.385 204.023, 295.284 205.207, 286.880 205.815 C 282.162 206.156, 280.522 205.877, 278.964 204.468 C 277.884 203.490, 277 202.119, 277 201.422 C 277 200.725, 272.799 204.390, 267.664 209.566 C 260.060 217.232, 256.940 219.620, 250.847 222.435 C 243.895 225.647, 232.621 228.988, 223.750 230.466 C 221.688 230.810, 220 231.267, 220 231.482 C 220 231.697, 220.893 235.612, 221.984 240.181 C 223.076 244.750, 224.264 253.061, 224.625 258.650 L 225.282 268.812 229.350 267.376 C 240.869 263.312, 266.153 247.539, 268.536 242.930 C 269.370 241.318, 270.698 240, 271.489 240 C 272.280 240, 276.241 236.209, 280.293 231.575 C 297.288 212.135, 309.092 179.550, 307.670 156 C 306.659 139.264, 301.556 120.600, 294.387 107.427 C 290.693 100.637, 281.028 86.753, 279.217 85.634 C 278.690 85.308, 278.477 87.071, 278.716 89.784 M 223.614 112.179 C 222.478 117.859, 217.193 124.718, 210.665 128.982 C 207.284 131.192, 203.950 133, 203.258 133 C 201.378 133, 201.721 134.992, 204.500 140.212 C 207.351 145.568, 207.642 148.769, 205.532 151.559 C 204.724 152.626, 204.049 155.106, 204.032 157.068 C 203.995 161.224, 201.428 170.562, 199.486 173.606 L 198.143 175.712 206.931 173.909 C 225.099 170.183, 252.674 158.326, 259.840 151.160 L 264.017 146.983 259.618 139.741 C 255.321 132.668, 255.117 132.494, 250.859 132.236 C 248.462 132.091, 245.391 131.721, 244.035 131.413 C 241.670 130.877, 230 119.596, 230 117.847 C 230 117.381, 229.100 116.100, 228 115 C 226.900 113.900, 226 112.100, 226 111 C 226 107.840, 224.316 108.672, 223.614 112.179 M 246.083 110.283 C 246.313 110.439, 247.400 111.226, 248.500 112.033 C 250.350 113.390, 250.397 113.369, 249.128 111.750 C 248.373 110.787, 247.285 110, 246.711 110 C 246.137 110, 245.854 110.127, 246.083 110.283 M 252 116.500 C 252 117.325, 252.177 118, 252.393 118 C 252.609 118, 253.045 117.325, 253.362 116.500 C 253.678 115.675, 253.501 115, 252.969 115 C 252.436 115, 252 115.675, 252 116.500 M 39 164.941 C 39 167.356, 39.556 167.599, 40.349 165.532 C 40.659 164.725, 40.482 163.798, 39.956 163.473 C 39.430 163.148, 39 163.809, 39 164.941 M 244.441 168.555 C 242.577 170.049, 242.589 170.067, 244.750 169.020 C 245.988 168.420, 247 167.720, 247 167.465 C 247 166.700, 246.481 166.921, 244.441 168.555 M 118.436 224.750 C 118.104 226.262, 117.619 228.175, 117.357 229 C 117.053 229.960, 117.215 230.140, 117.809 229.500 C 118.806 228.424, 120.250 222, 119.494 222 C 119.243 222, 118.767 223.238, 118.436 224.750" stroke="none" fill="#fbab04" fill-rule="evenodd"/>
</svg>