<svg xmlns="http://www.w3.org/2000/svg" width="342" height="311" viewBox="0 0 342 311" version="1.1"><path d="M 94.744 53 C 94.433 53.825, 93.659 56.750, 93.024 59.500 C 92.390 62.250, 91.046 65.911, 90.037 67.635 L 88.204 70.769 91.345 71.670 C 93.073 72.166, 94.639 73.362, 94.825 74.330 C 95.127 75.897, 90.423 91.974, 81.902 118.500 C 80.312 123.450, 77.509 132.718, 75.674 139.097 L 72.337 150.693 75.021 153.697 C 77.541 156.518, 77.776 156.589, 78.861 154.851 C 79.497 153.833, 80.384 153, 80.833 153 C 81.282 153, 86.791 156.072, 93.075 159.827 C 104.727 166.789, 120.757 173.743, 131.460 176.477 C 134.738 177.315, 137.745 178, 138.142 178 C 138.540 178, 137.385 175.801, 135.576 173.113 C 132.106 167.956, 129.996 158.604, 131.879 156.721 C 133.644 154.956, 135.732 156.755, 136.459 160.670 C 138.183 169.947, 143.977 175.637, 154.711 178.595 C 160.531 180.199, 161.351 180.202, 167.711 178.644 C 175.540 176.726, 178.368 174.912, 182.390 169.226 C 185.749 164.477, 186.786 157.633, 185.096 151.357 C 183.727 146.271, 182.970 146.032, 168.208 146.014 C 153.999 145.996, 143.530 148.052, 134.208 152.689 C 129.387 155.088, 126.580 155.980, 125.925 155.325 C 125.269 154.669, 125.830 151.549, 127.583 146.116 C 129.040 141.597, 130.068 137.763, 129.866 137.596 C 129.665 137.429, 126.222 135.587, 122.215 133.503 C 95.877 119.808, 95.256 88.942, 121.046 75.370 C 126.134 72.692, 127.271 72.500, 138 72.500 C 150.309 72.500, 153.471 73.457, 161.800 79.703 C 165.061 82.149, 165.147 82.158, 169.300 80.478 C 179.287 76.439, 197.013 77.827, 205.734 83.332 C 210.584 86.393, 216.801 93.279, 218.597 97.578 C 220.632 102.449, 220.344 109.659, 217.912 114.682 C 215.278 120.122, 207.990 126.446, 201.500 128.921 C 195.707 131.131, 195.550 132.004, 199.483 140.156 C 202.095 145.571, 202.618 148.500, 201.136 149.416 C 200.661 149.709, 200.052 153.027, 199.783 156.787 C 199.228 164.546, 195.802 172.483, 190.735 177.750 C 187.061 181.569, 187.241 181.604, 199.619 179.467 C 216.691 176.521, 232.206 171.590, 248 164.089 C 251.575 162.391, 255.482 161.001, 256.683 161.001 C 257.957 161, 259.119 160.200, 259.475 159.078 C 260.157 156.931, 267.442 150, 269.017 150 C 270.190 150, 265.495 140.376, 260.551 132.647 L 257.145 127.323 251.585 127.785 C 245.299 128.306, 241 126.353, 241 122.977 C 241 121.890, 240.395 121, 239.655 121 C 237.941 121, 235 117.785, 235 115.912 C 235 115.125, 234.100 113.919, 233 113.232 C 231.900 112.545, 231 111.283, 231 110.427 C 231 109.571, 229.650 107.735, 228 106.347 C 224.966 103.794, 224.099 100.675, 226.082 99.449 C 226.766 99.027, 226.166 97.739, 224.452 95.950 C 220.717 92.052, 221.701 89.527, 226.642 90.329 C 228.625 90.651, 231 91.595, 231.920 92.427 C 233.456 93.818, 233.559 93.660, 233.187 90.480 C 232.570 85.190, 235.409 84.688, 239.667 89.334 C 241.515 91.350, 243.626 93, 244.358 93 C 245.863 93, 248.400 95.663, 249.287 98.172 C 249.612 99.092, 250.918 99.992, 252.189 100.172 C 253.650 100.379, 255.137 101.777, 256.232 103.971 C 257.185 105.881, 258.873 107.779, 259.983 108.190 C 261.094 108.600, 262.766 110.539, 263.700 112.498 C 265.141 115.519, 265.220 116.727, 264.223 120.455 C 263.064 124.788, 263.113 124.950, 267.671 131.945 C 270.213 135.847, 272.464 138.869, 272.672 138.661 C 272.981 138.353, 267.895 114.396, 265.467 104.726 C 264.955 102.685, 264.055 102.142, 260.338 101.633 C 254.184 100.789, 250 97.687, 250 93.967 C 250 92.048, 249.291 90.691, 247.900 89.947 C 246.407 89.147, 245.932 88.134, 246.257 86.437 C 246.545 84.928, 246.030 83.432, 244.857 82.370 C 242.808 80.516, 242.343 77, 244.146 77 C 244.776 77, 244.101 75.896, 242.646 74.548 C 239.649 71.770, 238.997 67, 241.615 67 C 243.102 67, 243.102 66.804, 241.615 64.535 C 240.727 63.180, 240 60.873, 240 59.410 C 240 56.948, 240.241 56.796, 243.250 57.374 C 245.037 57.717, 247.553 59.196, 248.841 60.660 C 251.104 63.234, 251.170 63.248, 250.841 61.065 C 250.612 59.552, 248.630 57.710, 244.826 55.475 L 239.152 52.142 238.495 56.029 C 238.134 58.167, 238.125 60.818, 238.475 61.920 C 238.825 63.022, 238.642 64.800, 238.069 65.871 C 237.028 67.815, 238.117 72.378, 241.628 80.784 C 242.383 82.590, 243 84.503, 243 85.034 C 243 86.311, 238.293 86.282, 237.500 85 C 236.508 83.395, 233.450 83.845, 231.621 85.866 C 230.423 87.190, 228.016 87.885, 223.333 88.261 C 216.773 88.788, 216.700 88.765, 211.117 84.479 C 200.920 76.650, 186.617 74.123, 172.143 77.592 L 165.500 79.184 159.635 75.638 C 152.140 71.106, 145.385 69.624, 134.764 70.181 C 128.043 70.534, 125.061 71.225, 120.392 73.508 C 112.570 77.334, 105.749 83.874, 102.892 90.286 C 99.826 97.170, 99.611 109.190, 102.424 116.500 C 105.115 123.492, 113.556 132.079, 121.038 135.437 C 127.947 138.537, 128.254 139.573, 124.911 148.509 C 122.556 154.802, 122.850 156.612, 126.446 157.980 C 128.009 158.574, 129.159 159.972, 129.518 161.715 C 129.833 163.247, 130.555 166.243, 131.122 168.373 C 132.989 175.383, 131.016 175.360, 114 168.172 C 105.849 164.729, 91.685 157.048, 85.928 152.949 C 84.423 151.877, 81.600 151, 79.655 151 C 75.341 151, 74.564 149.928, 75.839 145.730 C 80.082 131.753, 88.004 106.024, 91.726 94.129 C 97.571 75.451, 97.958 72.596, 94.974 70.180 L 92.689 68.330 94.449 61.827 C 95.417 58.250, 96.007 54.464, 95.759 53.412 C 95.403 51.899, 95.192 51.813, 94.744 53 M 76.500 64.531 C 74.176 66.436, 73.901 66.991, 75.281 66.995 C 78.982 67.005, 78.539 69.703, 70.681 95 C 58.753 133.402, 56.836 139.998, 57.259 141.185 C 57.517 141.908, 58.252 140.475, 58.892 138 C 60.085 133.390, 66.985 110.573, 72.047 94.500 C 77.548 77.033, 81.172 61.879, 79.811 62.036 C 79.640 62.056, 78.150 63.179, 76.500 64.531 M 68.411 71.102 C 67.360 72.264, 66.633 74.023, 66.796 75.009 C 66.959 75.995, 65.323 82.359, 63.160 89.151 C 57.614 106.566, 49.420 133.403, 47.480 140.500 C 46.579 143.800, 44.861 147.400, 43.662 148.500 C 40.145 151.729, 37.314 156.205, 35.990 160.633 C 34.453 165.772, 36.111 176.826, 39.160 181.759 C 42.289 186.822, 48.804 190.098, 57.250 190.854 L 64.470 191.500 65.052 195 C 65.990 200.646, 68.795 205.487, 75.139 212.410 C 81.398 219.241, 92.932 227, 99.951 229.104 C 105.860 230.874, 106.260 231.739, 104.575 239.121 C 102.306 249.065, 100.770 265.170, 101.976 266.376 C 102.675 267.075, 103 266.847, 103 265.661 C 103 257.876, 106.345 237.475, 108.575 231.666 C 108.953 230.681, 107.540 229.762, 103.806 228.562 C 91.028 224.456, 73.936 210.697, 69.035 200.571 C 64.601 191.413, 67.120 190.667, 74.926 198.829 C 81.801 206.018, 92.224 211.405, 103.338 213.513 C 115.126 215.749, 115.018 215.781, 118.991 208.846 C 122.645 202.469, 124.404 201.004, 126.223 202.823 C 127.009 203.609, 126.539 205.636, 124.539 210.092 C 122.664 214.272, 121.663 218.363, 121.449 222.734 C 121.228 227.236, 120.581 229.805, 119.316 231.202 C 117.719 232.966, 117.500 235.156, 117.500 249.354 C 117.500 258.234, 117.852 267.155, 118.282 269.177 C 119.048 272.783, 119.201 272.885, 126.216 274.481 C 148.284 279.500, 175.966 280.324, 195.620 276.546 L 204.740 274.794 206.009 265.939 C 208.443 248.959, 206.038 226.054, 200.410 212.616 C 199.001 209.252, 197.607 205.718, 197.311 204.762 C 196.581 202.404, 199.909 201.155, 201.420 203.221 C 202.041 204.071, 203.439 204.938, 204.525 205.148 C 205.945 205.422, 206.519 206.367, 206.568 208.514 C 206.605 210.156, 207.778 213.750, 209.175 216.500 C 215.670 229.285, 221 250.529, 221 263.631 C 221 267.765, 221.404 270, 222.150 270 C 223.853 270, 222.427 251.568, 219.889 240.757 C 218.749 235.899, 218.058 231.291, 218.355 230.517 C 218.652 229.743, 220.606 228.825, 222.697 228.476 C 231.631 226.985, 242.882 223.653, 249.849 220.434 C 255.877 217.649, 259.049 215.241, 266.166 208.050 C 271.025 203.140, 275 198.645, 275 198.061 C 275 195.730, 277.725 197.195, 279.070 200.250 C 280.302 203.049, 281.063 203.541, 284.558 203.798 C 286.790 203.962, 289.879 203.616, 291.423 203.029 C 294.199 201.974, 294.222 201.895, 293.553 195.654 C 293.001 190.494, 293.173 189.102, 294.497 188.003 C 300.791 182.779, 303.899 167.022, 300.241 158.882 C 297.929 153.738, 294.841 150.667, 289.907 148.606 C 287.945 147.786, 285.832 146.502, 285.210 145.753 C 284.587 145.003, 282.292 136.764, 280.108 127.445 C 277.925 118.125, 275.427 108.516, 274.557 106.090 C 273.048 101.881, 273.075 101.476, 275.159 97.171 C 277.133 93.095, 277.232 92.138, 276.195 87.196 C 275.565 84.190, 275.242 81.417, 275.478 81.035 C 275.714 80.653, 273.453 77.917, 270.454 74.954 C 265.777 70.335, 265 69.884, 265 71.784 C 265 73.063, 265.619 74, 266.465 74 C 268.283 74, 270 77.068, 270 80.318 C 270 81.898, 270.686 82.946, 271.934 83.272 C 275.780 84.278, 275.466 98.116, 271.563 99.614 C 270.507 100.019, 270.631 101.155, 272.177 105.224 C 273.732 109.316, 277.637 124.620, 282.498 145.672 C 282.818 147.062, 284.270 148.264, 286.525 149.008 C 288.464 149.648, 291.409 151.315, 293.069 152.712 C 296.589 155.673, 300.379 162.570, 299.601 164.597 C 298.835 166.593, 296.249 166.333, 295.076 164.142 C 293.971 162.077, 290.580 159.630, 287.458 158.643 C 285.711 158.090, 285.247 158.628, 284.249 162.357 C 282.058 170.551, 285.724 177.779, 291.414 176.480 C 299.968 174.527, 301.099 176.767, 294.935 183.454 C 290.759 187.986, 290.745 188.026, 291.404 193.852 C 291.915 198.374, 291.734 199.976, 290.603 200.915 C 288.567 202.605, 281.570 201.915, 281.325 200 C 280.320 192.137, 279.911 191.195, 277.224 190.554 C 275.726 190.197, 273.674 189.659, 272.664 189.358 C 271.089 188.888, 270.982 189.099, 271.914 190.840 C 274.443 195.565, 273.326 197.991, 264.711 206.491 C 260.152 210.988, 254.414 215.831, 251.961 217.251 C 242.821 222.544, 219.146 228.546, 216.773 226.173 C 214.967 224.367, 216.645 222.422, 221.146 221.107 C 233.595 217.469, 248.520 206.846, 256.419 196 L 259.696 191.500 258.671 182 C 258.107 176.775, 257.612 170.588, 257.573 168.250 C 257.533 165.912, 257.407 164, 257.294 164 C 257.181 164, 255.381 165.169, 253.294 166.598 C 245.244 172.110, 216.122 185, 211.719 185 C 211.018 185, 209.332 185.787, 207.973 186.750 C 206.613 187.713, 204.150 188.544, 202.500 188.597 C 200.850 188.651, 195.225 189.523, 190 190.536 C 171.287 194.165, 128.240 192.317, 119 187.490 C 117.625 186.771, 113.612 185.435, 110.082 184.521 C 106.552 183.606, 99.399 180.865, 94.186 178.429 C 88.973 175.993, 84.190 174, 83.558 174 C 82.925 174, 79.583 177.155, 76.131 181.010 C 71.327 186.376, 69.226 188.022, 67.177 188.025 C 65.705 188.027, 62.328 188.296, 59.674 188.621 C 56.348 189.029, 53.492 188.696, 50.487 187.548 C 45.610 185.686, 39 179.048, 39 176.012 C 39 174.196, 39.482 174.081, 44.759 174.633 L 50.518 175.235 52.259 171.583 C 54.457 166.974, 54.464 163.595, 52.284 159.904 C 50.223 156.415, 50.166 156.410, 45.979 159.250 C 43.667 160.818, 42.627 162.329, 42.548 164.232 C 42.411 167.553, 40.684 169.476, 38.567 168.664 C 34.888 167.252, 38.310 156.441, 43.934 151.709 C 45.705 150.219, 47.479 149, 47.877 149 C 48.275 149, 48.600 147.535, 48.600 145.745 C 48.600 142.643, 54.718 121.463, 63.113 95.500 C 67.493 81.954, 70.996 69.663, 70.592 69.258 C 70.443 69.109, 69.461 69.939, 68.411 71.102 M 135.046 82.045 C 129.556 83.179, 122.160 88.101, 119.231 92.568 C 115.807 97.792, 115.475 102.707, 118.193 107.941 C 120.697 112.762, 123.393 115.081, 129.329 117.520 L 133.159 119.093 132.829 112.797 C 132.508 106.659, 132.563 106.500, 135 106.500 C 137.292 106.500, 137.689 107.206, 139.774 115 C 141.024 119.675, 142.328 127.213, 142.672 131.750 C 143.016 136.287, 143.450 140, 143.638 140 C 144.018 140, 156.370 135.299, 159.500 133.963 C 160.600 133.493, 166.338 132.550, 172.250 131.866 L 183 130.623 183.061 123.062 C 183.095 118.734, 184.058 111.864, 185.311 107 C 187.305 99.259, 187.732 98.473, 190.100 98.198 L 192.701 97.896 193.252 109.861 C 193.952 125.060, 194.234 125.623, 199.778 122.880 C 208.375 118.626, 213.051 108.866, 209.646 102.282 C 204.515 92.361, 188.154 87.918, 176.844 93.375 C 173.369 95.051, 173.196 95.368, 173.344 99.784 C 173.468 103.471, 173.141 104.503, 171.761 104.786 C 169.963 105.154, 168.672 102.987, 167.535 97.691 C 166.657 93.598, 159.688 86.542, 154.186 84.175 C 148.314 81.649, 140.936 80.828, 135.046 82.045 M 222.733 107.693 C 222.482 108.137, 221.955 109.850, 221.563 111.500 C 219.798 118.923, 211.285 127.660, 202.601 130.962 C 199.220 132.247, 199.252 134.824, 202.737 141.705 C 205.412 146.988, 205.434 147.178, 203.737 150.136 C 202.782 151.800, 202 154.619, 202 156.400 C 202 160.337, 199.382 169.496, 197.187 173.240 C 194.537 177.760, 196.395 178.285, 207.187 176.064 C 226.590 172.072, 253.814 160.344, 261.486 152.672 C 263.969 150.189, 266 147.692, 266 147.123 C 266 146.011, 261.016 137.258, 257.816 132.750 C 256.133 130.379, 255.177 130, 250.882 130 C 248.142 130, 244.686 129.355, 243.200 128.567 C 240.305 127.030, 232 117.796, 232 116.114 C 232 115.556, 231.309 114.713, 230.464 114.240 C 229.620 113.767, 228.577 112.058, 228.147 110.440 C 227.395 107.613, 223.807 105.792, 222.733 107.693 M 63.612 162 C 64.033 163.925, 64.405 167.637, 64.439 170.250 C 64.472 172.863, 64.601 175, 64.724 175 C 64.848 175, 65.635 173.672, 66.474 172.050 C 68.679 167.786, 68.358 164.501, 65.423 161.306 L 62.846 158.500 63.612 162 M 272.230 162.255 C 269.553 165.105, 269.202 171.629, 271.568 174.559 C 273.072 176.420, 273.113 176.389, 272.562 173.802 C 272.246 172.319, 272.694 169.027, 273.556 166.487 C 275.535 160.657, 275.084 159.217, 272.230 162.255 M 140.699 199.780 C 136.702 204.197, 140.059 210.407, 146.125 209.820 C 150.823 209.366, 153.173 205.208, 150.969 201.250 C 149.007 197.727, 143.297 196.910, 140.699 199.780 M 136.455 222.455 C 135.105 223.805, 134 225.544, 134 226.320 C 134 228.881, 138.052 233, 140.573 233 C 143.718 233, 147 229.681, 147 226.500 C 147 223.477, 143.766 220, 140.955 220 C 139.830 220, 137.805 221.105, 136.455 222.455 M 118.436 224.750 C 118.104 226.262, 117.619 228.175, 117.357 229 C 117.053 229.960, 117.215 230.140, 117.809 229.500 C 118.806 228.424, 120.250 222, 119.494 222 C 119.243 222, 118.767 223.238, 118.436 224.750 M 134 245 C 132.900 246.100, 132 248.125, 132 249.500 C 132 250.875, 132.900 252.900, 134 254 C 139.784 259.784, 148.178 251.982, 143.443 245.223 C 141.462 242.394, 136.718 242.282, 134 245 M 135 266 C 131.077 269.923, 133.752 276, 139.402 276 C 143.262 276, 146 273.438, 146 269.826 C 146 264.518, 138.938 262.062, 135 266" stroke="none" fill="#ffffff" fill-rule="evenodd"/><path d="M 144.286 38.033 C 131.946 39.583, 112.241 45.311, 102.250 50.253 C 98.840 51.939, 98 52.881, 98 55.018 C 98 56.483, 97.333 59.891, 96.518 62.591 C 95.094 67.307, 95.119 67.563, 97.158 69.110 C 100.150 71.380, 99.412 77.033, 93.777 95 C 91.275 102.975, 86.890 117.150, 84.031 126.500 C 81.173 135.850, 78.445 144.738, 77.969 146.250 C 77.137 148.895, 77.239 149, 80.648 149 C 82.597 149, 85.423 149.877, 86.928 150.949 C 95.730 157.217, 112.986 165.943, 124.627 170.015 L 129.754 171.808 128.919 168.654 C 128.460 166.919, 127.831 164.262, 127.523 162.750 C 127.214 161.238, 126.365 160, 125.636 160 C 123.750 160, 121 156.691, 121.001 154.421 C 121.001 153.365, 121.901 150.133, 123.001 147.239 C 124.100 144.346, 124.992 141.421, 124.983 140.739 C 124.974 140.058, 122.542 138.451, 119.579 137.169 C 112.735 134.207, 104.534 126.131, 101.127 119 C 98.857 114.248, 98.502 112.207, 98.511 104 C 98.525 92.145, 100.835 86.333, 108.352 79.238 C 116.448 71.596, 123.473 68.659, 134.843 68.162 C 146.421 67.656, 153.012 69.033, 160.455 73.515 L 166.140 76.938 171.780 75.469 C 185.459 71.906, 201.868 74.707, 212 82.335 C 217.125 86.193, 217.875 86.453, 223 86.146 C 226.671 85.926, 229.187 85.182, 230.564 83.908 C 232.923 81.728, 236.965 81.411, 238.947 83.250 C 240.055 84.278, 240.159 84.145, 239.532 82.500 C 239.113 81.400, 238.424 79.150, 238.003 77.500 C 237.581 75.850, 236.708 73.168, 236.062 71.539 C 235.417 69.911, 235.181 67.436, 235.537 66.039 C 235.893 64.643, 236.257 61.090, 236.346 58.145 C 236.503 52.941, 236.406 52.737, 232.899 50.949 C 226.757 47.815, 206.421 41.160, 197.751 39.447 C 188.027 37.525, 155.233 36.658, 144.286 38.033 M 56.463 83.218 C 41.644 98.942, 32.302 116.952, 27.350 139.346 C 25.251 148.840, 25.282 169.111, 27.411 178.858 C 31.152 195.986, 38.021 211.214, 47.945 224.376 C 55.053 233.804, 67.302 247, 68.946 247 C 69.642 247, 71.097 248.125, 72.179 249.500 C 73.260 250.875, 74.787 252, 75.573 252 C 76.358 252, 77 252.450, 77 253 C 77 253.550, 77.675 254, 78.500 254 C 79.325 254, 80 254.450, 80 255 C 80 255.550, 80.675 256, 81.500 256 C 82.325 256, 83 256.450, 83 257 C 83 257.550, 83.469 258, 84.042 258 C 85.023 258, 86.550 259.052, 89.268 261.599 C 89.913 262.203, 91.242 262.488, 92.220 262.232 C 93.488 261.901, 94 262.342, 94 263.767 C 94 264.988, 94.859 265.991, 96.206 266.344 C 97.420 266.661, 98.500 266.826, 98.607 266.710 C 98.714 266.595, 99.329 261.469, 99.974 255.321 C 100.620 249.172, 101.732 241.626, 102.447 238.551 C 103.162 235.477, 103.466 232.804, 103.123 232.612 C 102.780 232.420, 100.722 231.689, 98.548 230.987 C 83.441 226.111, 63 205.789, 63 195.645 C 63 193.420, 62.560 193.237, 56.075 192.773 C 43.245 191.855, 36.123 185.386, 33.939 172.666 C 32.133 162.147, 34.117 154.922, 40.539 148.634 C 42.655 146.562, 44.313 143.467, 45.430 139.500 C 47.615 131.742, 56.129 103.949, 61.165 88.135 C 63.331 81.334, 64.915 75.582, 64.686 75.352 C 64.456 75.123, 60.756 78.662, 56.463 83.218 M 278.716 89.784 C 279.009 93.107, 278.576 95.563, 277.250 98.100 C 275.556 101.340, 275.506 102.091, 276.749 105.600 C 277.508 107.745, 279.912 117.099, 282.090 126.387 C 284.269 135.675, 286.284 143.650, 286.567 144.109 C 286.851 144.568, 288.977 145.781, 291.291 146.805 C 296.347 149.041, 301.337 154.462, 303.012 159.538 C 304.868 165.161, 303.473 178.432, 300.484 183.580 C 299.181 185.824, 297.435 188.224, 296.603 188.914 C 295.425 189.893, 295.219 191.534, 295.669 196.360 C 296.385 204.023, 295.284 205.207, 286.880 205.815 C 280.749 206.259, 277 204.571, 277 201.367 C 277 200.640, 273.063 204.122, 268.250 209.105 C 261.058 216.553, 258.076 218.853, 251.500 222.028 C 244.180 225.562, 233.264 228.881, 223.750 230.466 C 221.688 230.810, 220 231.267, 220 231.482 C 220 231.697, 220.896 235.614, 221.992 240.187 C 223.087 244.759, 224.280 253.346, 224.643 259.269 C 225.413 271.832, 224.198 271.373, 238.500 264.495 C 249.799 259.062, 265 249.249, 265 247.388 C 265 246.004, 270.139 240, 271.324 240 C 272.560 240, 280 232.538, 280 231.300 C 280 230.594, 280.900 229.455, 282 228.768 C 283.100 228.081, 284 226.956, 284 226.268 C 284 225.580, 284.900 224.455, 286 223.768 C 287.100 223.081, 288 221.990, 288 221.343 C 288 220.696, 288.362 220.017, 288.804 219.833 C 290.404 219.170, 299.851 199.307, 302.340 191.374 C 306.658 177.608, 308.312 166.634, 307.670 156 C 306.659 139.264, 301.556 120.600, 294.387 107.427 C 290.693 100.637, 281.028 86.753, 279.217 85.634 C 278.690 85.308, 278.477 87.071, 278.716 89.784 M 205.500 97 C 206.495 98.100, 207.535 99, 207.810 99 C 208.085 99, 207.495 98.100, 206.500 97 C 205.505 95.900, 204.465 95, 204.190 95 C 203.915 95, 204.505 95.900, 205.500 97 M 190.252 105.500 C 190.263 107.700, 190.468 108.482, 190.707 107.238 C 190.946 105.994, 190.937 104.194, 190.687 103.238 C 190.437 102.282, 190.241 103.300, 190.252 105.500 M 223.614 112.179 C 222.478 117.859, 217.193 124.718, 210.665 128.982 C 207.284 131.192, 203.950 133, 203.258 133 C 201.378 133, 201.721 134.992, 204.500 140.212 C 207.351 145.568, 207.642 148.769, 205.532 151.559 C 204.724 152.626, 204.049 155.106, 204.032 157.068 C 203.995 161.224, 201.428 170.562, 199.486 173.606 L 198.143 175.712 206.931 173.909 C 225.099 170.183, 252.674 158.326, 259.840 151.160 L 264.017 146.983 259.618 139.741 C 255.321 132.668, 255.117 132.494, 250.859 132.236 C 248.462 132.091, 245.391 131.721, 244.035 131.413 C 241.670 130.877, 230 119.596, 230 117.847 C 230 117.381, 229.100 116.100, 228 115 C 226.900 113.900, 226 112.100, 226 111 C 226 107.840, 224.316 108.672, 223.614 112.179 M 252.731 114.080 C 253.085 115.432, 253.538 115.886, 253.788 115.137 C 254.028 114.415, 253.750 113.350, 253.168 112.768 C 252.426 112.026, 252.296 112.417, 252.731 114.080 M 52.638 155.500 C 52.955 156.325, 53.391 157, 53.607 157 C 53.823 157, 54 156.325, 54 155.500 C 54 154.675, 53.564 154, 53.031 154 C 52.499 154, 52.322 154.675, 52.638 155.500 M 269.195 168.500 C 269.215 170.150, 269.439 170.704, 269.693 169.731 C 269.947 168.758, 269.930 167.408, 269.656 166.731 C 269.382 166.054, 269.175 166.850, 269.195 168.500 M 59.432 179.110 C 58.470 180.667, 59.644 181.299, 61.534 180.241 C 63.039 179.399, 63.050 179.233, 61.641 178.693 C 60.774 178.360, 59.780 178.548, 59.432 179.110 M 141 180 C 139.718 180.828, 139.754 180.972, 141.250 180.985 C 142.213 180.993, 143 180.550, 143 180 C 143 178.780, 142.887 178.780, 141 180 M 202.750 286.662 C 203.438 286.940, 204.563 286.940, 205.250 286.662 C 205.938 286.385, 205.375 286.158, 204 286.158 C 202.625 286.158, 202.063 286.385, 202.750 286.662" stroke="none" fill="#ffac00" fill-rule="evenodd"/><path d="M 150.868 21.064 C 146.671 21.586, 140.371 22.646, 136.868 23.421 L 130.500 24.829 138 24.164 C 150.072 23.095, 185.929 23.503, 193 24.790 C 219.713 29.654, 248.187 42.194, 266.812 57.298 C 290.263 76.317, 304.388 97.847, 312.213 126.500 C 314.748 135.784, 315.733 159.133, 314.036 169.747 C 311.378 186.380, 300.487 212.236, 292.629 220.571 C 290.908 222.396, 287.475 226.368, 285 229.396 C 282.525 232.425, 279.937 234.925, 279.250 234.951 C 278.562 234.978, 278.112 235.353, 278.250 235.785 C 278.547 236.716, 271.939 243.687, 268.635 245.928 C 251.549 257.518, 246.088 260.855, 238 264.650 C 232.775 267.102, 227.226 269.759, 225.669 270.554 C 219.747 273.578, 219.370 273.076, 218.665 261.250 C 217.732 245.595, 213.775 231.235, 205.601 213.849 C 201.845 205.860, 199.619 204.480, 202.669 212.032 C 208.401 226.223, 210.767 253.487, 207.699 270 L 206.492 276.500 197.996 278.288 C 186.963 280.610, 157.490 281.658, 145.978 280.138 C 141.315 279.522, 132.907 278.060, 127.293 276.888 L 117.086 274.757 116.293 270.129 C 115.857 267.583, 115.528 258.075, 115.563 249 C 115.618 234.538, 115.952 231.239, 118.266 222.291 C 119.718 216.677, 121.614 210.714, 122.479 209.041 C 125.193 203.793, 123.167 205.734, 119.913 211.500 C 116.318 217.869, 115.611 218.031, 102.338 215.513 C 92.178 213.586, 80.926 208.021, 74.798 201.893 C 69.265 196.361, 68.628 196.806, 73.148 203.046 C 80.971 213.845, 93.512 223.068, 105.250 226.655 C 108.420 227.623, 111 228.998, 111 229.718 C 111 230.437, 110.134 234.149, 109.076 237.967 C 108.018 241.785, 106.619 250.217, 105.967 256.705 C 105.314 263.192, 104.493 268.790, 104.140 269.144 C 103.788 269.498, 100.350 268.297, 96.500 266.475 C 92.650 264.653, 87.925 262.464, 86 261.611 C 84.075 260.758, 79.125 257.585, 75 254.559 C 70.875 251.533, 65.202 247.488, 62.393 245.570 C 45.309 233.906, 25.426 204.170, 20 182.171 C 9.804 140.833, 20.062 101.507, 49.519 69 L 57.221 60.500 47.670 70.207 C 42.417 75.546, 35.822 83.318, 33.014 87.479 C 28.166 94.664, 20.570 109.010, 18.178 115.500 C 15.859 121.793, 12.951 135.236, 11.815 144.922 C 8.688 171.572, 19.026 206.616, 36.791 229.583 C 61.840 261.970, 99.574 282.782, 144.500 288.993 C 155.601 290.527, 182.262 290.209, 192.500 288.419 C 209.081 285.521, 211.135 285.103, 216.831 283.458 C 247.047 274.736, 277.779 254.388, 294.601 231.966 C 313.995 206.115, 322.364 182.804, 322.410 154.500 C 322.443 134.590, 319.716 122.195, 311.310 104.053 C 296.057 71.132, 267.602 45.996, 227.500 30.018 C 223.463 28.410, 202.311 23.027, 196 22.002 C 186.763 20.501, 159.893 19.943, 150.868 21.064 M 88.271 50.217 C 85.763 53.344, 83.095 60.056, 81.987 66.025 C 80.641 73.278, 78.247 82.164, 74.047 95.500 C 71.084 104.906, 63.068 131.251, 60.811 139 C 59.822 142.396, 59.009 143.500, 57.500 143.500 C 53.318 143.500, 53.340 143.403, 68.978 93 C 71.111 86.125, 73.363 78.559, 73.983 76.187 C 74.603 73.816, 75.359 71.228, 75.662 70.437 C 75.988 69.588, 75.611 69, 74.739 69 C 73.777 69, 72.675 71.173, 71.570 75.250 C 70.638 78.688, 67.935 87.575, 65.562 95 C 60.115 112.045, 53.091 135.054, 51.444 141.251 C 50.326 145.455, 50.371 146.120, 51.840 147.033 C 53.364 147.980, 53.347 148.164, 51.629 149.282 C 50.601 149.952, 48.375 151.402, 46.683 152.503 C 44.992 153.605, 42.717 156.080, 41.627 158.003 L 39.645 161.500 42.073 159.375 C 44.998 156.814, 47.539 155.507, 51.380 154.587 C 53.867 153.991, 54.193 154.153, 53.769 155.777 C 53.498 156.812, 53.889 158.496, 54.638 159.520 C 56.626 162.239, 56.303 168.485, 53.934 173.129 L 51.869 177.177 46.531 176.839 C 41.835 176.541, 41.299 176.697, 42.074 178.142 C 44.900 183.410, 53.776 187.618, 59.821 186.556 C 61.845 186.200, 64.795 185.775, 66.378 185.612 C 68.466 185.396, 71.101 183.333, 75.987 178.085 L 82.719 170.856 86.109 172.324 C 87.974 173.132, 92.650 175.256, 96.500 177.045 C 119.034 187.514, 152.446 192.904, 177.500 190.111 C 189.726 188.748, 202.423 186.257, 206.651 184.391 C 208.384 183.626, 210.295 183, 210.897 183 C 214.263 183, 247 169.097, 247 167.668 C 247 167.421, 243.962 168.454, 240.250 169.964 C 221.947 177.409, 205.516 181.585, 190.125 182.705 L 181.749 183.315 186.699 178.685 C 193.354 172.459, 197.163 164.500, 197.791 155.504 C 198.060 151.652, 198.739 148.204, 199.300 147.842 C 199.940 147.429, 199.291 145.007, 197.558 141.348 C 196.039 138.139, 194.566 134.100, 194.286 132.374 C 193.796 129.355, 193.973 129.170, 198.909 127.530 C 209.525 124.004, 218 114.292, 218 105.652 C 218 98.541, 212.646 90.326, 204.771 85.355 C 195.922 79.769, 180.537 78.584, 169.721 82.655 C 165.874 84.102, 164.606 84.215, 163.221 83.232 C 158.169 79.649, 151.031 75.858, 147.500 74.885 C 140.668 73.001, 128.326 74.236, 122.089 77.428 C 111.121 83.041, 104 93.532, 104 104.077 C 104 115.165, 112.864 127.044, 125.223 132.521 C 133.026 135.978, 133.125 136.288, 129.746 146.651 L 127.493 153.563 133.996 150.307 C 142.628 145.986, 153.281 144, 167.833 144 C 184.702 144, 185.575 144.254, 186.908 149.549 C 188.405 155.492, 188.277 162.401, 186.597 166.422 C 181.693 178.159, 166.966 184.423, 153.402 180.541 C 143.588 177.733, 137.412 172.262, 134.996 164.236 C 134.244 161.741, 134.164 161.702, 134.086 163.800 C 133.981 166.608, 135.809 170.249, 139.903 175.388 C 144.961 181.736, 144.671 181.829, 130.500 178.411 C 120.189 175.924, 103.959 168.928, 92.197 161.901 L 80.894 155.147 79.972 157.574 C 79.088 159.900, 76 161.036, 76 159.035 C 76 158.504, 74.624 156.502, 72.942 154.587 L 69.884 151.104 71.992 143.802 C 74.592 134.800, 82.768 108.177, 88.623 89.654 C 91.031 82.039, 93 75.422, 93 74.950 C 93 74.477, 91.425 73.795, 89.500 73.434 C 87.575 73.073, 86 72.310, 86 71.738 C 86 71.167, 87.175 68.297, 88.612 65.362 C 92.516 57.380, 92.244 45.262, 88.271 50.217 M 247.500 60 C 248.495 61.100, 249.535 62, 249.810 62 C 250.085 62, 249.495 61.100, 248.500 60 C 247.505 58.900, 246.465 58, 246.190 58 C 245.915 58, 246.505 58.900, 247.500 60 M 242 60.189 C 242 61.461, 246.121 67.374, 247.362 67.883 C 251.131 69.427, 260.006 83.931, 263.036 93.500 C 263.733 95.700, 264.914 98.440, 265.661 99.588 C 267.052 101.729, 275.299 136.918, 276.303 145 L 276.862 149.500 274.681 146.534 C 270.641 141.040, 261.969 127.524, 260.544 124.500 C 258.882 120.974, 253.141 114.526, 252.359 115.308 C 251.381 116.285, 252.942 119.443, 256.020 122.720 C 259.436 126.356, 267.498 139.299, 270.473 145.923 C 272.432 150.285, 272.432 150.324, 270.486 151.408 C 263.372 155.371, 257.978 164.792, 259.455 170.677 C 259.788 172.002, 260.470 177.428, 260.973 182.737 L 261.886 192.388 258.512 196.944 C 250.003 208.436, 234.754 219.424, 222.244 223.077 C 215.730 224.980, 217.795 225.187, 226.592 223.514 C 236.127 221.701, 247.165 217.812, 252.177 214.499 C 257.328 211.094, 268.301 200.674, 269.919 197.652 C 271.075 195.491, 271.034 194.543, 269.634 191.044 C 268.735 188.798, 268 186.588, 268 186.133 C 268 185.679, 270.363 186.123, 273.250 187.121 C 276.137 188.119, 279.231 188.949, 280.125 188.967 C 281.762 189, 283 192.756, 283 197.688 C 283 199.837, 283.386 200.089, 286.250 199.813 L 289.500 199.500 289.170 193 C 288.856 186.812, 288.992 186.356, 292.006 183.500 C 293.747 181.850, 295.596 179.719, 296.114 178.764 C 296.947 177.228, 296.757 177.142, 294.462 178.014 C 285.230 181.525, 279.369 173.574, 282.203 161.384 C 283.497 155.820, 283.497 155.819, 286.841 156.362 C 288.681 156.660, 291.758 158.103, 293.679 159.569 L 297.172 162.233 295.606 159.205 C 293.589 155.305, 289.727 152.298, 284.865 150.841 C 282.739 150.204, 280.997 149.417, 280.993 149.092 C 280.967 146.774, 271.765 110.398, 270.093 106 C 268.942 102.975, 268 99.825, 268 99 C 267.999 98.175, 265.531 92.624, 262.516 86.664 C 257.737 77.220, 255.974 74.410, 250.985 68.292 C 250.443 67.628, 250 66.797, 250 66.447 C 250 66.096, 249.108 64.556, 248.018 63.026 C 246.023 60.223, 242 58.327, 242 60.189 M 253 63.050 C 253 65.277, 253.787 68.539, 254.750 70.300 L 256.500 73.500 256.814 69.112 C 257.133 64.667, 255.487 59, 253.879 59 C 253.395 59, 253 60.822, 253 63.050 M 259.131 70.065 C 257.828 73.011, 258.093 76.133, 259.879 78.878 C 262.510 82.919, 264.228 73.837, 261.695 69.280 C 260.464 67.064, 260.459 67.066, 259.131 70.065 M 242.015 69.750 C 242.060 71.919, 248.436 77, 251.113 77 C 252.682 77, 252.799 76.652, 251.893 74.665 C 250.273 71.110, 241.959 66.972, 242.015 69.750 M 265.160 76.901 C 263.126 78.158, 262.586 85.150, 264.342 87.498 C 266.275 90.084, 267.118 89.133, 267.734 83.669 C 268.300 78.648, 267.164 75.662, 265.160 76.901 M 108.453 81.250 L 104.500 85.500 108.750 81.547 C 112.702 77.871, 113.460 77, 112.703 77 C 112.540 77, 110.627 78.912, 108.453 81.250 M 245.606 78.828 C 244.856 80.042, 246.722 81.568, 251.295 83.479 C 255.799 85.361, 257 85.389, 257 83.615 C 257 80.841, 246.967 76.626, 245.606 78.828 M 137.500 79.643 C 125.117 82.646, 117.950 88.061, 115.518 96.251 C 112.564 106.198, 118.323 116.273, 128.707 119.322 C 133.276 120.664, 133.537 120.634, 134.284 118.685 C 134.716 117.560, 134.777 114.696, 134.421 112.320 C 133.581 106.718, 135.276 106.672, 136.988 112.250 C 139.590 120.728, 140.930 128.647, 140.965 135.750 C 140.986 140.050, 141.420 143, 142.033 143 C 142.602 143, 145.228 141.905, 147.870 140.566 C 154.131 137.393, 167.530 134.076, 177.127 133.322 L 184.755 132.722 185.233 122.111 C 185.705 111.613, 188.257 100, 190.090 100 C 190.611 100, 190.765 101.088, 190.431 102.417 C 189.574 105.832, 192.969 127.005, 194.369 126.978 C 200.210 126.865, 211.397 116.731, 212.567 110.493 C 215.499 94.866, 193.698 83.847, 175.647 91.832 L 171.022 93.878 171.668 98.595 C 172.141 102.045, 172.004 103.120, 171.157 102.597 C 170.521 102.204, 170 100.991, 170 99.901 C 170 93.739, 161.185 84.181, 153.109 81.586 C 147.754 79.866, 140.372 78.947, 137.500 79.643 M 110.437 83.250 L 107.500 86.500 110.750 83.563 C 112.537 81.948, 114 80.485, 114 80.313 C 114 79.540, 113.175 80.221, 110.437 83.250 M 244.835 82.324 C 246.036 83.602, 246.677 85.025, 246.259 85.485 C 245.842 85.944, 246.096 85.976, 246.825 85.555 C 247.855 84.960, 247.649 84.255, 245.901 82.395 C 244.664 81.078, 243.426 80, 243.151 80 C 242.876 80, 243.634 81.046, 244.835 82.324 M 210.958 88.250 C 213.410 90.862, 215.548 93, 215.708 93 C 216.459 93, 215.665 92.102, 211.250 87.958 L 206.500 83.500 210.958 88.250 M 230.405 86.250 L 228.500 88.500 230.750 86.595 C 231.988 85.547, 233 84.535, 233 84.345 C 233 83.545, 232.195 84.136, 230.405 86.250 M 214.500 87 C 215.495 88.100, 216.535 89, 216.810 89 C 217.085 89, 216.495 88.100, 215.500 87 C 214.505 85.900, 213.465 85, 213.190 85 C 212.915 85, 213.505 85.900, 214.500 87 M 270.385 85.782 C 268.622 86.917, 267.753 90.871, 268.450 94.587 C 269.294 99.083, 270.648 98.908, 272.083 94.118 C 273.368 89.827, 272.294 84.553, 270.385 85.782 M 236 86.313 C 236 86.485, 237.463 87.948, 239.250 89.563 L 242.500 92.500 239.563 89.250 C 236.825 86.221, 236 85.540, 236 86.313 M 248.031 86.750 C 248.109 88.593, 258.577 93.757, 259.786 92.548 C 260.919 91.414, 258.730 88.785, 255.546 87.455 C 251.802 85.890, 247.980 85.532, 248.031 86.750 M 235.507 91.995 C 236.189 96.077, 238.957 100, 241.153 100 C 243.315 100, 240.335 92.437, 237.016 89.500 L 234.756 87.500 235.507 91.995 M 231.405 92.767 C 233.665 95.416, 233.667 95.417, 233.667 93.500 C 233.667 92.675, 233.446 92.221, 233.175 92.491 C 232.905 92.762, 231.968 92.432, 231.092 91.759 C 230.117 91.009, 230.238 91.399, 231.405 92.767 M 225.498 93.953 C 228.574 97.421, 235.103 100.391, 234.945 98.250 C 234.843 96.877, 229.371 93.131, 226.415 92.411 L 223.500 91.701 225.498 93.953 M 224.311 95.802 C 226.499 98.086, 226.765 98.863, 225.748 100.004 C 224.683 101.198, 224.763 101.204, 226.289 100.047 C 227.977 98.767, 227.924 98.530, 225.352 95.845 C 223.853 94.280, 222.401 93, 222.126 93 C 221.851 93, 222.834 94.261, 224.311 95.802 M 246.500 95 C 247.495 96.100, 248.535 97, 248.810 97 C 249.085 97, 248.495 96.100, 247.500 95 C 246.505 93.900, 245.465 93, 245.190 93 C 244.915 93, 245.505 93.900, 246.500 95 M 252 94.792 C 252 97.221, 262.169 101.153, 263.381 99.192 C 264.387 97.564, 260.191 94.760, 256.030 94.279 C 253.753 94.016, 252 94.239, 252 94.792 M 243.709 95.625 C 242.395 96.939, 245.528 107, 247.251 107 C 248.725 107, 247.508 98.079, 245.802 96.373 C 245.020 95.592, 244.078 95.255, 243.709 95.625 M 253.611 99.820 C 253.287 100.344, 253.656 101.299, 254.431 101.943 C 255.542 102.865, 255.792 102.789, 255.615 101.585 C 255.312 99.520, 254.331 98.656, 253.611 99.820 M 227 101.845 C 227 104, 230.918 105.998, 235.079 105.964 L 239.500 105.928 236.500 103.469 C 233.612 101.101, 227 99.971, 227 101.845 M 238 101.762 C 238 102.614, 243.522 108.009, 248 111.533 L 250.500 113.500 248.529 111 C 243.077 104.085, 238 99.631, 238 101.762 M 251.354 106.567 C 252.340 113.761, 256 117.491, 256 111.301 C 256 108.025, 253.354 102, 251.915 102 C 251.081 102, 250.914 103.358, 251.354 106.567 M 227 105.500 C 228.292 106.875, 229.574 108, 229.849 108 C 230.124 108, 229.292 106.875, 228 105.500 C 226.708 104.125, 225.426 103, 225.151 103 C 224.876 103, 225.708 104.125, 227 105.500 M 237 109.969 C 232.815 110.475, 232.653 110.600, 234.684 111.757 C 237.258 113.222, 245 113.431, 245 112.035 C 245 110.297, 241.584 109.415, 237 109.969 M 258.173 110.872 C 256.560 111.894, 258.158 119.056, 260.417 120.931 C 262.673 122.804, 263.515 116.897, 261.538 113.073 C 259.747 109.610, 259.952 109.744, 258.173 110.872 M 247.020 114.524 C 247.716 115.362, 248.491 115.842, 248.743 115.591 C 249.436 114.897, 248.027 113, 246.819 113 C 246.155 113, 246.231 113.574, 247.020 114.524 M 238.154 117.583 C 239.506 118.934, 244.937 119.593, 250.500 119.080 C 253.522 118.801, 245.038 116, 241.171 116 C 236.976 116, 236.711 116.139, 238.154 117.583 M 236.500 119 C 237.495 120.100, 238.535 121, 238.810 121 C 239.085 121, 238.495 120.100, 237.500 119 C 236.505 117.900, 235.465 117, 235.190 117 C 234.915 117, 235.505 117.900, 236.500 119 M 212.437 121.250 L 209.500 124.500 212.750 121.563 C 215.779 118.825, 216.460 118, 215.687 118 C 215.515 118, 214.052 119.463, 212.437 121.250 M 232 118.313 C 232 118.485, 233.463 119.948, 235.250 121.563 L 238.500 124.500 235.563 121.250 C 232.825 118.221, 232 117.540, 232 118.313 M 246.009 122.480 C 242.639 123.631, 242.594 123.712, 244.694 124.836 C 249.058 127.172, 257.006 125.795, 253.739 123.269 C 251.428 121.481, 249.509 121.286, 246.009 122.480 M 111.500 126 C 113.648 128.200, 115.631 130, 115.906 130 C 116.181 130, 114.648 128.200, 112.500 126 C 110.352 123.800, 108.369 122, 108.094 122 C 107.819 122, 109.352 123.800, 111.500 126 M 109.500 128 C 112.209 130.750, 114.650 133, 114.925 133 C 115.200 133, 113.209 130.750, 110.500 128 C 107.791 125.250, 105.350 123, 105.075 123 C 104.800 123, 106.791 125.250, 109.500 128 M 239.500 127 C 240.495 128.100, 241.535 129, 241.810 129 C 242.085 129, 241.495 128.100, 240.500 127 C 239.505 125.900, 238.465 125, 238.190 125 C 237.915 125, 238.505 125.900, 239.500 127 M 43.405 148.250 L 41.500 150.500 43.750 148.595 C 45.864 146.805, 46.455 146, 45.655 146 C 45.465 146, 44.453 147.012, 43.405 148.250 M 42.437 153.250 L 39.500 156.500 42.750 153.563 C 45.779 150.825, 46.460 150, 45.687 150 C 45.515 150, 44.052 151.463, 42.437 153.250 M 296 152.500 C 297.292 153.875, 298.574 155, 298.849 155 C 299.124 155, 298.292 153.875, 297 152.500 C 295.708 151.125, 294.426 150, 294.151 150 C 293.876 150, 294.708 151.125, 296 152.500 M 74 153.500 C 75.292 154.875, 76.574 156, 76.849 156 C 77.124 156, 76.292 154.875, 75 153.500 C 73.708 152.125, 72.426 151, 72.151 151 C 71.876 151, 72.708 152.125, 74 153.500 M 262.946 154.750 L 259.500 158.500 263.250 155.054 C 265.313 153.158, 267 151.471, 267 151.304 C 267 150.540, 266.154 151.260, 262.946 154.750 M 291 151.313 C 291 151.485, 292.462 152.948, 294.250 154.563 L 297.500 157.500 294.563 154.250 C 291.825 151.221, 291 150.540, 291 151.313 M 257.405 156.250 L 255.500 158.500 257.750 156.595 C 259.864 154.805, 260.455 154, 259.655 154 C 259.465 154, 258.453 155.012, 257.405 156.250 M 61.416 158.480 C 61.047 159.947, 61.253 162.260, 61.873 163.621 C 63.693 167.615, 63.259 174.401, 61 177.273 C 58.750 180.133, 58.527 181, 60.040 181 C 62.113 181, 68.972 172.664, 69.585 169.400 C 70.319 165.487, 67.677 159.415, 64.293 157.234 C 62.236 155.910, 62.039 155.995, 61.416 158.480 M 270.589 161.077 C 265.957 166.581, 267.440 174.761, 274.065 180.249 C 277.945 183.464, 279.837 182.879, 277.044 179.329 C 274.126 175.619, 273.560 170.988, 275.468 166.423 C 277.237 162.188, 276.791 158, 274.570 158 C 273.804 158, 272.013 159.385, 270.589 161.077 M 42.590 160.901 C 41.220 162.415, 41.137 162.956, 42.185 163.561 C 42.908 163.979, 43.162 163.948, 42.748 163.491 C 42.334 163.035, 42.741 161.838, 43.653 160.831 C 44.564 159.824, 45.085 159, 44.810 159 C 44.535 159, 43.536 159.855, 42.590 160.901 M 178.924 173.750 L 176.500 176.500 179.250 174.076 C 180.762 172.742, 182 171.505, 182 171.326 C 182 170.541, 181.190 171.180, 178.924 173.750 M 79.405 176.250 L 77.500 178.500 79.750 176.595 C 81.864 174.805, 82.455 174, 81.655 174 C 81.465 174, 80.453 175.012, 79.405 176.250 M 137.500 176 C 138.495 177.100, 139.535 178, 139.810 178 C 140.085 178, 139.495 177.100, 138.500 176 C 137.505 174.900, 136.465 174, 136.190 174 C 135.915 174, 136.505 174.900, 137.500 176 M 189.946 177.750 L 186.500 181.500 190.250 178.054 C 193.740 174.846, 194.460 174, 193.696 174 C 193.529 174, 191.842 175.688, 189.946 177.750 M 43 182.500 C 44.866 184.425, 46.617 186, 46.892 186 C 47.167 186, 45.866 184.425, 44 182.500 C 42.134 180.575, 40.383 179, 40.108 179 C 39.833 179, 41.134 180.575, 43 182.500 M 73 183.500 C 70.571 185.975, 68.809 188, 69.084 188 C 69.359 188, 71.571 185.975, 74 183.500 C 76.429 181.025, 78.191 179, 77.916 179 C 77.641 179, 75.429 181.025, 73 183.500 M 293.946 183.750 L 290.500 187.500 294.250 184.054 C 296.313 182.158, 298 180.471, 298 180.304 C 298 179.540, 297.154 180.260, 293.946 183.750 M 294.405 188.250 L 292.500 190.500 294.750 188.595 C 296.864 186.805, 297.455 186, 296.655 186 C 296.465 186, 295.453 187.012, 294.405 188.250 M 140.405 200.250 L 138.500 202.500 140.750 200.595 C 141.988 199.547, 143 198.535, 143 198.345 C 143 197.545, 142.195 198.136, 140.405 200.250 M 75.500 201 C 76.495 202.100, 77.535 203, 77.810 203 C 78.085 203, 77.495 202.100, 76.500 201 C 75.505 199.900, 74.465 199, 74.190 199 C 73.915 199, 74.505 199.900, 75.500 201 M 248.469 205.250 L 242.500 211.500 248.750 205.531 C 254.556 199.987, 255.458 199, 254.719 199 C 254.564 199, 251.751 201.813, 248.469 205.250 M 142.200 201.200 C 139.510 203.890, 141.604 208, 145.665 208 C 148.628 208, 150.454 204.716, 149 202 C 147.813 199.782, 144.059 199.341, 142.200 201.200 M 264.469 206.250 L 258.500 212.500 264.750 206.531 C 270.556 200.987, 271.458 200, 270.719 200 C 270.564 200, 267.751 202.813, 264.469 206.250 M 269.924 204.750 L 267.500 207.500 270.250 205.076 C 271.762 203.742, 273 202.505, 273 202.326 C 273 201.541, 272.190 202.180, 269.924 204.750 M 73 206.500 C 74.292 207.875, 75.574 209, 75.849 209 C 76.124 209, 75.292 207.875, 74 206.500 C 72.708 205.125, 71.426 204, 71.151 204 C 70.876 204, 71.708 205.125, 73 206.500 M 140.500 208 C 141.495 209.100, 142.535 210, 142.810 210 C 143.085 210, 142.495 209.100, 141.500 208 C 140.505 206.900, 139.465 206, 139.190 206 C 138.915 206, 139.505 206.900, 140.500 208 M 76.500 215 C 79.209 217.750, 81.650 220, 81.925 220 C 82.200 220, 80.209 217.750, 77.500 215 C 74.791 212.250, 72.350 210, 72.075 210 C 71.800 210, 73.791 212.250, 76.500 215 M 79 213.500 C 80.866 215.425, 82.617 217, 82.892 217 C 83.167 217, 81.866 215.425, 80 213.500 C 78.134 211.575, 76.383 210, 76.108 210 C 75.833 210, 77.134 211.575, 79 213.500 M 260.924 213.750 L 258.500 216.500 261.250 214.076 C 262.762 212.742, 264 211.505, 264 211.326 C 264 210.541, 263.190 211.180, 260.924 213.750 M 255.405 214.250 L 253.500 216.500 255.750 214.595 C 257.864 212.805, 258.455 212, 257.655 212 C 257.465 212, 256.453 213.012, 255.405 214.250 M 137.927 224.073 C 136.061 225.939, 135.998 226.365, 137.296 228.323 C 139.145 231.113, 141.329 231.528, 143.379 229.479 C 145.421 227.436, 145.437 225.580, 143.429 223.571 C 141.358 221.501, 140.412 221.588, 137.927 224.073 M 284.980 224.524 C 284.284 225.362, 283.968 226.301, 284.276 226.610 C 284.585 226.919, 285.340 226.233, 285.954 225.086 C 287.264 222.638, 286.778 222.358, 284.980 224.524 M 280.980 229.524 C 280.284 230.362, 279.968 231.301, 280.276 231.610 C 280.585 231.919, 281.340 231.233, 281.954 230.086 C 283.264 227.638, 282.778 227.358, 280.980 229.524 M 136.500 231 C 137.495 232.100, 138.535 233, 138.810 233 C 139.085 233, 138.495 232.100, 137.500 231 C 136.505 229.900, 135.465 229, 135.190 229 C 134.915 229, 135.505 229.900, 136.500 231 M 266.149 244.604 C 265.406 245.444, 264.996 246.330, 265.239 246.572 C 265.481 246.814, 266.496 246.110, 267.494 245.006 C 268.493 243.903, 268.903 243.017, 268.405 243.038 C 267.907 243.059, 266.892 243.764, 266.149 244.604 M 135.571 246.571 C 134.707 247.436, 134 248.754, 134 249.500 C 134 250.246, 134.707 251.564, 135.571 252.429 C 136.436 253.293, 137.754 254, 138.500 254 C 140.078 254, 143 251.314, 143 249.863 C 143 245.629, 138.505 243.637, 135.571 246.571 M 143.500 266 C 144.495 267.100, 145.535 268, 145.810 268 C 146.085 268, 145.495 267.100, 144.500 266 C 143.505 264.900, 142.465 264, 142.190 264 C 141.915 264, 142.505 264.900, 143.500 266 M 136.625 267.518 C 134.660 269.483, 134.620 270.098, 136.306 272.404 C 139.048 276.154, 145.848 272.167, 143.393 268.250 C 141.912 265.888, 138.611 265.531, 136.625 267.518 M 143.405 274.250 L 141.500 276.500 143.750 274.595 C 144.988 273.547, 146 272.535, 146 272.345 C 146 271.545, 145.195 272.136, 143.405 274.250 M 134.869 274.342 C 135.481 275.080, 135.649 276.052, 135.241 276.502 C 134.834 276.952, 135.084 276.983, 135.799 276.571 C 136.799 275.994, 136.828 275.498, 135.926 274.411 C 135.282 273.635, 134.530 273, 134.255 273 C 133.980 273, 134.256 273.604, 134.869 274.342" stroke="none" fill="#ff6000" fill-rule="evenodd"/><path d="M 152.500 18.630 C 139.228 20.077, 123.294 23.584, 118.764 26.053 C 117.809 26.574, 115.896 27, 114.514 27 C 112.499 27, 112 27.496, 112 29.500 C 112 31.500, 112.500 32, 114.500 32 C 115.875 32, 117 31.550, 117 31 C 117 30.450, 118.773 30, 120.941 30 C 123.109 30, 125.118 29.617, 125.407 29.150 C 127.394 25.935, 176.809 24.143, 191 26.770 C 260.258 39.594, 309.924 89.099, 312.684 148.059 C 313.054 155.952, 312.830 163.196, 312.083 167.559 C 310.866 174.663, 307.103 188.468, 306.552 187.846 C 306.384 187.656, 307.114 183.450, 308.174 178.500 C 309.703 171.366, 310.006 166.908, 309.635 157 C 308.700 132.004, 301.664 111.049, 287.734 91.773 C 280.248 81.414, 273.964 77.903, 276.074 85.257 C 277.475 90.142, 277.195 94.195, 275.184 98.139 C 273.560 101.325, 273.514 102.112, 274.749 105.600 C 275.508 107.745, 277.871 116.926, 280 126.001 C 282.130 135.077, 284.160 143.253, 284.512 144.170 C 284.864 145.087, 287.480 146.944, 290.326 148.297 C 296.364 151.167, 298.314 153.114, 300.579 158.535 C 304.011 166.748, 300.635 183.909, 294.603 188.914 C 293.421 189.895, 293.219 191.537, 293.676 196.434 C 294.234 202.410, 294.152 202.728, 291.881 203.336 C 290.571 203.686, 287.369 203.979, 284.763 203.986 C 280.237 203.999, 279.956 203.834, 278.426 200.250 L 276.826 196.500 275.185 199 C 274.283 200.375, 270.055 205.013, 265.790 209.307 C 259.837 215.300, 256.332 217.901, 250.701 220.502 C 243.901 223.644, 232.548 227.004, 223.850 228.447 C 218.073 229.406, 217.687 230.568, 219.976 240.121 C 222.431 250.370, 223.860 270, 222.150 270 C 221.414 270, 221 267.888, 221 264.131 C 221 251.247, 215.626 230.336, 208.806 216.678 C 207.207 213.476, 206.034 209.895, 206.199 208.720 C 206.400 207.298, 205.720 206.191, 204.166 205.408 C 202.882 204.761, 201.340 203.740, 200.740 203.140 C 199.960 202.360, 199.277 202.355, 198.353 203.122 C 197.306 203.991, 197.409 204.893, 198.893 207.848 C 203.853 217.729, 207 234.209, 207 250.299 C 207 259.126, 205.560 273.518, 204.555 274.737 C 204.448 274.867, 200.566 275.759, 195.930 276.719 C 189.451 278.059, 182.523 278.466, 166 278.477 C 147.362 278.488, 142.930 278.176, 132.704 276.128 C 126.217 274.829, 120.293 273.151, 119.541 272.398 C 116.276 269.133, 116.138 233.715, 119.376 230.137 C 120.474 228.924, 121.137 226.127, 121.331 221.900 C 121.527 217.627, 122.490 213.608, 124.231 209.805 C 126.428 205.007, 126.619 203.929, 125.444 202.954 C 124.315 202.017, 123.251 203.051, 119.841 208.398 C 115.032 215.943, 115.077 215.930, 102.338 213.513 C 91.150 211.391, 80.854 206.038, 73.899 198.729 C 67.589 192.099, 65.560 192.395, 68.975 199.447 C 73.803 209.421, 90.752 223.596, 103.011 227.914 C 105.759 228.881, 108.245 229.912, 108.537 230.203 C 108.828 230.495, 108.172 234.056, 107.077 238.117 C 105.983 242.178, 104.583 250.222, 103.967 255.994 C 102.847 266.475, 102.520 267.853, 101.411 266.744 C 100.623 265.957, 102.814 245.577, 104.436 238.601 C 105.928 232.178, 105.301 231.154, 98.548 228.982 C 83.717 224.214, 65 205.607, 65 195.633 C 65 192.205, 63.350 191.325, 55.856 190.754 C 48.043 190.158, 41.848 187.109, 38.960 182.436 C 37.893 180.708, 36.492 175.905, 35.848 171.761 C 34.322 161.944, 35.710 156.654, 41.505 150.197 C 44.430 146.939, 46.242 143.662, 47.421 139.500 C 49.649 131.631, 58.210 103.694, 63.107 88.314 C 68.914 70.072, 66.681 68.254, 54.433 81.250 C 39.659 96.926, 30.377 114.816, 25.329 137.346 C 23.150 147.070, 23.184 170.877, 25.391 180.858 C 27.272 189.365, 31.376 201.723, 34.238 207.500 C 35.328 209.700, 35.748 211.050, 35.172 210.500 C 33.876 209.263, 27.645 196.711, 25.014 190.036 C 20.555 178.724, 17.414 157.667, 18.404 145.735 C 20.817 116.678, 31.459 93.070, 52.543 70 C 57.318 64.775, 61.657 60.339, 62.185 60.143 C 62.712 59.946, 65.137 57.849, 67.572 55.482 C 74.129 49.109, 73.303 46.684, 66.215 51.500 C 64.191 52.875, 62.017 54, 61.383 54 C 60.749 54, 59.493 55.125, 58.592 56.500 C 57.691 57.875, 56.342 59, 55.595 59 C 53.482 59, 36.609 77.188, 30.971 85.542 C 26.159 92.675, 18.562 107.031, 16.178 113.500 C 12.366 123.842, 8.987 143.584, 9.020 155.322 C 9.057 168.693, 12.940 188.900, 17.655 200.255 C 21.875 210.421, 23.261 213.471, 23.898 214 C 24.229 214.275, 25.239 216.075, 26.142 218 C 31.784 230.028, 53.922 253.063, 70.565 264.223 C 81.450 271.522, 97.410 279.419, 108.500 282.992 C 112.350 284.232, 117.525 286.040, 120 287.010 C 132.131 291.762, 172.011 294.030, 191.500 291.076 C 196.450 290.326, 201.850 289.635, 203.500 289.541 C 205.150 289.447, 207.175 289.093, 208 288.754 C 208.825 288.416, 215.125 286.277, 222 284.001 C 240.898 277.746, 260.263 267.432, 274.444 256.071 C 280.286 251.390, 293 239.108, 293 238.145 C 293 237.686, 293.939 236.460, 295.087 235.421 C 299.377 231.539, 310.428 213.428, 315.081 202.654 C 322.076 186.456, 324.403 174.474, 324.432 154.500 C 324.463 132.453, 321.989 120.785, 313.310 102.053 C 300.053 73.440, 276.922 50.704, 245.063 34.971 C 236.011 30.501, 227.724 27.125, 224 26.391 C 222.625 26.119, 218.596 25.007, 215.046 23.918 C 203.632 20.418, 191.942 18.885, 174 18.535 C 164.375 18.347, 154.700 18.390, 152.500 18.630 M 150.868 21.064 C 146.671 21.586, 140.371 22.646, 136.868 23.421 L 130.500 24.829 138 24.164 C 150.072 23.095, 185.929 23.503, 193 24.790 C 219.713 29.654, 248.187 42.194, 266.812 57.298 C 297.022 81.798, 313.276 112.498, 314.700 147.747 C 315.390 164.836, 314.247 173.169, 309.108 188.514 C 302.986 206.793, 296.833 216.821, 282.893 231.236 C 280.359 233.856, 278.491 236, 278.742 236 C 279.662 236, 270.411 244.656, 267.611 246.414 L 264.723 248.228 267.917 244.253 C 269.673 242.067, 272.098 239.737, 273.305 239.075 C 277.612 236.713, 288.286 222.174, 294.015 210.865 C 303.994 191.165, 308.661 172.415, 307.670 156 C 306.659 139.264, 301.556 120.600, 294.387 107.427 C 290.693 100.637, 281.028 86.753, 279.217 85.634 C 278.690 85.308, 278.477 87.071, 278.716 89.784 C 279.009 93.105, 278.576 95.563, 277.253 98.095 C 275.455 101.534, 275.448 101.908, 277.077 106.700 C 278.013 109.455, 280.479 119.167, 282.555 128.282 L 286.331 144.855 290.602 146.486 C 295.695 148.431, 301.282 154.293, 302.998 159.493 C 304.868 165.162, 303.486 178.409, 300.484 183.580 C 299.181 185.824, 297.435 188.224, 296.603 188.914 C 295.425 189.893, 295.219 191.534, 295.669 196.360 C 296.385 204.023, 295.284 205.207, 286.880 205.815 C 282.162 206.156, 280.522 205.877, 278.964 204.468 C 277.884 203.490, 277 202.119, 277 201.422 C 277 200.725, 272.799 204.390, 267.664 209.566 C 260.060 217.232, 256.940 219.620, 250.847 222.435 C 243.895 225.647, 232.621 228.988, 223.750 230.466 C 221.688 230.810, 220 231.260, 220 231.466 C 220 231.673, 220.933 235.769, 222.073 240.569 C 223.415 246.219, 224.208 253.209, 224.323 260.398 L 224.500 271.500 221.750 271.816 L 219 272.133 219 265.197 C 219 251.234, 213.857 230.797, 206.775 216.617 C 205.159 213.381, 204.045 209.935, 204.300 208.961 C 204.621 207.732, 204.090 207.059, 202.568 206.768 L 200.373 206.349 202.676 212.049 C 203.942 215.184, 205.682 220.843, 206.542 224.625 C 208.745 234.313, 209.447 259.558, 207.776 269 L 206.448 276.500 197.974 278.288 C 186.969 280.610, 157.494 281.659, 145.978 280.138 C 141.315 279.522, 132.907 278.060, 127.293 276.888 L 117.086 274.757 116.293 270.129 C 115.857 267.583, 115.500 257.757, 115.500 248.293 C 115.500 233.003, 115.697 230.942, 117.265 229.793 C 118.570 228.837, 119.112 226.805, 119.341 222 C 119.525 218.155, 120.517 213.560, 121.770 210.750 C 124.607 204.385, 123.728 204.741, 119.913 211.500 C 116.318 217.869, 115.611 218.031, 102.338 215.513 C 92.178 213.586, 80.926 208.021, 74.798 201.893 C 69.265 196.361, 68.628 196.806, 73.148 203.046 C 80.971 213.845, 93.512 223.068, 105.250 226.655 C 108.420 227.623, 111 228.998, 111 229.718 C 111 230.437, 110.126 234.179, 109.058 238.033 C 107.990 241.887, 106.576 250.431, 105.916 257.020 C 104.929 266.876, 104.432 268.997, 103.108 268.985 C 98.948 268.945, 98.684 267.848, 99.931 255.757 C 100.581 249.449, 101.706 241.739, 102.430 238.624 C 103.154 235.510, 103.466 232.804, 103.123 232.612 C 102.780 232.420, 100.722 231.689, 98.548 230.987 C 83.441 226.111, 63 205.789, 63 195.645 C 63 193.420, 62.560 193.237, 56.075 192.773 C 43.245 191.855, 36.123 185.386, 33.939 172.666 C 32.133 162.147, 34.117 154.922, 40.539 148.634 C 42.655 146.562, 44.313 143.467, 45.430 139.500 C 47.615 131.742, 56.129 103.949, 61.165 88.135 C 63.331 81.334, 64.915 75.582, 64.686 75.352 C 63.857 74.524, 48.559 91.652, 44.458 98 C 31.838 117.534, 25.755 137.405, 25.786 159 C 25.829 189.134, 36.958 214.586, 61.048 239.647 C 70.246 249.215, 75.111 253.265, 80.974 256.234 C 83.435 257.480, 86.015 259.022, 86.706 259.661 C 87.398 260.299, 88.535 261.025, 89.232 261.274 C 89.929 261.523, 90.211 262.039, 89.858 262.422 C 88.474 263.922, 80.346 258.981, 66.834 248.426 C 63.718 245.992, 60.732 244, 60.198 244 C 59.664 244, 55.270 239.841, 50.433 234.758 C 35.882 219.468, 24.194 199.260, 20.017 182.171 C 9.889 140.734, 20.135 101.425, 49.519 69 L 57.221 60.500 47.670 70.207 C 42.417 75.546, 35.822 83.318, 33.014 87.479 C 28.166 94.664, 20.570 109.010, 18.178 115.500 C 15.859 121.793, 12.951 135.236, 11.815 144.922 C 8.688 171.572, 19.026 206.616, 36.791 229.583 C 50.569 247.397, 68.743 262.184, 89.428 272.409 C 101.155 278.206, 122.142 285.853, 128 286.463 C 129.925 286.664, 136 287.539, 141.500 288.408 C 147.584 289.369, 157.766 289.985, 167.500 289.981 C 204.233 289.965, 234.690 280.758, 264.201 260.748 C 273.479 254.457, 291 238.644, 291 236.561 C 291 235.873, 291.939 234.460, 293.087 233.421 C 297.377 229.539, 308.428 211.428, 313.081 200.654 C 319.805 185.084, 322.381 172.339, 322.410 154.500 C 322.443 134.590, 319.716 122.195, 311.310 104.053 C 296.057 71.132, 267.602 45.996, 227.500 30.018 C 223.463 28.410, 202.311 23.027, 196 22.002 C 186.763 20.501, 159.893 19.943, 150.868 21.064 M 142.286 36.032 C 129.941 37.584, 110.239 43.312, 100.250 48.253 C 96.406 50.154, 96 50.704, 96 54.018 C 96 56.033, 95.339 59.877, 94.532 62.560 C 93.134 67.204, 93.165 67.547, 95.167 69.677 C 98.010 72.704, 97.457 76.821, 91.765 95.008 C 89.270 102.979, 84.890 117.150, 82.031 126.500 C 79.173 135.850, 76.462 144.688, 76.007 146.140 C 74.946 149.530, 76.394 151, 80.796 151 C 82.663 151, 85.423 151.877, 86.928 152.949 C 99.864 162.160, 128.449 175.151, 130.739 172.861 C 131.349 172.251, 131.344 170.377, 130.725 167.702 C 129.137 160.832, 128.158 159.011, 125.512 158.005 C 122.391 156.818, 122.313 154.590, 125.121 146.889 C 126.287 143.690, 126.991 140.419, 126.685 139.621 C 126.378 138.823, 123.411 136.950, 120.092 135.461 C 112.662 132.126, 105.105 124.442, 102.427 117.497 C 99.545 110.024, 99.770 96.244, 102.888 89.273 C 105.736 82.906, 111.595 77.324, 119.476 73.468 C 124.403 71.057, 126.963 70.507, 134.843 70.162 C 146.421 69.656, 153.012 71.033, 160.455 75.515 L 166.140 78.938 171.780 77.469 C 185.459 73.906, 201.868 76.707, 212 84.335 C 217.125 88.193, 217.875 88.453, 223 88.146 C 226.671 87.926, 229.187 87.182, 230.564 85.908 C 232.861 83.786, 236.994 83.394, 238.733 85.133 C 239.356 85.756, 240.570 85.995, 241.432 85.665 C 242.809 85.136, 242.831 84.667, 241.617 81.782 C 238.576 74.555, 236.869 67.988, 237.508 65.975 C 237.879 64.807, 238.268 60.919, 238.372 57.335 L 238.563 50.818 234.927 48.963 C 228.754 45.814, 208.433 39.163, 199.751 37.450 C 190.020 35.530, 153.451 34.627, 142.286 36.032 M 144.286 38.033 C 131.946 39.583, 112.241 45.311, 102.250 50.253 C 98.840 51.939, 98 52.881, 98 55.018 C 98 56.483, 97.333 59.891, 96.518 62.591 C 95.094 67.307, 95.119 67.563, 97.158 69.110 C 100.150 71.380, 99.412 77.033, 93.777 95 C 91.275 102.975, 86.890 117.150, 84.031 126.500 C 81.173 135.850, 78.445 144.738, 77.969 146.250 C 77.137 148.895, 77.239 149, 80.648 149 C 82.597 149, 85.423 149.877, 86.928 150.949 C 95.730 157.217, 112.986 165.943, 124.627 170.015 L 129.754 171.808 128.919 168.654 C 128.460 166.919, 127.831 164.262, 127.523 162.750 C 127.214 161.238, 126.365 160, 125.636 160 C 123.750 160, 121 156.691, 121.001 154.421 C 121.001 153.365, 121.901 150.133, 123.001 147.239 C 124.100 144.346, 124.992 141.421, 124.983 140.739 C 124.974 140.058, 122.542 138.451, 119.579 137.169 C 112.735 134.207, 104.534 126.131, 101.127 119 C 98.857 114.248, 98.502 112.207, 98.511 104 C 98.525 92.145, 100.835 86.333, 108.352 79.238 C 116.448 71.596, 123.473 68.659, 134.843 68.162 C 146.421 67.656, 153.012 69.033, 160.455 73.515 L 166.140 76.938 171.780 75.469 C 185.459 71.906, 201.868 74.707, 212 82.335 C 217.125 86.193, 217.875 86.453, 223 86.146 C 226.671 85.926, 229.187 85.182, 230.564 83.908 C 232.923 81.728, 236.965 81.411, 238.947 83.250 C 240.055 84.278, 240.159 84.145, 239.532 82.500 C 239.113 81.400, 238.424 79.150, 238.003 77.500 C 237.581 75.850, 236.708 73.168, 236.062 71.539 C 235.417 69.911, 235.181 67.436, 235.537 66.039 C 235.893 64.643, 236.257 61.090, 236.346 58.145 C 236.503 52.941, 236.406 52.737, 232.899 50.949 C 226.757 47.815, 206.421 41.160, 197.751 39.447 C 188.027 37.525, 155.233 36.658, 144.286 38.033 M 77 45.500 C 77 46.325, 77.675 47, 78.500 47 C 79.325 47, 80 46.325, 80 45.500 C 80 44.675, 79.325 44, 78.500 44 C 77.675 44, 77 44.675, 77 45.500 M 86.286 48.199 C 84.199 50.800, 81.184 57.616, 80.616 61.017 C 80.295 62.932, 79.610 66.975, 79.093 70 C 78.576 73.025, 76.479 80.900, 74.434 87.500 C 72.389 94.100, 69.939 102.200, 68.990 105.500 C 68.040 108.800, 65.667 116.450, 63.716 122.500 C 61.764 128.550, 59.854 135.192, 59.470 137.261 C 58.712 141.355, 57 143.339, 57 140.124 C 57 139.027, 59.207 131.013, 61.905 122.315 C 72.071 89.534, 73.366 85.299, 75.595 77.531 C 78.045 68.992, 77.668 67, 73.605 67 C 71.806 67, 71.241 67.939, 70.144 72.750 C 69.423 75.912, 66.682 85.250, 64.052 93.500 C 57.984 112.539, 51.071 135.129, 49.467 141.163 C 48.540 144.649, 48.514 146.133, 49.363 147.038 C 50.217 147.948, 50.165 148.372, 49.153 148.741 C 45.377 150.116, 36.074 161, 38.674 161 C 39.073 161, 38.860 161.540, 38.200 162.200 C 36.586 163.814, 36.684 166.493, 38.410 167.925 C 39.528 168.853, 40.144 168.633, 41.381 166.866 C 42.460 165.325, 42.631 164.260, 41.934 163.420 C 40.822 162.081, 44.474 158.619, 48.270 157.414 C 53.130 155.872, 55.854 165.515, 52.429 172.137 C 50.924 175.048, 50.623 175.161, 45.264 174.838 C 41.540 174.613, 39.536 174.901, 39.269 175.700 C 39.047 176.360, 40.732 178.924, 43.012 181.397 C 48.030 186.841, 54.269 189.519, 59.697 188.559 C 61.789 188.189, 64.765 187.849, 66.311 187.803 C 68.465 187.739, 70.568 186.119, 75.311 180.869 C 79.207 176.558, 82.280 174.016, 83.604 174.010 C 84.761 174.004, 89.973 175.993, 95.186 178.429 C 100.399 180.865, 107.552 183.606, 111.082 184.521 C 114.612 185.435, 118.625 186.771, 120 187.490 C 129.189 192.291, 170.568 194.107, 189 190.518 C 194.225 189.501, 199.901 188.587, 201.613 188.487 C 203.326 188.387, 205.788 187.561, 207.086 186.652 C 208.383 185.744, 210.028 185, 210.741 185 C 216.109 185, 245.800 171.391, 255.626 164.427 C 257.701 162.957, 257.751 163.025, 257.679 167.210 C 257.639 169.570, 258.118 176.201, 258.744 181.946 L 259.883 192.392 256.514 196.946 C 248.748 207.443, 234.444 217.515, 222.238 221.079 C 217.104 222.578, 215.395 224.253, 217.347 225.873 C 220.279 228.306, 244.032 221.883, 252.289 216.425 C 257.451 213.012, 270.274 200.725, 271.959 197.576 C 273.053 195.532, 273.087 194.486, 272.127 192.379 C 271.466 190.929, 271.122 189.545, 271.362 189.305 C 271.602 189.065, 273.597 189.353, 275.796 189.945 C 279.998 191.077, 281 192.412, 281 196.882 C 281 200.260, 282.656 202, 285.871 202 C 290.422 202, 291.863 199.580, 291.262 192.947 C 290.730 187.090, 290.772 186.971, 294.936 182.453 C 298.125 178.993, 298.886 177.568, 298.068 176.582 C 297.228 175.569, 296.094 175.520, 292.951 176.358 C 287.781 177.739, 285.925 176.631, 284.137 171.099 C 283.025 167.660, 283.003 166.062, 284.017 162.441 C 284.700 159.998, 285.696 158, 286.229 158 C 288.490 158, 294.006 161.361, 295.508 163.653 C 296.800 165.624, 297.422 165.894, 298.537 164.969 C 301.551 162.468, 294.312 152.998, 286.596 149.347 L 282.692 147.500 278.439 129.500 C 276.101 119.600, 273.264 109.072, 272.135 106.105 C 270.103 100.766, 270.102 100.686, 272.015 98.254 C 274.739 94.791, 275.484 89.759, 273.779 86.335 C 273.002 84.776, 271.834 83.613, 271.183 83.750 C 270.496 83.895, 270 82.835, 270 81.223 C 270 78.059, 267.331 73.677, 265.932 74.542 C 265.419 74.859, 264.997 74.529, 264.994 73.809 C 264.991 73.089, 264.520 70.813, 263.947 68.750 C 263.198 66.052, 262.358 65, 260.953 65 C 259.879 65, 259 64.346, 259 63.547 C 259 59.957, 256.669 57, 253.839 57 C 251.259 57, 251 57.320, 251 60.516 L 251 64.032 248.250 61.019 C 242.908 55.166, 237.462 57.627, 241.915 63.881 C 243.960 66.752, 243.960 66.777, 241.987 67.293 C 239.153 68.034, 239.531 70.759, 242.907 73.913 C 245.501 76.336, 245.635 76.744, 244.157 77.703 C 242.669 78.669, 242.780 79.075, 245.248 81.691 C 247.451 84.027, 247.748 84.857, 246.748 85.877 C 245.747 86.898, 246.038 87.582, 248.219 89.337 C 250.162 90.902, 250.779 92.129, 250.382 93.646 C 249.572 96.745, 255.743 101.223, 261.013 101.362 C 263.206 101.419, 265 101.496, 265 101.532 C 265 101.568, 267.025 110.529, 269.500 121.445 C 271.975 132.361, 273.996 141.564, 273.992 141.896 C 273.987 142.228, 271.291 138.400, 267.999 133.389 L 262.015 124.277 263.604 121.092 C 264.478 119.340, 264.935 116.875, 264.618 115.616 C 263.837 112.501, 260.178 108, 258.427 108 C 257.642 108, 257 107.386, 257 106.635 C 257 104.371, 252.874 99.834, 251.348 100.420 C 250.496 100.747, 249.598 100.077, 249.083 98.731 C 248.086 96.126, 244.249 92.418, 243.413 93.253 C 243.098 93.569, 241.242 92.060, 239.290 89.899 C 236.395 86.695, 235.474 86.192, 234.294 87.171 C 233.263 88.026, 233.038 89.397, 233.512 91.936 L 234.177 95.500 231.838 93.324 C 228.730 90.432, 224.686 89.469, 223.194 91.266 C 222.279 92.369, 222.659 93.257, 225.011 95.510 C 227.853 98.234, 227.908 98.444, 226.256 100.269 C 224.601 102.099, 224.677 102.316, 228.069 105.424 C 230.017 107.209, 231.452 109.145, 231.258 109.725 C 231.065 110.306, 232.121 111.737, 233.606 112.905 C 235.091 114.072, 236.008 115.326, 235.644 115.690 C 234.779 116.554, 238.965 121, 240.643 121 C 241.355 121, 241.699 121.621, 241.408 122.380 C 239.984 126.090, 250.227 129.554, 255.026 126.986 C 256.658 126.112, 257.408 126.734, 260.439 131.471 C 262.373 134.496, 265.336 139.703, 267.022 143.043 L 270.087 149.116 265.097 153.603 C 262.352 156.071, 259.821 158.988, 259.472 160.087 C 259.059 161.389, 258.253 161.898, 257.156 161.550 C 256.231 161.256, 252.555 162.402, 248.987 164.096 C 239.911 168.405, 223.716 174.407, 216 176.322 C 207.901 178.331, 192.594 181, 189.166 181 L 186.594 181 190.230 177.250 C 195.660 171.649, 199.165 163.867, 199.757 156.102 C 200.034 152.471, 200.705 148.939, 201.249 148.254 C 201.933 147.392, 201.415 145.270, 199.566 141.365 C 198.097 138.262, 196.661 134.547, 196.376 133.111 C 195.905 130.744, 196.307 130.340, 200.678 128.785 C 203.330 127.842, 207.822 125.030, 210.660 122.536 C 219.107 115.114, 221.930 106.554, 218.576 98.528 C 216.794 94.262, 209.700 86.478, 204.728 83.333 C 195.933 77.770, 180.520 76.591, 169.721 80.655 C 165.874 82.102, 164.606 82.215, 163.221 81.232 C 158.169 77.649, 151.031 73.858, 147.500 72.885 C 145.300 72.278, 139.900 71.979, 135.500 72.220 C 125.443 72.771, 118.801 75.947, 110.975 83.944 C 102.243 92.869, 99.982 102.532, 104.071 113.459 C 106.930 121.103, 114.255 128.835, 122.975 133.418 C 126.839 135.448, 130 137.701, 130 138.424 C 130 139.147, 128.957 142.939, 127.681 146.850 C 126.326 151.007, 125.733 154.333, 126.253 154.853 C 126.773 155.373, 129.919 154.352, 133.821 152.397 C 142.815 147.891, 153.147 146, 168.767 146 C 185.458 146, 185.500 146.029, 185.500 157.329 C 185.500 165.150, 185.262 166.163, 182.481 170.160 C 178.926 175.272, 174.285 177.788, 165.699 179.259 C 160.224 180.197, 158.576 180.064, 152.473 178.198 C 142.823 175.248, 138.333 170.693, 136.505 162 C 135.509 157.264, 134.139 155.640, 132.374 157.104 C 129.641 159.373, 132.361 168.710, 137.553 174.880 C 139.898 177.668, 139.978 178, 138.299 178 C 130.554 178, 107.055 168.778, 92.227 159.919 L 80.955 153.184 79.281 155.403 L 77.607 157.622 74.756 154.374 L 71.904 151.127 75.004 140.313 C 76.709 134.366, 79.609 124.775, 81.449 119 C 96.388 72.100, 96.214 73.024, 90.388 71.561 C 88.996 71.212, 88.025 70.605, 88.230 70.213 C 92.101 62.794, 93.336 58.812, 93.413 53.500 C 93.500 47.507, 93.497 47.500, 90.415 47.199 C 88.718 47.033, 86.860 47.483, 86.286 48.199 M 88.271 50.217 C 85.896 53.178, 83.158 59.894, 82.040 65.500 C 80.267 74.385, 78.189 82.262, 74.522 94 C 70.832 105.811, 62.804 132.158, 60.811 139 C 59.822 142.396, 59.009 143.500, 57.500 143.500 C 53.318 143.500, 53.340 143.403, 68.978 93 C 71.111 86.125, 73.363 78.559, 73.983 76.187 C 74.603 73.816, 75.359 71.228, 75.662 70.437 C 75.988 69.588, 75.611 69, 74.739 69 C 73.777 69, 72.675 71.173, 71.570 75.250 C 70.638 78.688, 67.931 87.575, 65.554 95 C 60.113 111.999, 51.118 142.015, 50.871 144 C 50.769 144.825, 51.061 146.373, 51.522 147.440 C 52.058 148.682, 51.953 149.516, 51.228 149.757 C 48.172 150.776, 43.399 154.875, 41.627 158.003 L 39.645 161.500 42.073 159.375 C 48.232 153.982, 51.849 153.742, 54.250 158.566 C 56.568 163.224, 56.461 168.177, 53.934 173.129 L 51.869 177.177 46.531 176.839 C 41.835 176.541, 41.299 176.697, 42.074 178.142 C 44.905 183.418, 53.783 187.623, 59.821 186.546 C 61.845 186.186, 64.803 185.803, 66.397 185.695 C 68.594 185.547, 70.740 183.872, 75.292 178.750 C 79.278 174.265, 82.032 172, 83.500 172 C 84.714 172, 89.936 173.974, 95.104 176.387 C 100.272 178.800, 108.213 181.774, 112.750 182.996 C 117.287 184.219, 121 185.620, 121 186.110 C 121 186.599, 122.237 187, 123.750 187 C 125.263 187, 130.100 187.744, 134.500 188.654 C 146.320 191.097, 176.342 191.035, 189 188.541 C 194.225 187.511, 200.007 186.585, 201.850 186.482 C 203.692 186.379, 205.492 185.826, 205.850 185.251 C 206.207 184.677, 208.525 183.681, 211 183.038 C 213.475 182.396, 217.750 181.045, 220.500 180.038 C 226.703 177.765, 247 168.295, 247 167.674 C 247 167.424, 243.962 168.454, 240.250 169.964 C 222.919 177.013, 206.669 181.273, 191.861 182.650 C 183.740 183.404, 183.170 182.472, 188.433 177.042 C 193.851 171.451, 197.217 163.720, 197.787 155.562 C 198.058 151.678, 198.739 148.204, 199.300 147.842 C 199.940 147.429, 199.291 145.007, 197.558 141.348 C 196.039 138.139, 194.566 134.100, 194.286 132.374 C 193.796 129.355, 193.973 129.170, 198.909 127.530 C 209.525 124.004, 218 114.292, 218 105.652 C 218 98.541, 212.646 90.326, 204.771 85.355 C 195.922 79.769, 180.537 78.584, 169.721 82.655 C 165.874 84.102, 164.606 84.215, 163.221 83.232 C 158.169 79.649, 151.031 75.858, 147.500 74.885 C 140.668 73.001, 128.326 74.236, 122.089 77.428 C 111.121 83.041, 104 93.532, 104 104.077 C 104 115.165, 112.864 127.044, 125.223 132.521 C 133.026 135.978, 133.125 136.288, 129.746 146.651 L 127.493 153.563 133.996 150.307 C 142.628 145.986, 153.281 144, 167.833 144 C 184.702 144, 185.575 144.254, 186.908 149.549 C 188.405 155.492, 188.277 162.401, 186.597 166.422 C 181.693 178.159, 166.966 184.423, 153.402 180.541 C 143.588 177.733, 137.412 172.262, 134.996 164.236 L 134.172 161.500 134.086 164.054 C 134.002 166.541, 138.702 175.080, 140.902 176.440 C 141.506 176.813, 142 177.766, 142 178.559 C 142 183.853, 112.328 173.928, 92.197 161.901 L 80.894 155.147 79.972 157.574 C 79.088 159.900, 76 161.036, 76 159.035 C 76 158.504, 74.624 156.502, 72.942 154.587 L 69.884 151.104 71.992 143.802 C 74.592 134.800, 82.768 108.177, 88.623 89.654 C 91.031 82.039, 93 75.422, 93 74.950 C 93 74.477, 91.425 73.795, 89.500 73.434 C 87.575 73.073, 86 72.310, 86 71.738 C 86 71.167, 87.175 68.297, 88.612 65.362 C 92.516 57.380, 92.244 45.262, 88.271 50.217 M 242 60.108 C 242 61.934, 246.549 67.925, 248.671 68.894 C 251.218 70.057, 258.265 81.528, 261.126 89.166 C 262.225 92.100, 264.042 96.289, 265.164 98.476 C 268.287 104.563, 277.868 148.014, 276.083 147.993 C 275.762 147.989, 274.536 146.527, 273.357 144.743 C 264.563 131.432, 259.994 124.150, 259.959 123.390 C 259.937 122.900, 258.590 120.945, 256.965 119.044 C 255.007 116.754, 254.346 115.254, 255.006 114.594 C 256.420 113.180, 256.236 109.501, 254.551 105.468 C 252.371 100.250, 250.921 101.134, 251.232 107.493 C 251.379 110.514, 251.868 112.989, 252.317 112.993 C 252.767 112.997, 252.842 113.922, 252.484 115.049 C 251.810 117.174, 253.873 121.210, 257.083 124.044 C 259.219 125.931, 267.767 139.898, 270.473 145.923 C 272.432 150.285, 272.432 150.324, 270.486 151.408 C 263.372 155.371, 257.978 164.792, 259.455 170.677 C 259.788 172.002, 260.470 177.428, 260.973 182.737 L 261.886 192.388 258.512 196.944 C 250.003 208.436, 234.754 219.424, 222.244 223.077 C 215.730 224.980, 217.795 225.187, 226.592 223.514 C 236.127 221.701, 247.165 217.812, 252.177 214.499 C 257.328 211.094, 268.301 200.674, 269.919 197.652 C 271.075 195.491, 271.034 194.543, 269.634 191.044 C 268.735 188.798, 268 186.588, 268 186.133 C 268 185.679, 270.363 186.123, 273.250 187.121 C 276.137 188.119, 279.231 188.949, 280.125 188.967 C 281.762 189, 283 192.756, 283 197.688 C 283 199.837, 283.386 200.089, 286.250 199.813 L 289.500 199.500 289.170 193 C 288.856 186.812, 288.992 186.356, 292.006 183.500 C 293.747 181.850, 295.596 179.719, 296.114 178.764 C 296.947 177.228, 296.757 177.142, 294.462 178.014 C 285.230 181.525, 279.369 173.574, 282.203 161.384 C 283.497 155.820, 283.497 155.819, 286.841 156.362 C 288.681 156.660, 291.758 158.103, 293.679 159.569 L 297.172 162.233 295.606 159.205 C 293.589 155.305, 289.727 152.298, 284.865 150.841 C 282.739 150.204, 280.997 149.417, 280.993 149.092 C 280.967 146.774, 271.765 110.398, 270.093 106 C 268.942 102.975, 268.001 99.848, 268.001 99.050 C 268 98.253, 265.485 92.583, 262.411 86.451 C 257.513 76.680, 255.814 73.971, 251.020 68.292 C 250.459 67.628, 250 66.797, 250 66.447 C 250 66.096, 249.108 64.556, 248.018 63.026 C 246.066 60.284, 242 58.313, 242 60.108 M 253 63.050 C 253 68.032, 255.755 73.997, 257.086 71.896 C 257.753 70.841, 257.973 71.039, 257.985 72.703 C 258.006 75.794, 260.133 80.121, 261.422 79.699 C 263.143 79.135, 263.257 72.359, 261.597 69.299 C 260.527 67.324, 260.068 67.015, 260.040 68.250 C 259.967 71.422, 257 70.248, 257 67.047 C 257 63.754, 255.133 59, 253.839 59 C 253.378 59, 253 60.822, 253 63.050 M 242.015 69.750 C 242.060 71.919, 248.436 77, 251.113 77 C 252.682 77, 252.799 76.652, 251.893 74.665 C 250.273 71.110, 241.959 66.972, 242.015 69.750 M 265.160 76.901 C 263.126 78.158, 262.586 85.150, 264.342 87.498 C 266.275 90.084, 267.118 89.133, 267.734 83.669 C 268.300 78.648, 267.164 75.662, 265.160 76.901 M 245.606 78.828 C 244.856 80.042, 246.722 81.568, 251.295 83.479 C 255.799 85.361, 257 85.389, 257 83.615 C 257 80.841, 246.967 76.626, 245.606 78.828 M 137.500 79.643 C 125.117 82.646, 117.950 88.061, 115.518 96.251 C 112.564 106.198, 118.323 116.273, 128.707 119.322 C 133.276 120.664, 133.537 120.634, 134.284 118.685 C 134.716 117.560, 134.777 114.696, 134.421 112.320 C 133.581 106.718, 135.276 106.672, 136.988 112.250 C 139.590 120.728, 140.930 128.647, 140.965 135.750 C 140.986 140.050, 141.420 143, 142.033 143 C 142.602 143, 145.189 141.939, 147.783 140.643 C 156.334 136.370, 170.716 133.026, 180.622 133.008 L 184.743 133 185.227 122.250 C 185.702 111.682, 188.246 100, 190.071 100 C 190.582 100, 191 102.951, 191 106.557 C 191 115.071, 192.985 127.006, 194.397 126.978 C 200.215 126.862, 211.400 116.715, 212.567 110.493 C 215.499 94.866, 193.698 83.847, 175.647 91.832 L 171.022 93.878 171.668 98.595 C 172.141 102.045, 172.004 103.120, 171.157 102.597 C 170.521 102.204, 170 100.991, 170 99.901 C 170 93.739, 161.185 84.181, 153.109 81.586 C 147.754 79.866, 140.372 78.947, 137.500 79.643 M 132 82.477 C 123.078 85.366, 116 93.835, 116 101.622 C 116 108.743, 122.276 115.881, 130.816 118.474 C 133.080 119.161, 133.126 119.040, 132.834 113.154 C 132.507 106.553, 133.208 105.013, 135.798 106.640 C 138.040 108.048, 140.693 118.058, 142.152 130.611 L 143.329 140.729 150.914 137.781 C 155.086 136.159, 159.193 134.475, 160.040 134.039 C 160.887 133.602, 165.387 132.942, 170.040 132.570 C 184.556 131.412, 183.478 132.169, 183.640 123.019 C 183.803 113.774, 186.468 100.687, 188.538 98.969 C 191.815 96.249, 192.681 98.459, 193.260 111.021 C 193.569 117.732, 194.265 123.665, 194.807 124.207 C 196.196 125.596, 201.938 122.691, 205.916 118.587 C 214.558 109.670, 212.506 99.574, 200.856 93.699 C 194.622 90.554, 185.956 89.893, 179.260 92.050 C 173.621 93.866, 172.754 94.874, 173.483 98.762 C 174.187 102.512, 172.705 105.208, 170.421 104.331 C 169.633 104.029, 168.701 101.980, 168.348 99.777 C 167.462 94.235, 162.444 88.048, 156.030 84.588 C 149.490 81.060, 139.175 80.154, 132 82.477 M 270.385 85.782 C 268.622 86.917, 267.753 90.871, 268.450 94.587 C 269.294 99.083, 270.648 98.908, 272.083 94.118 C 273.368 89.827, 272.294 84.553, 270.385 85.782 M 248.031 86.750 C 248.109 88.593, 258.577 93.757, 259.786 92.548 C 260.919 91.414, 258.730 88.785, 255.546 87.455 C 251.802 85.890, 247.980 85.532, 248.031 86.750 M 235.507 91.995 C 236.189 96.077, 238.957 100, 241.153 100 C 243.315 100, 240.335 92.437, 237.016 89.500 L 234.756 87.500 235.507 91.995 M 225.498 93.953 C 228.574 97.421, 235.103 100.391, 234.945 98.250 C 234.843 96.877, 229.371 93.131, 226.415 92.411 L 223.500 91.701 225.498 93.953 M 252 94.792 C 252 97.221, 262.169 101.153, 263.381 99.192 C 264.387 97.564, 260.191 94.760, 256.030 94.279 C 253.753 94.016, 252 94.239, 252 94.792 M 243.739 95.594 C 242.990 96.344, 243.882 101.717, 245.176 104.250 C 246.425 106.693, 245.303 106.433, 241.769 103.459 C 237.474 99.845, 236.983 101.349, 241.068 105.602 C 245.148 109.848, 251.419 114.564, 249.022 111.584 C 248.104 110.442, 247.536 107.533, 247.522 103.909 C 247.507 99.979, 246.991 97.562, 245.940 96.512 C 245.083 95.654, 244.092 95.241, 243.739 95.594 M 227 101.845 C 227 104, 230.918 105.998, 235.079 105.964 L 239.500 105.928 236.500 103.469 C 233.612 101.101, 227 99.971, 227 101.845 M 223.260 108.250 C 222.719 108.938, 221.954 110.850, 221.560 112.500 C 219.886 119.517, 214.698 125.308, 206.265 129.575 C 203.264 131.093, 200.579 132.934, 200.298 133.665 C 200.018 134.397, 200.961 137.238, 202.394 139.979 C 205.349 145.631, 205.656 148.751, 203.532 151.559 C 202.724 152.626, 202.049 155.140, 202.032 157.145 C 201.995 161.411, 198.408 173.630, 196.924 174.547 C 196.234 174.973, 196.247 175.593, 196.964 176.457 C 199.428 179.426, 227.514 171.037, 247.217 161.448 C 253.095 158.587, 257.930 155.355, 261.147 152.139 L 266.073 147.212 262.938 141.856 C 256.471 130.808, 255.844 130.287, 248.463 129.817 C 241.895 129.399, 241.811 129.356, 236.967 123.948 C 234.283 120.951, 232.067 118.007, 232.043 117.405 C 232.019 116.803, 231.100 115.495, 230 114.500 C 228.900 113.505, 228 111.950, 228 111.045 C 228 109.390, 226.182 107, 224.922 107 C 224.550 107, 223.802 107.563, 223.260 108.250 M 223.614 112.179 C 222.478 117.859, 217.193 124.718, 210.665 128.982 C 207.284 131.192, 203.950 133, 203.258 133 C 201.378 133, 201.721 134.992, 204.500 140.212 C 207.351 145.568, 207.642 148.769, 205.532 151.559 C 204.724 152.626, 204.049 155.106, 204.032 157.068 C 203.995 161.224, 201.428 170.562, 199.486 173.606 L 198.143 175.712 206.931 173.909 C 225.099 170.183, 252.674 158.326, 259.840 151.160 L 264.017 146.983 259.618 139.741 C 255.321 132.668, 255.117 132.494, 250.859 132.236 C 248.462 132.091, 245.391 131.721, 244.035 131.413 C 241.670 130.877, 230 119.596, 230 117.847 C 230 117.381, 229.100 116.100, 228 115 C 226.900 113.900, 226 112.100, 226 111 C 226 107.840, 224.316 108.672, 223.614 112.179 M 237 109.969 C 232.815 110.475, 232.653 110.600, 234.684 111.757 C 237.258 113.222, 245 113.431, 245 112.035 C 245 110.297, 241.584 109.415, 237 109.969 M 258.173 110.872 C 256.560 111.894, 258.158 119.056, 260.417 120.931 C 262.673 122.804, 263.515 116.897, 261.538 113.073 C 259.747 109.610, 259.952 109.744, 258.173 110.872 M 247 114.500 C 247.685 115.325, 248.695 116, 249.245 116 C 249.803 116, 249.694 115.337, 249 114.500 C 248.315 113.675, 247.305 113, 246.755 113 C 246.197 113, 246.306 113.663, 247 114.500 M 238.154 117.583 C 239.506 118.934, 244.937 119.593, 250.500 119.080 C 253.522 118.801, 245.038 116, 241.171 116 C 236.976 116, 236.711 116.139, 238.154 117.583 M 246.009 122.486 C 242.562 123.657, 242.547 123.687, 244.802 124.894 C 247.508 126.342, 254.186 125.985, 254.718 124.364 C 255.373 122.367, 249.859 121.178, 246.009 122.486 M 61.429 158.426 C 61.069 159.863, 61.321 162.361, 61.991 163.978 C 63.221 166.948, 62.993 174.030, 61.563 177.250 C 60.282 180.135, 62.840 179.299, 66.052 175.782 C 69.966 171.496, 70.718 167.114, 68.353 162.372 C 67.334 160.328, 65.507 158.017, 64.293 157.234 C 62.240 155.912, 62.039 155.996, 61.429 158.426 M 62.587 158.860 C 62.183 159.513, 62.615 162.042, 63.546 164.481 C 64.689 167.474, 65.022 170.145, 64.573 172.707 L 63.906 176.500 65.947 173.500 C 68.738 169.395, 68.617 163.829, 65.660 160.392 C 64.045 158.514, 63.094 158.040, 62.587 158.860 M 270.589 161.077 C 265.957 166.581, 267.440 174.761, 274.065 180.249 C 277.945 183.464, 279.837 182.879, 277.044 179.329 C 274.126 175.619, 273.560 170.988, 275.468 166.423 C 277.237 162.188, 276.791 158, 274.570 158 C 273.804 158, 272.013 159.385, 270.589 161.077 M 272.131 161.560 C 268.209 166.547, 268.117 171.453, 271.860 176.075 L 273.745 178.404 273.254 173.293 C 272.916 169.770, 273.261 167.184, 274.364 164.971 C 275.342 163.012, 275.642 161.183, 275.136 160.278 C 274.459 159.069, 273.905 159.305, 272.131 161.560 M 39 164.941 C 39 167.356, 39.556 167.599, 40.349 165.532 C 40.659 164.725, 40.482 163.798, 39.956 163.473 C 39.430 163.148, 39 163.809, 39 164.941 M 141.217 200.269 C 138.375 203.294, 138.419 205.106, 141.402 207.908 C 144.436 210.758, 147.676 210.338, 150.345 206.750 L 152.391 204 150.346 201.250 C 147.654 197.628, 144.060 197.242, 141.217 200.269 M 142.200 201.200 C 139.510 203.890, 141.604 208, 145.665 208 C 148.628 208, 150.454 204.716, 149 202 C 147.813 199.782, 144.059 199.341, 142.200 201.200 M 138.230 221.551 C 134.142 224.415, 133.729 226.525, 136.592 229.928 C 138.014 231.617, 139.833 233, 140.634 233 C 142.586 233, 147 228.493, 147 226.500 C 147 224.854, 142.720 220, 141.268 220 C 140.815 220, 139.448 220.698, 138.230 221.551 M 137.927 224.073 C 136.061 225.939, 135.998 226.365, 137.296 228.323 C 139.145 231.113, 141.329 231.528, 143.379 229.479 C 145.421 227.436, 145.437 225.580, 143.429 223.571 C 141.358 221.501, 140.412 221.588, 137.927 224.073 M 134.455 245.455 C 133.105 246.805, 132 248.625, 132 249.500 C 132 250.375, 133.105 252.195, 134.455 253.545 C 135.805 254.895, 137.625 256, 138.500 256 C 140.470 256, 145 251.595, 145 249.680 C 145 247.365, 141.003 243, 138.882 243 C 137.797 243, 135.805 244.105, 134.455 245.455 M 135.571 246.571 C 134.707 247.436, 134 248.754, 134 249.500 C 134 250.246, 134.707 251.564, 135.571 252.429 C 136.436 253.293, 137.754 254, 138.500 254 C 140.078 254, 143 251.314, 143 249.863 C 143 245.629, 138.505 243.637, 135.571 246.571 M 91 262.819 C 91 264.027, 92.897 265.436, 93.591 264.743 C 93.842 264.491, 93.362 263.716, 92.524 263.020 C 91.574 262.231, 91 262.155, 91 262.819 M 135.455 266.455 C 132.470 269.439, 132.438 270.016, 135.073 273.365 C 137.631 276.617, 140.957 276.739, 143.826 273.686 C 146.605 270.727, 146.571 268.885, 143.686 266.174 C 140.682 263.352, 138.482 263.427, 135.455 266.455 M 136.625 267.518 C 134.660 269.483, 134.620 270.098, 136.306 272.404 C 139.048 276.154, 145.848 272.167, 143.393 268.250 C 141.912 265.888, 138.611 265.531, 136.625 267.518" stroke="none" fill="#060505" fill-rule="evenodd"/></svg>