<svg width="198" height="35" viewBox="0 0 198 35" fill="none" xmlns="http://www.w3.org/2000/svg">
<g filter="url(#filter0_d_19_93)">
<path d="M10.664 21.448C8.55467 21.448 7.00533 20.916 6.016 19.852C5.02667 18.788 4.532 17.024 4.532 14.56C4.532 12.6 4.85867 10.4907 5.512 8.232C6.184 5.97333 7.248 4.04133 8.704 2.436C10.1787 0.811998 12.0453 -1.66893e-06 14.304 -1.66893e-06C15.704 -1.66893e-06 16.8333 0.307999 17.692 0.924C18.5507 1.54 18.98 2.48267 18.98 3.752C18.98 4.55467 18.8213 5.18933 18.504 5.656C18.1867 6.104 17.692 6.328 17.02 6.328C16.348 6.328 15.816 6.08533 15.424 5.6C15.76 5.432 16.0587 5.096 16.32 4.592C16.5813 4.088 16.712 3.56533 16.712 3.024C16.712 2.52 16.572 2.10933 16.292 1.792C16.0307 1.47467 15.6013 1.316 15.004 1.316C14.0147 1.316 13.072 1.99733 12.176 3.36C11.28 4.704 10.552 6.40267 9.992 8.456C9.45067 10.5093 9.18 12.488 9.18 14.392C9.18 15.8107 9.42267 16.8933 9.908 17.64C10.3933 18.3867 11.2707 18.76 12.54 18.76C13.6413 18.76 14.6587 18.5173 15.592 18.032C16.5253 17.5467 17.328 16.856 18 15.96L18.644 16.24C18.1773 17.416 17.4867 18.396 16.572 19.18C15.6573 19.964 14.6773 20.5427 13.632 20.916C12.5867 21.2707 11.5973 21.448 10.664 21.448ZM22.006 21.112C20.6246 21.112 19.5326 20.7573 18.73 20.048C17.9273 19.3387 17.526 18.2187 17.526 16.688C17.526 15.4187 17.7873 14.0093 18.31 12.46C18.8326 10.9107 19.6726 9.576 20.83 8.456C21.9873 7.31733 23.4433 6.748 25.198 6.748C27.5873 6.748 28.782 8.24133 28.782 11.228V11.256C28.838 11.2747 28.9406 11.284 29.09 11.284C29.706 11.284 30.4153 11.1253 31.218 10.808C32.0206 10.472 32.7486 10.0707 33.402 9.604L33.654 10.36C33.1126 10.9387 32.4033 11.4333 31.526 11.844C30.6673 12.236 29.7246 12.516 28.698 12.684C28.5486 14.3827 28.166 15.8667 27.55 17.136C26.934 18.4053 26.1406 19.3853 25.17 20.076C24.1993 20.7667 23.1446 21.112 22.006 21.112ZM23.126 18.592C23.574 18.592 24.022 18.34 24.47 17.836C24.918 17.3133 25.31 16.6133 25.646 15.736C25.982 14.84 26.2246 13.8507 26.374 12.768C25.87 12.656 25.618 12.264 25.618 11.592C25.618 10.8267 25.9073 10.3227 26.486 10.08C26.4486 9.464 26.3553 9.044 26.206 8.82C26.0566 8.57733 25.7953 8.456 25.422 8.456C24.806 8.456 24.2086 8.904 23.63 9.8C23.0513 10.696 22.5846 11.7693 22.23 13.02C21.8753 14.2707 21.698 15.372 21.698 16.324C21.698 17.22 21.8006 17.8267 22.006 18.144C22.2113 18.4427 22.5846 18.592 23.126 18.592ZM34.2267 21.168C32.8453 21.168 31.772 20.8133 31.0067 20.104C30.2413 19.376 29.8587 18.2467 29.8587 16.716C29.8587 15.428 30.1107 14.0093 30.6147 12.46C31.1373 10.9107 31.9587 9.576 33.0787 8.456C34.2173 7.31733 35.6547 6.748 37.3907 6.748C38.5107 6.748 39.304 6.99067 39.7707 7.476C40.256 7.96133 40.4987 8.57733 40.4987 9.324C40.4987 9.97733 40.3587 10.4813 40.0787 10.836C39.7987 11.1907 39.444 11.368 39.0147 11.368C38.6973 11.368 38.3707 11.256 38.0347 11.032C38.2587 10.416 38.3707 9.86533 38.3707 9.38C38.3707 9.02533 38.3053 8.74533 38.1747 8.54C38.044 8.33467 37.848 8.232 37.5867 8.232C37.0267 8.232 36.4667 8.68933 35.9067 9.604C35.3467 10.5187 34.8893 11.6293 34.5347 12.936C34.18 14.2427 34.0027 15.4187 34.0027 16.464C34.0027 17.3787 34.1613 18.004 34.4787 18.34C34.796 18.6573 35.3093 18.816 36.0187 18.816C37.0267 18.816 37.8853 18.5827 38.5947 18.116C39.3227 17.6493 40.116 16.94 40.9747 15.988H41.9267C39.8547 19.4413 37.288 21.168 34.2267 21.168ZM45.6448 5.488C45.0288 5.488 44.5061 5.27333 44.0768 4.844C43.6474 4.41467 43.4328 3.892 43.4328 3.276C43.4328 2.66 43.6474 2.13733 44.0768 1.708C44.5061 1.26 45.0288 1.036 45.6448 1.036C46.2608 1.036 46.7834 1.26 47.2128 1.708C47.6608 2.13733 47.8848 2.66 47.8848 3.276C47.8848 3.892 47.6608 4.41467 47.2128 4.844C46.7834 5.27333 46.2608 5.488 45.6448 5.488ZM43.7408 21.168C42.8448 21.168 42.1168 20.888 41.5568 20.328C41.0154 19.768 40.7447 18.928 40.7447 17.808C40.7447 17.3413 40.8194 16.7347 40.9688 15.988L42.8728 7H46.9048L44.8888 16.52C44.8141 16.8 44.7768 17.0987 44.7768 17.416C44.7768 17.7893 44.8608 18.06 45.0288 18.228C45.2154 18.3773 45.5141 18.452 45.9248 18.452C46.4661 18.452 46.9701 18.228 47.4368 17.78C47.9034 17.3133 48.2394 16.716 48.4448 15.988H49.6208C48.9301 18.004 48.0434 19.376 46.9608 20.104C45.8781 20.8133 44.8048 21.168 43.7408 21.168ZM58.5416 21.168C57.4029 21.168 56.5629 20.8693 56.0216 20.272C55.4989 19.656 55.2376 18.9 55.2376 18.004C55.2376 17.612 55.2843 17.1733 55.3776 16.688C55.4709 16.184 55.5643 15.6987 55.6576 15.232C55.7696 14.7653 55.8443 14.4667 55.8816 14.336C56.0309 13.6827 56.1709 13.0387 56.3016 12.404C56.4323 11.7693 56.4976 11.256 56.4976 10.864C56.4976 9.912 56.1616 9.436 55.4896 9.436C55.0043 9.436 54.5749 9.67867 54.2016 10.164C53.8283 10.6307 53.5296 11.2467 53.3056 12.012L51.4016 21H47.3696L50.3376 7H54.3696L54.0616 8.456C54.9949 7.41067 56.0869 6.888 57.3376 6.888C58.2896 6.888 59.0456 7.14933 59.6056 7.672C60.1656 8.19467 60.4456 8.988 60.4456 10.052C60.4456 10.5933 60.3803 11.2 60.2496 11.872C60.1189 12.5253 59.9323 13.328 59.6896 14.28C59.5403 14.8587 59.4003 15.428 59.2696 15.988C59.1576 16.5293 59.1016 16.9587 59.1016 17.276C59.1016 17.6493 59.1856 17.9387 59.3536 18.144C59.5216 18.3493 59.8109 18.452 60.2216 18.452C60.7816 18.452 61.2296 18.256 61.5656 17.864C61.9016 17.4533 62.2376 16.828 62.5736 15.988H63.7496C63.0589 18.0413 62.2563 19.4227 61.3416 20.132C60.4456 20.8227 59.5123 21.168 58.5416 21.168ZM65.9303 21.168C64.8663 21.168 63.9796 20.804 63.2703 20.076C62.561 19.348 62.2063 18.2093 62.2063 16.66C62.2063 15.2787 62.477 13.832 63.0183 12.32C63.5783 10.7893 64.3996 9.50133 65.4823 8.456C66.5836 7.392 67.8903 6.86 69.4023 6.86C70.1676 6.86 70.737 6.99067 71.1103 7.252C71.4836 7.51333 71.6703 7.85867 71.6703 8.288V8.484L71.9783 7H76.0103L73.9943 16.52C73.9196 16.8 73.8823 17.0987 73.8823 17.416C73.8823 17.7893 73.9663 18.06 74.1343 18.228C74.321 18.3773 74.6196 18.452 75.0303 18.452C75.2916 18.452 75.497 18.4147 75.6463 18.34C75.2356 19.3853 74.8436 20.1227 74.4703 20.552C74.097 20.9627 73.5556 21.168 72.8463 21.168C72.081 21.168 71.4556 20.944 70.9703 20.496C70.5036 20.0293 70.2143 19.3853 70.1023 18.564C68.9636 20.3 67.573 21.168 65.9303 21.168ZM67.7503 18.452C68.217 18.452 68.6743 18.2373 69.1223 17.808C69.589 17.36 69.9063 16.7533 70.0743 15.988L71.4183 9.66C71.4183 9.41733 71.325 9.184 71.1383 8.96C70.9516 8.71733 70.6623 8.596 70.2703 8.596C69.5236 8.596 68.8516 9.03467 68.2543 9.912C67.657 10.7707 67.1903 11.816 66.8543 13.048C66.5183 14.2613 66.3503 15.3347 66.3503 16.268C66.3503 17.2013 66.481 17.7987 66.7423 18.06C67.0223 18.3213 67.3583 18.452 67.7503 18.452ZM82.3046 21.448C80.1953 21.448 78.646 20.916 77.6566 19.852C76.6673 18.788 76.1726 17.024 76.1726 14.56C76.1726 12.6 76.4993 10.4907 77.1526 8.232C77.8246 5.97333 78.8886 4.04133 80.3446 2.436C81.8193 0.811998 83.686 -1.66893e-06 85.9446 -1.66893e-06C87.3446 -1.66893e-06 88.474 0.307999 89.3326 0.924C90.1913 1.54 90.6206 2.48267 90.6206 3.752C90.6206 4.55467 90.462 5.18933 90.1446 5.656C89.8273 6.104 89.3326 6.328 88.6606 6.328C87.9886 6.328 87.4566 6.08533 87.0646 5.6C87.4006 5.432 87.6993 5.096 87.9606 4.592C88.222 4.088 88.3526 3.56533 88.3526 3.024C88.3526 2.52 88.2126 2.10933 87.9326 1.792C87.6713 1.47467 87.242 1.316 86.6446 1.316C85.6553 1.316 84.7126 1.99733 83.8166 3.36C82.9206 4.704 82.1926 6.40267 81.6326 8.456C81.0913 10.5093 80.8206 12.488 80.8206 14.392C80.8206 15.8107 81.0633 16.8933 81.5486 17.64C82.034 18.3867 82.9113 18.76 84.1806 18.76C85.282 18.76 86.2993 18.5173 87.2326 18.032C88.166 17.5467 88.9686 16.856 89.6406 15.96L90.2846 16.24C89.818 17.416 89.1273 18.396 88.2126 19.18C87.298 19.964 86.318 20.5427 85.2726 20.916C84.2273 21.2707 83.238 21.448 82.3046 21.448ZM93.6466 21.112C92.2653 21.112 91.1733 20.7573 90.3706 20.048C89.5679 19.3387 89.1666 18.2187 89.1666 16.688C89.1666 15.4187 89.4279 14.0093 89.9506 12.46C90.4733 10.9107 91.3133 9.576 92.4706 8.456C93.6279 7.31733 95.0839 6.748 96.8386 6.748C99.2279 6.748 100.423 8.24133 100.423 11.228V11.256C100.479 11.2747 100.581 11.284 100.731 11.284C101.347 11.284 102.056 11.1253 102.859 10.808C103.661 10.472 104.389 10.0707 105.043 9.604L105.295 10.36C104.753 10.9387 104.044 11.4333 103.167 11.844C102.308 12.236 101.365 12.516 100.339 12.684C100.189 14.3827 99.8066 15.8667 99.1906 17.136C98.5746 18.4053 97.7813 19.3853 96.8106 20.076C95.8399 20.7667 94.7853 21.112 93.6466 21.112ZM94.7666 18.592C95.2146 18.592 95.6626 18.34 96.1106 17.836C96.5586 17.3133 96.9506 16.6133 97.2866 15.736C97.6226 14.84 97.8653 13.8507 98.0146 12.768C97.5106 12.656 97.2586 12.264 97.2586 11.592C97.2586 10.8267 97.5479 10.3227 98.1266 10.08C98.0893 9.464 97.9959 9.044 97.8466 8.82C97.6973 8.57733 97.4359 8.456 97.0626 8.456C96.4466 8.456 95.8493 8.904 95.2706 9.8C94.6919 10.696 94.2253 11.7693 93.8706 13.02C93.5159 14.2707 93.3386 15.372 93.3386 16.324C93.3386 17.22 93.4413 17.8267 93.6466 18.144C93.8519 18.4427 94.2253 18.592 94.7666 18.592ZM111.495 21.168C110.506 21.168 109.787 20.8693 109.339 20.272C108.891 19.6747 108.667 18.9187 108.667 18.004C108.667 17.612 108.714 17.1733 108.807 16.688C108.901 16.184 108.994 15.6987 109.087 15.232C109.199 14.7653 109.274 14.4667 109.311 14.336C109.461 13.6827 109.601 13.0387 109.731 12.404C109.862 11.7693 109.927 11.256 109.927 10.864C109.927 9.912 109.591 9.436 108.919 9.436C108.434 9.436 108.005 9.67867 107.631 10.164C107.258 10.6307 106.959 11.2467 106.735 12.012L104.831 21H100.799L103.767 7H107.799L107.491 8.456C108.425 7.41067 109.517 6.888 110.767 6.888C111.719 6.888 112.475 7.14933 113.035 7.672C113.595 8.19467 113.875 8.988 113.875 10.052C113.875 10.5933 113.81 11.2 113.679 11.872C113.549 12.5253 113.362 13.328 113.119 14.28C112.97 14.8587 112.83 15.428 112.699 15.988C112.587 16.5293 112.531 16.9587 112.531 17.276C112.531 17.6493 112.615 17.9387 112.783 18.144C112.951 18.3493 113.241 18.452 113.651 18.452C114.099 18.452 114.407 18.396 114.575 18.284C114.463 19.236 114.118 19.9547 113.539 20.44C112.979 20.9253 112.298 21.168 111.495 21.168ZM119.198 26.796C117.873 26.796 116.846 26.432 116.118 25.704C115.409 24.9947 115.054 24.0427 115.054 22.848C115.054 21.84 115.362 20.9627 115.978 20.216C116.594 19.4693 117.425 19.096 118.47 19.096C119.273 19.096 119.926 19.2173 120.43 19.46C120.953 19.684 121.214 20.188 121.214 20.972C121.214 21.308 121.158 21.6813 121.046 22.092C120.71 21.812 120.421 21.616 120.178 21.504C119.935 21.4107 119.665 21.364 119.366 21.364C118.75 21.364 118.265 21.5693 117.91 21.98C117.574 22.3907 117.406 22.876 117.406 23.436C117.406 24.0893 117.602 24.5747 117.994 24.892C118.386 25.228 118.825 25.396 119.31 25.396C119.758 25.396 120.131 25.3027 120.43 25.116C120.747 24.948 121.027 24.612 121.27 24.108C121.513 23.6227 121.746 22.904 121.97 21.952L126.366 1.96C125.115 2.464 124.145 3.23867 123.454 4.284C122.763 5.32933 122.418 6.59867 122.418 8.092C122.418 8.78267 122.483 9.268 122.614 9.548C122.745 9.80933 122.81 9.95867 122.81 9.996C121.802 9.996 121.046 9.79067 120.542 9.38C120.057 8.95067 119.814 8.25067 119.814 7.28C119.814 6.08533 120.299 4.928 121.27 3.808C122.259 2.66933 123.519 1.75467 125.05 1.064C126.581 0.354665 128.111 -1.66893e-06 129.642 -1.66893e-06H130.762L126.562 19.88C126.077 22.176 125.274 23.9027 124.154 25.06C123.034 26.2173 121.382 26.796 119.198 26.796ZM132.95 21.168C131.886 21.168 130.999 20.804 130.29 20.076C129.581 19.348 129.226 18.2093 129.226 16.66C129.226 15.2787 129.497 13.832 130.038 12.32C130.598 10.7893 131.419 9.50133 132.502 8.456C133.603 7.392 134.91 6.86 136.422 6.86C137.187 6.86 137.757 6.99067 138.13 7.252C138.503 7.51333 138.69 7.85867 138.69 8.288V8.484L138.998 7H143.03L141.014 16.52C140.939 16.8 140.902 17.0987 140.902 17.416C140.902 18.2187 141.285 18.62 142.05 18.62C142.573 18.62 143.021 18.3773 143.394 17.892C143.786 17.4067 144.094 16.772 144.318 15.988H145.494C144.803 18.004 143.945 19.376 142.918 20.104C141.91 20.8133 140.893 21.168 139.866 21.168C139.082 21.168 138.447 20.9533 137.962 20.524C137.495 20.076 137.215 19.432 137.122 18.592C136.581 19.3573 135.974 19.9827 135.302 20.468C134.649 20.9347 133.865 21.168 132.95 21.168ZM134.77 18.452C135.237 18.452 135.694 18.2373 136.142 17.808C136.609 17.36 136.926 16.7533 137.094 15.988L138.438 9.66C138.438 9.41733 138.345 9.184 138.158 8.96C137.971 8.71733 137.682 8.596 137.29 8.596C136.543 8.596 135.871 9.03467 135.274 9.912C134.677 10.7707 134.21 11.816 133.874 13.048C133.538 14.2613 133.37 15.3347 133.37 16.268C133.37 17.2013 133.501 17.7987 133.762 18.06C134.042 18.3213 134.378 18.452 134.77 18.452ZM147.52 21.168C146.437 21.168 145.588 20.8973 144.972 20.356C144.375 19.796 144.076 18.9653 144.076 17.864C144.076 17.416 144.123 16.968 144.216 16.52L146.232 7H150.264L148.248 16.52C148.155 16.9867 148.108 17.3227 148.108 17.528C148.108 18.144 148.425 18.452 149.06 18.452C149.919 18.452 150.712 17.9107 151.44 16.828C152.187 15.7453 152.784 14.4573 153.232 12.964C153.68 11.4707 153.904 10.1827 153.904 9.1C153.867 9.19333 153.745 9.268 153.54 9.324C153.335 9.36133 153.157 9.38 153.008 9.38C152.691 9.38 152.439 9.23067 152.252 8.932C152.084 8.63333 152 8.30667 152 7.952C152 7.504 152.14 7.14 152.42 6.86C152.719 6.58 153.157 6.44 153.736 6.44C154.352 6.44 154.8 6.67333 155.08 7.14C155.36 7.588 155.5 8.16667 155.5 8.876C155.5 10.556 155.211 12.3573 154.632 14.28C154.053 16.184 153.167 17.808 151.972 19.152C150.777 20.496 149.293 21.168 147.52 21.168ZM160.598 5.488C159.982 5.488 159.459 5.27333 159.03 4.844C158.601 4.41467 158.386 3.892 158.386 3.276C158.386 2.66 158.601 2.13733 159.03 1.708C159.459 1.26 159.982 1.036 160.598 1.036C161.214 1.036 161.737 1.26 162.166 1.708C162.614 2.13733 162.838 2.66 162.838 3.276C162.838 3.892 162.614 4.41467 162.166 4.844C161.737 5.27333 161.214 5.488 160.598 5.488ZM158.694 21.168C157.798 21.168 157.07 20.888 156.51 20.328C155.969 19.768 155.698 18.928 155.698 17.808C155.698 17.3413 155.773 16.7347 155.922 15.988L157.826 7H161.858L159.842 16.52C159.767 16.8 159.73 17.0987 159.73 17.416C159.73 17.7893 159.814 18.06 159.982 18.228C160.169 18.3773 160.467 18.452 160.878 18.452C161.419 18.452 161.923 18.228 162.39 17.78C162.857 17.3133 163.193 16.716 163.398 15.988H164.574C163.883 18.004 162.997 19.376 161.914 20.104C160.831 20.8133 159.758 21.168 158.694 21.168ZM166.159 21.168C165.263 21.168 164.544 20.8973 164.003 20.356C163.461 19.796 163.191 18.956 163.191 17.836C163.191 17.4067 163.265 16.7907 163.415 15.988L165.095 8.12H164.171L164.395 7H165.319L166.159 3.136L170.303 2.576L169.351 7H175.231L176.323 13.048C177.163 12.152 177.816 11.312 178.283 10.528C178.749 9.744 178.983 9.1 178.983 8.596C178.983 8.428 178.973 8.316 178.955 8.26C178.693 8.29733 178.535 8.316 178.479 8.316C178.012 8.316 177.676 8.176 177.471 7.896C177.265 7.59733 177.163 7.21467 177.163 6.748C177.163 6.33733 177.312 6.02 177.611 5.796C177.909 5.55333 178.283 5.432 178.731 5.432C179.328 5.432 179.795 5.66533 180.131 6.132C180.467 6.59867 180.635 7.196 180.635 7.924C180.635 8.82 180.317 9.79067 179.683 10.836C179.067 11.8627 178.049 13.1133 176.631 14.588L176.883 15.988C176.901 16.0813 176.957 16.38 177.051 16.884C177.163 17.3693 177.34 17.752 177.583 18.032C177.825 18.312 178.143 18.452 178.535 18.452C179.076 18.452 179.58 18.228 180.047 17.78C180.513 17.3133 180.849 16.716 181.055 15.988H182.231C181.54 18.004 180.663 19.376 179.599 20.104C178.553 20.8133 177.508 21.168 176.463 21.168C175.585 21.168 174.904 20.8787 174.419 20.3C173.952 19.7027 173.551 18.7133 173.215 17.332C172.225 18.4333 171.105 19.348 169.855 20.076C168.604 20.804 167.372 21.168 166.159 21.168ZM168.455 18.424C169.164 18.424 169.929 18.1907 170.751 17.724C171.572 17.2387 172.291 16.604 172.907 15.82L171.479 8.12H169.127L167.335 16.52C167.26 16.8 167.223 17.0987 167.223 17.416C167.223 18.088 167.633 18.424 168.455 18.424ZM183.823 21.168C182.927 21.168 182.199 20.888 181.639 20.328C181.097 19.768 180.827 18.928 180.827 17.808C180.827 17.3413 180.901 16.7347 181.051 15.988L182.955 7H186.987L184.971 16.52C184.915 16.744 184.887 16.9773 184.887 17.22C184.887 18.0413 185.167 18.452 185.727 18.452C186.249 18.452 186.697 18.2373 187.071 17.808C187.444 17.36 187.743 16.7533 187.967 15.988L189.871 7H193.903L191.887 16.52C191.812 16.8 191.775 17.0987 191.775 17.416C191.775 17.7893 191.859 18.06 192.027 18.228C192.213 18.3773 192.512 18.452 192.923 18.452C193.221 18.452 193.436 18.4333 193.567 18.396C193.716 18.34 193.809 18.3027 193.847 18.284C193.772 19.236 193.445 19.9547 192.867 20.44C192.288 20.9253 191.579 21.168 190.739 21.168C189.955 21.168 189.32 20.9347 188.835 20.468C188.368 20.0013 188.088 19.348 187.995 18.508C187.36 19.5347 186.688 20.2347 185.979 20.608C185.288 20.9813 184.569 21.168 183.823 21.168Z" fill="white" shape-rendering="crispEdges"/>
<path d="M6.016 19.852L6.74834 19.1711L6.016 19.852ZM5.512 8.232L4.55349 7.94682L4.55138 7.95413L5.512 8.232ZM8.704 2.436L7.96368 1.76375L7.96328 1.76418L8.704 2.436ZM17.692 0.924L17.1091 1.73654H17.1091L17.692 0.924ZM18.504 5.656L19.32 6.23402L19.3256 6.22621L19.3309 6.21831L18.504 5.656ZM15.424 5.6L14.9768 4.70557L13.8651 5.26142L14.6461 6.22834L15.424 5.6ZM16.292 1.792L15.5201 2.42771L15.5309 2.44085L15.5422 2.45362L16.292 1.792ZM12.176 3.36L13.0081 3.91471L13.0116 3.9094L12.176 3.36ZM9.992 8.456L9.0272 8.19287L9.02504 8.20107L9.992 8.456ZM9.908 17.64L9.06956 18.185L9.908 17.64ZM15.592 18.032L16.0534 18.9192L15.592 18.032ZM18 15.96L18.3987 15.0429L17.6741 14.7279L17.2 15.36L18 15.96ZM18.644 16.24L19.5735 16.6088L19.9306 15.709L19.0427 15.3229L18.644 16.24ZM16.572 19.18L17.2228 19.9393H17.2228L16.572 19.18ZM13.632 20.916L13.9533 21.863L13.9608 21.8604L13.9683 21.8577L13.632 20.916ZM10.664 20.448C8.7054 20.448 7.47651 19.9542 6.74834 19.1711L5.28366 20.5329C6.53415 21.8778 8.40393 22.448 10.664 22.448V20.448ZM6.74834 19.1711C6.01684 18.3844 5.532 16.9346 5.532 14.56H3.532C3.532 17.1134 4.03649 19.1916 5.28366 20.5329L6.74834 19.1711ZM5.532 14.56C5.532 12.7105 5.84038 10.6956 6.47262 8.50986L4.55138 7.95413C3.87695 10.2857 3.532 12.4895 3.532 14.56H5.532ZM6.47048 8.51717C7.10355 6.38933 8.09791 4.59276 9.44472 3.10781L7.96328 1.76418C6.39809 3.48991 5.26445 5.55734 4.55352 7.94683L6.47048 8.51717ZM9.44433 3.10825C10.7232 1.69991 12.3178 0.999998 14.304 0.999998V-1C11.7729 -1 9.63417 -0.075911 7.96368 1.76375L9.44433 3.10825ZM14.304 0.999998C15.5621 0.999998 16.4679 1.27652 17.1091 1.73654L18.2749 0.111462C17.1988 -0.660525 15.8459 -1 14.304 -1V0.999998ZM17.1091 1.73654C17.6515 2.12564 17.98 2.73146 17.98 3.752H19.98C19.98 2.23387 19.4499 0.954355 18.2749 0.111462L17.1091 1.73654ZM17.98 3.752C17.98 4.43538 17.8433 4.84929 17.6771 5.09369L19.3309 6.21831C19.7994 5.52937 19.98 4.67395 19.98 3.752H17.98ZM17.688 5.07798C17.601 5.20079 17.4497 5.328 17.02 5.328V7.328C17.9343 7.328 18.7724 7.0072 19.32 6.23402L17.688 5.07798ZM17.02 5.328C16.6234 5.328 16.3879 5.20193 16.2019 4.97166L14.6461 6.22834C15.2441 6.96874 16.0726 7.328 17.02 7.328V5.328ZM15.8712 6.49443C16.4707 6.1947 16.8961 5.65335 17.2078 5.05232L15.4322 4.13168C15.2212 4.53865 15.0493 4.6693 14.9768 4.70557L15.8712 6.49443ZM17.2078 5.05232C17.5391 4.41324 17.712 3.73342 17.712 3.024H15.712C15.712 3.39725 15.6235 3.76276 15.4322 4.13168L17.2078 5.05232ZM17.712 3.024C17.712 2.32533 17.5127 1.66407 17.0418 1.13038L15.5422 2.45362C15.6313 2.55459 15.712 2.71467 15.712 3.024H17.712ZM17.0639 1.15629C16.5388 0.518583 15.7603 0.316 15.004 0.316V2.316C15.2185 2.316 15.3517 2.34505 15.4274 2.37299C15.4953 2.3981 15.5143 2.42071 15.5201 2.42771L17.0639 1.15629ZM15.004 0.316C13.5039 0.316 12.2992 1.35255 11.3404 2.81059L13.0116 3.9094C13.8448 2.64211 14.5254 2.316 15.004 2.316V0.316ZM11.344 2.8053C10.3728 4.26201 9.60707 6.06681 9.02724 8.19288L10.9568 8.71912C11.4969 6.73852 12.1872 5.14599 13.0081 3.9147L11.344 2.8053ZM9.02504 8.20107C8.46426 10.3282 8.18 12.3927 8.18 14.392H10.18C10.18 12.5833 10.4371 10.6905 10.959 8.71093L9.02504 8.20107ZM8.18 14.392C8.18 15.8993 8.43338 17.2062 9.06956 18.185L10.7464 17.095C10.412 16.5804 10.18 15.722 10.18 14.392H8.18ZM9.06956 18.185C9.81083 19.3254 11.0885 19.76 12.54 19.76V17.76C11.4528 17.76 10.9758 17.4479 10.7464 17.095L9.06956 18.185ZM12.54 19.76C13.7942 19.76 14.9708 19.4822 16.0534 18.9192L15.1306 17.1448C14.3466 17.5525 13.4885 17.76 12.54 17.76V19.76ZM16.0534 18.9192C17.1282 18.3603 18.044 17.568 18.8 16.56L17.2 15.36C16.612 16.144 15.9225 16.733 15.1306 17.1448L16.0534 18.9192ZM17.6013 16.8771L18.2453 17.1571L19.0427 15.3229L18.3987 15.0429L17.6013 16.8771ZM17.7145 15.8712C17.3046 16.9042 16.7064 17.7477 15.9212 18.4207L17.2228 19.9393C18.2669 19.0443 19.0501 17.9278 19.5735 16.6088L17.7145 15.8712ZM15.9212 18.4207C15.0914 19.132 14.2164 19.6454 13.2957 19.9743L13.9683 21.8577C15.1382 21.4399 16.2233 20.796 17.2228 19.9393L15.9212 18.4207ZM13.3107 19.969C12.3504 20.2948 11.4702 20.448 10.664 20.448V22.448C11.7245 22.448 12.8229 22.2465 13.9533 21.863L13.3107 19.969ZM18.73 20.048L18.0678 20.7973L18.73 20.048ZM18.31 12.46L19.2575 12.7796L18.31 12.46ZM20.83 8.456L21.5254 9.17463L21.5313 9.16883L20.83 8.456ZM28.782 11.256H27.782V11.9768L28.4657 12.2047L28.782 11.256ZM31.218 10.808L31.5856 11.738L31.5949 11.7343L31.6041 11.7304L31.218 10.808ZM33.402 9.604L34.3507 9.28777L33.9225 8.00329L32.8207 8.79027L33.402 9.604ZM33.654 10.36L34.3842 11.0432L34.7909 10.6085L34.6027 10.0438L33.654 10.36ZM31.526 11.844L31.9413 12.7537L31.9499 12.7497L31.526 11.844ZM28.698 12.684L28.5365 11.6971L27.7698 11.8226L27.7018 12.5964L28.698 12.684ZM27.55 17.136L26.6503 16.6994L27.55 17.136ZM25.17 20.076L24.5902 19.2612L25.17 20.076ZM24.47 17.836L25.2174 18.5004L25.2234 18.4936L25.2292 18.4868L24.47 17.836ZM25.646 15.736L26.5798 16.0937L26.5823 16.0871L25.646 15.736ZM26.374 12.768L27.3646 12.9046L27.4905 11.9917L26.5909 11.7918L26.374 12.768ZM26.486 10.08L26.8727 11.0022L27.5271 10.7278L27.4841 10.0195L26.486 10.08ZM26.206 8.82L25.3543 9.3441L25.3638 9.35958L25.3739 9.3747L26.206 8.82ZM23.63 9.8L24.47 10.3425L23.63 9.8ZM22.23 13.02L23.192 13.2928L22.23 13.02ZM22.006 18.144L21.1664 18.6873L21.174 18.699L21.1819 18.7105L22.006 18.144ZM22.006 20.112C20.7961 20.112 19.9642 19.8042 19.3922 19.2987L18.0678 20.7973C19.1011 21.7105 20.4532 22.112 22.006 22.112V20.112ZM19.3922 19.2987C18.8836 18.8492 18.526 18.0583 18.526 16.688H16.526C16.526 18.379 16.971 19.8281 18.0678 20.7973L19.3922 19.2987ZM18.526 16.688C18.526 15.5535 18.7601 14.2541 19.2575 12.7796L17.3624 12.1403C16.8145 13.7645 16.526 15.2838 16.526 16.688H18.526ZM19.2575 12.7796C19.73 11.3791 20.4845 10.1819 21.5254 9.1746L20.1345 7.7374C18.8607 8.97011 17.9353 10.4422 17.3624 12.1403L19.2575 12.7796ZM21.5313 9.16883C22.4856 8.22994 23.6824 7.748 25.198 7.748V5.748C23.2042 5.748 21.489 6.40473 20.1286 7.74317L21.5313 9.16883ZM25.198 7.748C26.1719 7.748 26.744 8.04131 27.1051 8.49269C27.5003 8.98669 27.782 9.84151 27.782 11.228H29.782C29.782 9.62782 29.4663 8.24264 28.6668 7.24331C27.8333 6.20136 26.6133 5.748 25.198 5.748V7.748ZM27.782 11.228V11.256H29.782V11.228H27.782ZM28.4657 12.2047C28.6942 12.2808 28.9484 12.284 29.09 12.284V10.284C29.0628 10.284 29.0409 10.2836 29.0237 10.2829C29.0063 10.2823 28.996 10.2815 28.9915 10.2811C28.9894 10.2809 28.9896 10.2809 28.9918 10.2812C28.994 10.2815 28.999 10.2821 29.0065 10.2835C29.0139 10.2848 29.0253 10.287 29.0398 10.2905C29.0541 10.2939 29.0741 10.2993 29.0982 10.3073L28.4657 12.2047ZM29.09 12.284C29.8714 12.284 30.7094 12.0844 31.5856 11.738L30.8503 9.87804C30.1212 10.1663 29.5405 10.284 29.09 10.284V12.284ZM31.6041 11.7304C32.47 11.368 33.2643 10.9313 33.9832 10.4177L32.8207 8.79027C32.233 9.21007 31.5713 9.57601 30.8318 9.88556L31.6041 11.7304ZM32.4533 9.92023L32.7053 10.6762L34.6027 10.0438L34.3507 9.28777L32.4533 9.92023ZM32.9237 9.67684C32.4864 10.1443 31.8889 10.57 31.102 10.9383L31.9499 12.7497C32.9177 12.2967 33.7389 11.733 34.3842 11.0432L32.9237 9.67684ZM31.1107 10.9343C30.3406 11.2859 29.4843 11.542 28.5365 11.6971L28.8595 13.6709C29.9649 13.49 30.994 13.1861 31.9413 12.7537L31.1107 10.9343ZM27.7018 12.5964C27.561 14.1984 27.2034 15.5598 26.6503 16.6994L28.4496 17.5726C29.1286 16.1736 29.5363 14.5669 29.6941 12.7716L27.7018 12.5964ZM26.6503 16.6994C26.094 17.8457 25.4011 18.6843 24.5902 19.2612L25.7497 20.8908C26.8802 20.0864 27.7739 18.965 28.4496 17.5726L26.6503 16.6994ZM24.5902 19.2612C23.7805 19.8373 22.9268 20.112 22.006 20.112V22.112C23.3624 22.112 24.6181 21.696 25.7497 20.8908L24.5902 19.2612ZM23.126 19.592C23.9782 19.592 24.676 19.1094 25.2174 18.5004L23.7226 17.1716C23.3679 17.5706 23.1698 17.592 23.126 17.592V19.592ZM25.2292 18.4868C25.7735 17.8518 26.2168 17.0416 26.5798 16.0936L24.7121 15.3784C24.4032 16.185 24.0625 16.7748 23.7107 17.1852L25.2292 18.4868ZM26.5823 16.0871C26.9476 15.1129 27.2065 14.0504 27.3646 12.9046L25.3833 12.6314C25.2427 13.6509 25.0163 14.5671 24.7096 15.3849L26.5823 16.0871ZM26.5909 11.7918C26.5691 11.787 26.5767 11.7853 26.5979 11.7994C26.6209 11.8148 26.6387 11.8345 26.6481 11.8492C26.6559 11.8614 26.6481 11.8545 26.6383 11.813C26.6282 11.7704 26.618 11.6993 26.618 11.592H24.618C24.618 12.0393 24.6998 12.517 24.9658 12.9308C25.2503 13.3734 25.6781 13.6378 26.157 13.7442L26.5909 11.7918ZM26.618 11.592C26.618 11.3303 26.6679 11.1977 26.7022 11.1379C26.7287 11.0917 26.7686 11.0458 26.8727 11.0022L26.0992 9.1578C25.6247 9.35682 25.2306 9.68426 24.9677 10.1421C24.7127 10.5863 24.618 11.0884 24.618 11.592H26.618ZM27.4841 10.0195C27.4635 9.67942 27.426 9.36436 27.3642 9.08607C27.3048 8.81898 27.2098 8.52294 27.038 8.2653L25.3739 9.3747C25.3515 9.34106 25.3778 9.36702 25.4118 9.51993C25.4433 9.66164 25.4711 9.86458 25.4878 10.1405L27.4841 10.0195ZM27.0576 8.2959C26.6704 7.66667 26.0206 7.456 25.422 7.456V9.456C25.5045 9.456 25.5111 9.46989 25.4769 9.45401C25.4586 9.44554 25.4345 9.43111 25.4097 9.4091C25.3848 9.38702 25.3664 9.36378 25.3543 9.3441L27.0576 8.2959ZM25.422 7.456C24.2765 7.456 23.4181 8.28484 22.7899 9.25747L24.47 10.3425C24.9992 9.52316 25.3354 9.456 25.422 9.456V7.456ZM22.7899 9.25747C22.1472 10.2527 21.6439 11.4211 21.2679 12.7472L23.192 13.2928C23.5253 12.1175 23.9554 11.1393 24.47 10.3425L22.7899 9.25747ZM21.2679 12.7472C20.8966 14.0566 20.698 15.2531 20.698 16.324H22.698C22.698 15.4909 22.854 14.4847 23.192 13.2928L21.2679 12.7472ZM20.698 16.324C20.698 16.8051 20.7252 17.2407 20.789 17.6179C20.8505 17.9814 20.9578 18.3649 21.1664 18.6873L22.8455 17.6007C22.8488 17.6058 22.8021 17.5273 22.761 17.2841C22.7221 17.0546 22.698 16.7389 22.698 16.324H20.698ZM21.1819 18.7105C21.6535 19.3964 22.4268 19.592 23.126 19.592V17.592C22.9411 17.592 22.8467 17.5657 22.8114 17.5515C22.7872 17.5418 22.8088 17.5466 22.83 17.5775L21.1819 18.7105ZM31.0067 20.104L30.3174 20.8286L30.3269 20.8374L31.0067 20.104ZM30.6147 12.46L29.6671 12.1403L29.6637 12.1507L30.6147 12.46ZM33.0787 8.456L32.3715 7.74889L33.0787 8.456ZM39.7707 7.476L39.0498 8.16911L39.0566 8.17618L39.0635 8.18311L39.7707 7.476ZM40.0787 10.836L40.8635 11.4556V11.4556L40.0787 10.836ZM38.0347 11.032L37.0949 10.6903L36.8265 11.4284L37.48 11.864L38.0347 11.032ZM38.1747 8.54L37.331 9.07687L38.1747 8.54ZM35.9067 9.604L36.7595 10.1262L35.9067 9.604ZM34.5347 12.936L35.4997 13.198L34.5347 12.936ZM34.4787 18.34L33.7516 19.0266L33.7614 19.037L33.7715 19.0471L34.4787 18.34ZM38.5947 18.116L38.055 17.2741L38.045 17.2806L38.5947 18.116ZM40.9747 15.988V14.988H40.5299L40.2321 15.3182L40.9747 15.988ZM41.9267 15.988L42.7841 16.5025L43.6928 14.988H41.9267V15.988ZM34.2267 20.168C33.0138 20.168 32.2136 19.8591 31.6864 19.3706L30.3269 20.8374C31.3304 21.7675 32.6768 22.168 34.2267 22.168V20.168ZM31.6959 19.3794C31.2039 18.9114 30.8587 18.097 30.8587 16.716H28.8587C28.8587 18.3964 29.2788 19.8406 30.3174 20.8286L31.6959 19.3794ZM30.8587 16.716C30.8587 15.5566 31.0859 14.244 31.5656 12.7693L29.6637 12.1507C29.1354 13.7747 28.8587 15.2994 28.8587 16.716H30.8587ZM31.5622 12.7796C32.0373 11.3714 32.7783 10.1706 33.7858 9.16311L32.3715 7.74889C31.1391 8.98138 30.2374 10.4499 29.6671 12.1403L31.5622 12.7796ZM33.7858 9.16311C34.7213 8.22755 35.897 7.748 37.3907 7.748V5.748C35.4123 5.748 33.7133 6.40711 32.3715 7.74889L33.7858 9.16311ZM37.3907 7.748C38.4104 7.748 38.8645 7.97633 39.0498 8.16911L40.4915 6.78289C39.7435 6.005 38.6109 5.748 37.3907 5.748V7.748ZM39.0635 8.18311C39.3439 8.46349 39.4987 8.81687 39.4987 9.324H41.4987C41.4987 8.3378 41.168 7.45917 40.4778 6.76889L39.0635 8.18311ZM39.4987 9.324C39.4987 9.84973 39.3842 10.1018 39.2938 10.2164L40.8635 11.4556C41.3331 10.8609 41.4987 10.1049 41.4987 9.324H39.4987ZM39.2938 10.2164C39.1919 10.3454 39.1198 10.368 39.0147 10.368V12.368C39.7682 12.368 40.4054 12.0359 40.8635 11.4556L39.2938 10.2164ZM39.0147 10.368C38.9423 10.368 38.8057 10.3442 38.5894 10.1999L37.48 11.864C37.9356 12.1678 38.4524 12.368 39.0147 12.368V10.368ZM38.9744 11.3737C39.2252 10.6841 39.3707 10.0148 39.3707 9.38H37.3707C37.3707 9.71587 37.2921 10.1479 37.0949 10.6903L38.9744 11.3737ZM39.3707 9.38C39.3707 8.91727 39.2877 8.42641 39.0183 8.00312L37.331 9.07687C37.323 9.06426 37.3707 9.13339 37.3707 9.38H39.3707ZM39.0183 8.00312C38.6884 7.48474 38.1597 7.232 37.5867 7.232V9.232C37.5849 9.232 37.5346 9.23096 37.4656 9.19483C37.3936 9.15709 37.3499 9.10657 37.331 9.07687L39.0183 8.00312ZM37.5867 7.232C36.4551 7.232 35.6358 8.1313 35.0538 9.08185L36.7595 10.1262C37.0064 9.7229 37.2176 9.48153 37.3792 9.34953C37.4569 9.28611 37.5124 9.25671 37.5447 9.24354C37.5744 9.23142 37.5864 9.232 37.5867 9.232V7.232ZM35.0538 9.08185C34.4332 10.0954 33.9429 11.2986 33.5696 12.674L35.4997 13.198C35.8357 11.9601 36.2601 10.9419 36.7595 10.1262L35.0538 9.08185ZM33.5696 12.674C33.1982 14.0424 33.0027 15.3086 33.0027 16.464H35.0027C35.0027 15.5287 35.1618 14.4429 35.4997 13.198L33.5696 12.674ZM33.0027 16.464C33.0027 17.4177 33.1522 18.392 33.7516 19.0266L35.2057 17.6534C35.1704 17.616 35.0027 17.3397 35.0027 16.464H33.0027ZM33.7715 19.0471C34.3605 19.636 35.1931 19.816 36.0187 19.816V17.816C35.4256 17.816 35.2315 17.6786 35.1858 17.6329L33.7715 19.0471ZM36.0187 19.816C37.1848 19.816 38.2432 19.5442 39.1443 18.9514L38.045 17.2806C37.5274 17.6211 36.8685 17.816 36.0187 17.816V19.816ZM39.1343 18.9579C39.964 18.426 40.8247 17.6473 41.7172 16.6578L40.2321 15.3182C39.4073 16.2327 38.6813 16.8726 38.055 17.2741L39.1343 18.9579ZM40.9747 16.988H41.9267V14.988H40.9747V16.988ZM41.0692 15.4735C39.1131 18.7336 36.8269 20.168 34.2267 20.168V22.168C37.7491 22.168 40.5962 20.1491 42.7841 16.5025L41.0692 15.4735ZM44.0768 4.844L44.7839 4.13689L44.0768 4.844ZM44.0768 1.708L44.7839 2.41511L44.7914 2.40758L44.7987 2.3999L44.0768 1.708ZM47.2127 1.708L46.4908 2.3999L46.5055 2.41527L46.5208 2.42999L47.2127 1.708ZM47.2127 4.844L46.5208 4.12201L46.5132 4.12937L46.5056 4.13689L47.2127 4.844ZM41.5568 20.328L40.8378 21.023L40.8437 21.0291L40.8496 21.0351L41.5568 20.328ZM40.9688 15.988L39.9904 15.7807L39.9882 15.7919L40.9688 15.988ZM42.8727 7V6H42.0624L41.8945 6.79276L42.8727 7ZM46.9048 7L47.8831 7.20717L48.1387 6H46.9048V7ZM44.8887 16.52L45.855 16.7777L45.8617 16.7526L45.8671 16.7272L44.8887 16.52ZM45.0288 18.228L44.3216 18.9351L44.3608 18.9743L44.4041 19.0089L45.0288 18.228ZM47.4367 17.78L48.1293 18.5014L48.1366 18.4943L48.1439 18.4871L47.4367 17.78ZM48.4448 15.988V14.988H47.6878L47.4823 15.7165L48.4448 15.988ZM49.6208 15.988L50.5668 16.3121L51.0204 14.988H49.6208V15.988ZM46.9608 20.104L47.5088 20.9405L47.5187 20.9338L46.9608 20.104ZM45.6447 4.488C45.2896 4.488 45.0226 4.37565 44.7839 4.13689L43.3696 5.55111C43.9896 6.17102 44.7679 6.488 45.6447 6.488V4.488ZM44.7839 4.13689C44.5451 3.89814 44.4328 3.63111 44.4328 3.276H42.4328C42.4328 4.15288 42.7497 4.9312 43.3696 5.55111L44.7839 4.13689ZM44.4328 3.276C44.4328 2.92089 44.5451 2.65386 44.7839 2.41511L43.3696 1.00089C42.7497 1.6208 42.4328 2.39911 42.4328 3.276H44.4328ZM44.7987 2.3999C45.041 2.14708 45.3036 2.036 45.6447 2.036V0.0359983C44.7539 0.0359983 43.9711 0.372914 43.3548 1.0161L44.7987 2.3999ZM45.6447 2.036C45.9859 2.036 46.2485 2.14708 46.4908 2.3999L47.9347 1.0161C47.3184 0.372914 46.5356 0.0359983 45.6447 0.0359983V2.036ZM46.5208 2.42999C46.7737 2.67227 46.8848 2.93485 46.8848 3.276H48.8848C48.8848 2.38515 48.5478 1.60239 47.9047 0.986012L46.5208 2.42999ZM46.8848 3.276C46.8848 3.61715 46.7737 3.87972 46.5208 4.12201L47.9047 5.56599C48.5478 4.94961 48.8848 4.16685 48.8848 3.276H46.8848ZM46.5056 4.13689C46.2669 4.37565 45.9999 4.488 45.6447 4.488V6.488C46.5216 6.488 47.2999 6.17102 47.9199 5.55111L46.5056 4.13689ZM43.7407 20.168C43.072 20.168 42.6111 19.9681 42.2639 19.6209L40.8496 21.0351C41.6224 21.8079 42.6175 22.168 43.7407 22.168V20.168ZM42.2757 19.633C41.9806 19.3276 41.7448 18.7822 41.7448 17.808H39.7448C39.7448 19.0738 40.0503 20.2084 40.8378 21.023L42.2757 19.633ZM41.7448 17.808C41.7448 17.4352 41.8059 16.9012 41.9493 16.1841L39.9882 15.7919C39.8329 16.5682 39.7448 17.2475 39.7448 17.808H41.7448ZM41.947 16.1952L43.851 7.20724L41.8945 6.79276L39.9905 15.7808L41.947 16.1952ZM42.8727 8H46.9048V6H42.8727V8ZM45.9264 6.79283L43.9104 16.3128L45.8671 16.7272L47.8831 7.20717L45.9264 6.79283ZM43.9225 16.2623C43.8234 16.6339 43.7767 17.0199 43.7767 17.416H45.7767C45.7767 17.1775 45.8047 16.9661 45.855 16.7777L43.9225 16.2623ZM43.7767 17.416C43.7767 17.9076 43.8829 18.4964 44.3216 18.9351L45.7359 17.5209C45.7868 17.5718 45.7979 17.6127 45.7948 17.6026C45.7903 17.5882 45.7767 17.5321 45.7767 17.416H43.7767ZM44.4041 19.0089C44.8564 19.3708 45.4346 19.452 45.9248 19.452V17.452C45.7758 17.452 45.684 17.438 45.6353 17.4259C45.5868 17.4137 45.6071 17.41 45.6534 17.4471L44.4041 19.0089ZM45.9248 19.452C46.7733 19.452 47.5151 19.091 48.1293 18.5014L46.7442 17.0586C46.4251 17.365 46.1589 17.452 45.9248 17.452V19.452ZM48.1439 18.4871C48.7482 17.8827 49.1623 17.1278 49.4072 16.2595L47.4823 15.7165C47.3165 16.3042 47.0586 16.7439 46.7296 17.0729L48.1439 18.4871ZM48.4448 16.988H49.6208V14.988H48.4448V16.988ZM48.6747 15.6639C48.0136 17.5937 47.2216 18.7236 46.4028 19.2742L47.5187 20.9338C48.8653 20.0284 49.8466 18.4143 50.5668 16.3121L48.6747 15.6639ZM46.4127 19.2675C45.4574 19.8935 44.5715 20.168 43.7407 20.168V22.168C45.038 22.168 46.2988 21.7332 47.5088 20.9405L46.4127 19.2675ZM56.0216 20.272L55.2591 20.919L55.2696 20.9314L55.2806 20.9435L56.0216 20.272ZM55.3776 16.688L56.3596 16.8769L56.3609 16.8701L55.3776 16.688ZM55.6576 15.232L54.6852 14.9986L54.6808 15.0172L54.677 15.0359L55.6576 15.232ZM55.8816 14.336L56.8431 14.6107L56.8505 14.585L56.8565 14.5588L55.8816 14.336ZM54.2016 10.164L54.9825 10.7887L54.9884 10.7813L54.9942 10.7737L54.2016 10.164ZM53.3056 12.012L52.3459 11.7311L52.3352 11.7676L52.3273 11.8048L53.3056 12.012ZM51.4016 21V22H52.2119L52.3799 21.2072L51.4016 21ZM47.3696 21L46.3913 20.7926L46.1354 22H47.3696V21ZM50.3376 7V6H49.5274L49.3593 6.79261L50.3376 7ZM54.3696 7L55.3479 7.20696L55.6033 6H54.3696V7ZM54.0616 8.456L53.0832 8.24904L52.3059 11.9239L54.8075 9.12201L54.0616 8.456ZM60.2496 11.872L61.2302 12.0681L61.2312 12.0629L60.2496 11.872ZM59.6896 14.28L60.6579 14.5299L60.6586 14.527L59.6896 14.28ZM59.2696 15.988L58.2958 15.7608L58.2929 15.773L58.2903 15.7854L59.2696 15.988ZM61.5656 17.864L62.3249 18.5148L62.3323 18.5061L62.3396 18.4972L61.5656 17.864ZM62.5736 15.988V14.988H61.8966L61.6451 15.6166L62.5736 15.988ZM63.7496 15.988L64.6974 16.3068L65.141 14.988H63.7496V15.988ZM61.3416 20.132L61.9521 20.924L61.9544 20.9222L61.3416 20.132ZM58.5416 20.168C57.5656 20.168 57.0466 19.9139 56.7626 19.6005L55.2806 20.9435C56.0792 21.8247 57.2403 22.168 58.5416 22.168V20.168ZM56.7841 19.625C56.4318 19.2098 56.2376 18.6907 56.2376 18.004H54.2376C54.2376 19.1093 54.5661 20.1022 55.2591 20.919L56.7841 19.625ZM56.2376 18.004C56.2376 17.6892 56.2753 17.3152 56.3596 16.8768L54.3956 16.4992C54.2932 17.0314 54.2376 17.5348 54.2376 18.004H56.2376ZM56.3609 16.8701C56.4534 16.3704 56.5458 15.8898 56.6382 15.4281L54.677 15.0359C54.5827 15.5076 54.4884 15.9976 54.3943 16.5059L56.3609 16.8701ZM56.63 15.4654C56.7434 14.9928 56.8129 14.7166 56.8431 14.6107L54.9201 14.0613C54.8757 14.2167 54.7958 14.5379 54.6852 14.9986L56.63 15.4654ZM56.8565 14.5588C57.0073 13.8987 57.1489 13.2476 57.2811 12.6057L55.3221 12.2023C55.193 12.8297 55.0545 13.4666 54.9067 14.1132L56.8565 14.5588ZM57.2811 12.6057C57.4178 11.9416 57.4976 11.3532 57.4976 10.864H55.4976C55.4976 11.1588 55.4468 11.5971 55.3221 12.2023L57.2811 12.6057ZM57.4976 10.864C57.4976 10.3008 57.4037 9.69962 57.0626 9.21632C56.6764 8.66923 56.0932 8.436 55.4896 8.436V10.436C55.5398 10.436 55.5357 10.4447 55.5036 10.4295C55.4663 10.4119 55.4395 10.385 55.4286 10.3697C55.4222 10.3606 55.4412 10.3835 55.4612 10.4683C55.4812 10.5533 55.4976 10.6816 55.4976 10.864H57.4976ZM55.4896 8.436C54.6142 8.436 53.9171 8.89374 53.409 9.55429L54.9942 10.7737C55.2328 10.4636 55.3944 10.436 55.4896 10.436V8.436ZM53.4207 9.5393C52.9436 10.1357 52.5949 10.8801 52.3459 11.7311L54.2653 12.2929C54.4643 11.6132 54.7129 11.1257 54.9825 10.7887L53.4207 9.5393ZM52.3273 11.8048L50.4233 20.7928L52.3799 21.2072L54.2839 12.2192L52.3273 11.8048ZM51.4016 20H47.3696V22H51.4016V20ZM48.3479 21.2074L51.3159 7.20739L49.3593 6.79261L46.3913 20.7926L48.3479 21.2074ZM50.3376 8H54.3696V6H50.3376V8ZM53.3912 6.79304L53.0832 8.24904L55.0399 8.66296L55.3479 7.20696L53.3912 6.79304ZM54.8075 9.12201C55.5766 8.26067 56.4079 7.888 57.3376 7.888V5.888C55.766 5.888 54.4133 6.56066 53.3157 7.78998L54.8075 9.12201ZM57.3376 7.888C58.1007 7.888 58.5907 8.09265 58.9233 8.40306L60.2879 6.94094C59.5005 6.20602 58.4785 5.888 57.3376 5.888V7.888ZM58.9233 8.40306C59.2117 8.67228 59.4456 9.15423 59.4456 10.052H61.4456C61.4456 8.82177 61.1195 7.71706 60.2879 6.94094L58.9233 8.40306ZM59.4456 10.052C59.4456 10.5151 59.3895 11.0564 59.268 11.6811L61.2312 12.0629C61.3711 11.3436 61.4456 10.6716 61.4456 10.052H59.4456ZM59.269 11.6759C59.1429 12.3062 58.9608 13.0908 58.7206 14.033L60.6586 14.527C60.9038 13.5652 61.0949 12.7444 61.2302 12.0681L59.269 11.6759ZM58.7213 14.0301C58.5701 14.616 58.4283 15.1929 58.2958 15.7608L60.2434 16.2152C60.3723 15.6631 60.5104 15.1013 60.6579 14.5299L58.7213 14.0301ZM58.2903 15.7854C58.1731 16.3521 58.1016 16.8585 58.1016 17.276H60.1016C60.1016 17.0588 60.1421 16.7065 60.2489 16.1906L58.2903 15.7854ZM58.1016 17.276C58.1016 17.7876 58.216 18.3328 58.5796 18.7772L60.1276 17.5108C60.1552 17.5446 60.1016 17.511 60.1016 17.276H58.1016ZM58.5796 18.7772C59.0221 19.3181 59.6766 19.452 60.2216 19.452V17.452C60.16 17.452 60.114 17.4481 60.0815 17.4433C60.0489 17.4386 60.0335 17.4335 60.031 17.4326C60.029 17.4319 60.041 17.4359 60.0609 17.4493C60.0816 17.4632 60.1053 17.4836 60.1276 17.5108L58.5796 18.7772ZM60.2216 19.452C61.0456 19.452 61.7814 19.1488 62.3249 18.5148L60.8063 17.2132C60.6778 17.3632 60.5176 17.452 60.2216 17.452V19.452ZM62.3396 18.4972C62.7699 17.9713 63.1509 17.2373 63.5021 16.3594L61.6451 15.6166C61.3243 16.4187 61.0333 16.9354 60.7916 17.2308L62.3396 18.4972ZM62.5736 16.988H63.7496V14.988H62.5736V16.988ZM62.8018 15.6692C62.1272 17.6746 61.4025 18.8193 60.7288 19.3418L61.9544 20.9222C63.11 20.026 63.9906 18.4081 64.6974 16.3068L62.8018 15.6692ZM60.7311 19.34C59.9799 19.919 59.2561 20.168 58.5416 20.168V22.168C59.7684 22.168 60.9113 21.7263 61.9521 20.924L60.7311 19.34ZM63.2703 20.076L62.5541 20.7739L63.2703 20.076ZM63.0183 12.32L62.0792 11.9764L62.0768 11.9829L63.0183 12.32ZM65.4823 8.456L66.1769 9.1754L66.1771 9.17519L65.4823 8.456ZM71.1103 7.252L71.6838 6.43277L71.1103 7.252ZM71.6703 8.484H70.6703L72.6494 8.68722L71.6703 8.484ZM71.9783 7V6H71.1646L70.9992 6.79678L71.9783 7ZM76.0103 7L76.9886 7.20717L77.2443 6H76.0103V7ZM73.9943 16.52L74.9605 16.7777L74.9672 16.7526L74.9726 16.7272L73.9943 16.52ZM74.1343 18.228L73.4272 18.9351L73.4664 18.9743L73.5096 19.0089L74.1343 18.228ZM75.6463 18.34L76.5771 18.7057L77.5299 16.2802L75.1991 17.4456L75.6463 18.34ZM74.4703 20.552L75.2103 21.2247L75.2177 21.2165L75.2249 21.2082L74.4703 20.552ZM70.9703 20.496L70.2632 21.2031L70.2773 21.2172L70.292 21.2308L70.9703 20.496ZM70.1023 18.564L71.0931 18.4289L70.732 15.7807L69.2661 18.0155L70.1023 18.564ZM69.1223 17.808L69.8142 18.53L69.8148 18.5294L69.1223 17.808ZM70.0743 15.988L71.0511 16.2024L71.0525 16.1958L70.0743 15.988ZM71.4183 9.66L72.3965 9.86775L72.4183 9.76502V9.66H71.4183ZM71.1383 8.96L70.3457 9.56971L70.3576 9.58519L70.3701 9.60018L71.1383 8.96ZM68.2543 9.912L69.0753 10.4831L69.0809 10.4748L68.2543 9.912ZM66.8543 13.048L67.8181 13.3149L67.8191 13.3111L66.8543 13.048ZM66.7423 18.06L66.0352 18.7671L66.0474 18.7793L66.06 18.7911L66.7423 18.06ZM65.9303 20.168C65.1219 20.168 64.498 19.9031 63.9865 19.3781L62.5541 20.7739C63.4613 21.7049 64.6107 22.168 65.9303 22.168V20.168ZM63.9865 19.3781C63.5349 18.9146 63.2063 18.0823 63.2063 16.66H61.2063C61.2063 18.3364 61.587 19.7814 62.5541 20.7739L63.9865 19.3781ZM63.2063 16.66C63.2063 15.4106 63.451 14.0782 63.9598 12.6571L62.0768 11.9829C61.503 13.5858 61.2063 15.1468 61.2063 16.66H63.2063ZM63.9574 12.6636C64.4698 11.2631 65.212 10.107 66.1769 9.1754L64.7877 7.7366C63.5873 8.89562 62.6868 10.3156 62.0792 11.9764L63.9574 12.6636ZM66.1771 9.17519C67.0947 8.28874 68.1532 7.86 69.4023 7.86V5.86C67.6274 5.86 66.0726 6.49526 64.7875 7.73681L66.1771 9.17519ZM69.4023 7.86C70.088 7.86 70.4113 7.98335 70.5368 8.07123L71.6838 6.43277C71.0627 5.99798 70.2473 5.86 69.4023 5.86V7.86ZM70.5368 8.07123C70.6166 8.12705 70.6423 8.16711 70.6506 8.18252C70.6578 8.19573 70.6703 8.22345 70.6703 8.288H72.6703C72.6703 7.50938 72.305 6.86765 71.6838 6.43277L70.5368 8.07123ZM70.6703 8.288V8.484H72.6703V8.288H70.6703ZM72.6494 8.68722L72.9574 7.20322L70.9992 6.79678L70.6912 8.28078L72.6494 8.68722ZM71.9783 8H76.0103V6H71.9783V8ZM75.032 6.79283L73.016 16.3128L74.9726 16.7272L76.9886 7.20717L75.032 6.79283ZM73.0281 16.2623C72.929 16.6339 72.8823 17.0199 72.8823 17.416H74.8823C74.8823 17.1775 74.9103 16.9661 74.9605 16.7777L73.0281 16.2623ZM72.8823 17.416C72.8823 17.9076 72.9885 18.4964 73.4272 18.9351L74.8414 17.5209C74.8923 17.5718 74.9035 17.6127 74.9004 17.6026C74.8959 17.5882 74.8823 17.5321 74.8823 17.416H72.8823ZM73.5096 19.0089C73.962 19.3708 74.5401 19.452 75.0303 19.452V17.452C74.8814 17.452 74.7896 17.438 74.7408 17.4259C74.6924 17.4137 74.7126 17.41 74.759 17.4471L73.5096 19.0089ZM75.0303 19.452C75.3679 19.452 75.7487 19.4068 76.0935 19.2344L75.1991 17.4456C75.2272 17.4315 75.2331 17.4344 75.2014 17.4401C75.1703 17.4458 75.1153 17.452 75.0303 17.452V19.452ZM74.7156 17.9743C74.3142 18.9961 73.9723 19.6007 73.7157 19.8958L75.2249 21.2082C75.715 20.6446 76.1571 19.7746 76.5771 18.7057L74.7156 17.9743ZM73.7304 19.8793C73.5962 20.0269 73.3573 20.168 72.8463 20.168V22.168C73.754 22.168 74.5977 21.8984 75.2103 21.2247L73.7304 19.8793ZM72.8463 20.168C72.2897 20.168 71.9201 20.0118 71.6486 19.7612L70.292 21.2308C70.9912 21.8762 71.8722 22.168 72.8463 22.168V20.168ZM71.6774 19.7889C71.4011 19.5126 71.1833 19.09 71.0931 18.4289L69.1115 18.6991C69.2453 19.6807 69.6061 20.5461 70.2632 21.2031L71.6774 19.7889ZM69.2661 18.0155C68.2571 19.554 67.1463 20.168 65.9303 20.168V22.168C67.9996 22.168 69.6702 21.046 70.9385 19.1125L69.2661 18.0155ZM67.7503 19.452C68.5506 19.452 69.2431 19.0773 69.8142 18.53L68.4304 17.086C68.1055 17.3974 67.8833 17.452 67.7503 17.452V19.452ZM69.8148 18.5294C70.4521 17.9176 70.8497 17.1198 71.0511 16.2024L69.0976 15.7736C68.9629 16.3869 68.7258 16.8024 68.4298 17.0866L69.8148 18.5294ZM71.0525 16.1958L72.3965 9.86775L70.4401 9.45224L69.0961 15.7802L71.0525 16.1958ZM72.4183 9.66C72.4183 9.13857 72.2115 8.68579 71.9065 8.31982L70.3701 9.60018C70.4068 9.64419 70.4178 9.66936 70.4198 9.67439C70.4209 9.67693 70.4202 9.67601 70.4195 9.67216C70.4187 9.66824 70.4183 9.66389 70.4183 9.66H72.4183ZM71.9309 8.35029C71.5036 7.79472 70.8774 7.596 70.2703 7.596V9.596C70.3655 9.596 70.3988 9.61096 70.3946 9.60919C70.3919 9.60807 70.3831 9.60386 70.3716 9.59511C70.3601 9.58627 70.3512 9.57691 70.3457 9.56971L71.9309 8.35029ZM70.2703 7.596C69.0665 7.596 68.1267 8.32259 67.4277 9.34921L69.0809 10.4748C69.5766 9.74675 69.9808 9.596 70.2703 9.596V7.596ZM67.4334 9.34093C66.7583 10.3114 66.2492 11.4663 65.8895 12.7849L67.8191 13.3111C68.1315 12.1657 68.5556 11.2299 69.0752 10.4831L67.4334 9.34093ZM65.8906 12.7811C65.5383 14.0533 65.3503 15.2193 65.3503 16.268H67.3503C67.3503 15.45 67.4983 14.4694 67.818 13.3149L65.8906 12.7811ZM65.3503 16.268C65.3503 16.7732 65.3849 17.2344 65.4714 17.6297C65.5536 18.0054 65.7072 18.4391 66.0352 18.7671L67.4494 17.3529C67.5161 17.4196 67.4737 17.4239 67.4252 17.2023C67.381 17.0003 67.3503 16.6962 67.3503 16.268H65.3503ZM66.06 18.7911C66.5299 19.2297 67.1116 19.452 67.7503 19.452V17.452C67.605 17.452 67.5147 17.413 67.4246 17.3289L66.06 18.7911ZM77.6566 19.852L78.389 19.1711L77.6566 19.852ZM77.1526 8.232L76.1941 7.94682L76.192 7.95413L77.1526 8.232ZM80.3446 2.436L79.6043 1.76375L79.6039 1.76418L80.3446 2.436ZM89.3326 0.924L88.7497 1.73654L89.3326 0.924ZM90.1446 5.656L90.9606 6.23402L90.9662 6.22621L90.9715 6.21831L90.1446 5.656ZM87.0646 5.6L86.6174 4.70557L85.5057 5.26142L86.2867 6.22834L87.0646 5.6ZM87.9326 1.792L87.1607 2.42771L87.1715 2.44085L87.1828 2.45362L87.9326 1.792ZM83.8166 3.36L84.6487 3.91471L84.6522 3.9094L83.8166 3.36ZM81.6326 8.456L80.6678 8.19287L80.6657 8.20107L81.6326 8.456ZM81.5486 17.64L80.7102 18.185L81.5486 17.64ZM87.2326 18.032L87.694 18.9192L87.2326 18.032ZM89.6406 15.96L90.0394 15.0429L89.3147 14.7279L88.8406 15.36L89.6406 15.96ZM90.2846 16.24L91.2141 16.6088L91.5712 15.709L90.6833 15.3229L90.2846 16.24ZM88.2126 19.18L88.8634 19.9393L88.2126 19.18ZM85.2726 20.916L85.5939 21.863L85.6015 21.8604L85.609 21.8577L85.2726 20.916ZM82.3046 20.448C80.346 20.448 79.1171 19.9542 78.389 19.1711L76.9243 20.5329C78.1748 21.8778 80.0446 22.448 82.3046 22.448V20.448ZM78.389 19.1711C77.6575 18.3844 77.1726 16.9346 77.1726 14.56H75.1726C75.1726 17.1134 75.6771 19.1916 76.9243 20.5329L78.389 19.1711ZM77.1726 14.56C77.1726 12.7105 77.481 10.6956 78.1132 8.50986L76.192 7.95413C75.5176 10.2857 75.1726 12.4895 75.1726 14.56H77.1726ZM78.1111 8.51717C78.7442 6.38933 79.7385 4.59276 81.0853 3.10781L79.6039 1.76418C78.0387 3.48991 76.9051 5.55734 76.1941 7.94683L78.1111 8.51717ZM81.085 3.10825C82.3638 1.69991 83.9584 0.999998 85.9446 0.999998V-1C83.4135 -1 81.2748 -0.075911 79.6043 1.76375L81.085 3.10825ZM85.9446 0.999998C87.2028 0.999998 88.1085 1.27652 88.7497 1.73654L89.9155 0.111462C88.8394 -0.660525 87.4865 -1 85.9446 -1V0.999998ZM88.7497 1.73654C89.2921 2.12564 89.6206 2.73146 89.6206 3.752H91.6206C91.6206 2.23387 91.0905 0.954355 89.9155 0.111462L88.7497 1.73654ZM89.6206 3.752C89.6206 4.43538 89.4839 4.84929 89.3177 5.09369L90.9715 6.21831C91.44 5.52937 91.6206 4.67395 91.6206 3.752H89.6206ZM89.3286 5.07798C89.2416 5.20079 89.0903 5.328 88.6606 5.328V7.328C89.575 7.328 90.413 7.0072 90.9606 6.23402L89.3286 5.07798ZM88.6606 5.328C88.2641 5.328 88.0285 5.20193 87.8426 4.97166L86.2867 6.22834C86.8847 6.96874 87.7132 7.328 88.6606 7.328V5.328ZM87.5118 6.49443C88.1113 6.1947 88.5367 5.65335 88.8484 5.05232L87.0729 4.13168C86.8619 4.53865 86.69 4.6693 86.6174 4.70557L87.5118 6.49443ZM88.8484 5.05232C89.1798 4.41324 89.3526 3.73342 89.3526 3.024H87.3526C87.3526 3.39725 87.2642 3.76276 87.0729 4.13168L88.8484 5.05232ZM89.3526 3.024C89.3526 2.32533 89.1534 1.66407 88.6825 1.13038L87.1828 2.45362C87.2719 2.55459 87.3526 2.71467 87.3526 3.024H89.3526ZM88.7046 1.15629C88.1794 0.518583 87.401 0.316 86.6446 0.316V2.316C86.8592 2.316 86.9924 2.34505 87.068 2.37299C87.1359 2.3981 87.1549 2.42071 87.1607 2.42771L88.7046 1.15629ZM86.6446 0.316C85.1446 0.316 83.9398 1.35255 82.9811 2.81059L84.6522 3.9094C85.4855 2.64211 86.166 2.316 86.6446 2.316V0.316ZM82.9846 2.8053C82.0134 4.26201 81.2477 6.06681 80.6679 8.19288L82.5974 8.71912C83.1376 6.73852 83.8278 5.14599 84.6487 3.9147L82.9846 2.8053ZM80.6657 8.20107C80.1049 10.3282 79.8206 12.3927 79.8206 14.392H81.8206C81.8206 12.5833 82.0777 10.6905 82.5996 8.71093L80.6657 8.20107ZM79.8206 14.392C79.8206 15.8993 80.074 17.2062 80.7102 18.185L82.3871 17.095C82.0526 16.5804 81.8206 15.722 81.8206 14.392H79.8206ZM80.7102 18.185C81.4515 19.3254 82.7291 19.76 84.1806 19.76V17.76C83.0935 17.76 82.6165 17.4479 82.3871 17.095L80.7102 18.185ZM84.1806 19.76C85.4348 19.76 86.6114 19.4822 87.694 18.9192L86.7713 17.1448C85.9872 17.5525 85.1291 17.76 84.1806 17.76V19.76ZM87.694 18.9192C88.7688 18.3603 89.6846 17.568 90.4406 16.56L88.8406 15.36C88.2526 16.144 87.5631 16.733 86.7713 17.1448L87.694 18.9192ZM89.2419 16.8771L89.8859 17.1571L90.6833 15.3229L90.0394 15.0429L89.2419 16.8771ZM89.3551 15.8712C88.9452 16.9042 88.3471 17.7477 87.5618 18.4207L88.8634 19.9393C89.9075 19.0443 90.6907 17.9278 91.2141 16.6088L89.3551 15.8712ZM87.5618 18.4207C86.732 19.132 85.8571 19.6454 84.9363 19.9743L85.609 21.8577C86.7788 21.4399 87.8639 20.796 88.8634 19.9393L87.5618 18.4207ZM84.9513 19.969C83.9911 20.2948 83.1108 20.448 82.3046 20.448V22.448C83.3651 22.448 84.4635 22.2465 85.5939 21.863L84.9513 19.969ZM90.3706 20.048L89.7084 20.7973L90.3706 20.048ZM89.9506 12.46L90.8981 12.7796L89.9506 12.46ZM92.4706 8.456L93.166 9.17463L93.1719 9.16883L92.4706 8.456ZM100.423 11.256H99.4226V11.9768L100.106 12.2047L100.423 11.256ZM102.859 10.808L103.226 11.738L103.236 11.7343L103.245 11.7304L102.859 10.808ZM105.043 9.604L105.991 9.28777L105.563 8.00329L104.461 8.79027L105.043 9.604ZM105.295 10.36L106.025 11.0432L106.432 10.6085L106.243 10.0438L105.295 10.36ZM103.167 11.844L103.582 12.7537L103.591 12.7497L103.167 11.844ZM100.339 12.684L100.177 11.6971L99.4105 11.8226L99.3424 12.5964L100.339 12.684ZM99.1906 17.136L98.2909 16.6994L99.1906 17.136ZM96.8106 20.076L96.2308 19.2612H96.2308L96.8106 20.076ZM96.1106 17.836L96.858 18.5004L96.864 18.4936L96.8699 18.4868L96.1106 17.836ZM97.2866 15.736L98.2205 16.0937L98.2229 16.0871L97.2866 15.736ZM98.0146 12.768L99.0052 12.9046L99.1311 11.9917L98.2315 11.7918L98.0146 12.768ZM98.1266 10.08L98.5133 11.0022L99.1677 10.7278L99.1248 10.0195L98.1266 10.08ZM97.8466 8.82L96.9949 9.3441L97.0045 9.35958L97.0145 9.3747L97.8466 8.82ZM95.2706 9.8L96.1106 10.3425L95.2706 9.8ZM93.8706 13.02L94.8327 13.2928L93.8706 13.02ZM93.6466 18.144L92.807 18.6873L92.8146 18.699L92.8226 18.7105L93.6466 18.144ZM93.6466 20.112C92.4367 20.112 91.6048 19.8042 91.0328 19.2987L89.7084 20.7973C90.7417 21.7105 92.0938 22.112 93.6466 22.112V20.112ZM91.0328 19.2987C90.5242 18.8492 90.1666 18.0583 90.1666 16.688H88.1666C88.1666 18.379 88.6116 19.8281 89.7084 20.7973L91.0328 19.2987ZM90.1666 16.688C90.1666 15.5535 90.4007 14.2541 90.8981 12.7796L89.0031 12.1403C88.4551 13.7645 88.1666 15.2838 88.1666 16.688H90.1666ZM90.8981 12.7796C91.3706 11.3791 92.1252 10.1819 93.166 9.1746L91.7752 7.7374C90.5014 8.97011 89.5759 10.4422 89.0031 12.1403L90.8981 12.7796ZM93.1719 9.16883C94.1262 8.22994 95.323 7.748 96.8386 7.748V5.748C94.8449 5.748 93.1296 6.40473 91.7693 7.74317L93.1719 9.16883ZM96.8386 7.748C97.8126 7.748 98.3846 8.04131 98.7457 8.49269C99.1409 8.98669 99.4226 9.84151 99.4226 11.228H101.423C101.423 9.62782 101.107 8.24264 100.307 7.24331C99.4739 6.20136 98.254 5.748 96.8386 5.748V7.748ZM99.4226 11.228V11.256H101.423V11.228H99.4226ZM100.106 12.2047C100.335 12.2808 100.589 12.284 100.731 12.284V10.284C100.703 10.284 100.682 10.2836 100.664 10.2829C100.647 10.2823 100.637 10.2815 100.632 10.2811C100.63 10.2809 100.63 10.2809 100.632 10.2812C100.635 10.2815 100.64 10.2821 100.647 10.2835C100.655 10.2848 100.666 10.287 100.68 10.2905C100.695 10.2939 100.715 10.2993 100.739 10.3073L100.106 12.2047ZM100.731 12.284C101.512 12.284 102.35 12.0844 103.226 11.738L102.491 9.87804C101.762 10.1663 101.181 10.284 100.731 10.284V12.284ZM103.245 11.7304C104.111 11.368 104.905 10.9313 105.624 10.4177L104.461 8.79027C103.874 9.21007 103.212 9.57601 102.472 9.88556L103.245 11.7304ZM104.094 9.92023L104.346 10.6762L106.243 10.0438L105.991 9.28777L104.094 9.92023ZM104.564 9.67684C104.127 10.1443 103.53 10.57 102.743 10.9383L103.591 12.7497C104.558 12.2967 105.38 11.733 106.025 11.0432L104.564 9.67684ZM102.751 10.9343C101.981 11.2859 101.125 11.542 100.177 11.6971L100.5 13.6709C101.606 13.49 102.635 13.1861 103.582 12.7537L102.751 10.9343ZM99.3424 12.5964C99.2016 14.1984 98.844 15.5598 98.2909 16.6994L100.09 17.5726C100.769 16.1736 101.177 14.5669 101.335 12.7716L99.3424 12.5964ZM98.2909 16.6994C97.7347 17.8457 97.0417 18.6843 96.2308 19.2612L97.3904 20.8908C98.5208 20.0864 99.4145 18.965 100.09 17.5726L98.2909 16.6994ZM96.2308 19.2612C95.4212 19.8373 94.5675 20.112 93.6466 20.112V22.112C95.0031 22.112 96.2587 21.696 97.3904 20.8908L96.2308 19.2612ZM94.7666 19.592C95.6188 19.592 96.3166 19.1094 96.858 18.5004L95.3632 17.1716C95.0086 17.5706 94.8104 17.592 94.7666 17.592V19.592ZM96.8699 18.4868C97.4141 17.8518 97.8574 17.0416 98.2205 16.0936L96.3527 15.3784C96.0438 16.185 95.7031 16.7748 95.3513 17.1852L96.8699 18.4868ZM98.2229 16.0871C98.5883 15.1129 98.8472 14.0504 99.0052 12.9046L97.024 12.6314C96.8833 13.6509 96.6569 14.5671 96.3503 15.3849L98.2229 16.0871ZM98.2315 11.7918C98.2097 11.787 98.2173 11.7853 98.2385 11.7994C98.2616 11.8148 98.2793 11.8345 98.2888 11.8492C98.2966 11.8614 98.2888 11.8545 98.2789 11.813C98.2688 11.7704 98.2586 11.6993 98.2586 11.592H96.2586C96.2586 12.0393 96.3404 12.517 96.6064 12.9308C96.891 13.3734 97.3187 13.6378 97.7977 13.7442L98.2315 11.7918ZM98.2586 11.592C98.2586 11.3303 98.3085 11.1977 98.3428 11.1379C98.3693 11.0917 98.4092 11.0458 98.5133 11.0022L97.7399 9.1578C97.2653 9.35682 96.8712 9.68426 96.6083 10.1421C96.3534 10.5863 96.2586 11.0884 96.2586 11.592H98.2586ZM99.1248 10.0195C99.1041 9.67942 99.0666 9.36436 99.0048 9.08607C98.9454 8.81898 98.8504 8.52294 98.6786 8.2653L97.0145 9.3747C96.9921 9.34106 97.0184 9.36702 97.0524 9.51993C97.0839 9.66164 97.1117 9.86458 97.1284 10.1405L99.1248 10.0195ZM98.6982 8.2959C98.311 7.66667 97.6612 7.456 97.0626 7.456V9.456C97.1451 9.456 97.1517 9.46989 97.1175 9.45401C97.0992 9.44554 97.0751 9.43111 97.0503 9.4091C97.0254 9.38702 97.007 9.36378 96.9949 9.3441L98.6982 8.2959ZM97.0626 7.456C95.9172 7.456 95.0587 8.28484 94.4306 9.25747L96.1106 10.3425C96.6398 9.52316 96.976 9.456 97.0626 9.456V7.456ZM94.4306 9.25747C93.7878 10.2527 93.2846 11.4211 92.9085 12.7472L94.8327 13.2928C95.1659 12.1175 95.5961 11.1393 96.1106 10.3425L94.4306 9.25747ZM92.9085 12.7472C92.5372 14.0566 92.3386 15.2531 92.3386 16.324H94.3386C94.3386 15.4909 94.4947 14.4847 94.8327 13.2928L92.9085 12.7472ZM92.3386 16.324C92.3386 16.8051 92.3658 17.2407 92.4296 17.6179C92.4911 17.9814 92.5984 18.3649 92.807 18.6873L94.4862 17.6007C94.4894 17.6058 94.4427 17.5273 94.4016 17.2841C94.3627 17.0546 94.3386 16.7389 94.3386 16.324H92.3386ZM92.8226 18.7105C93.2941 19.3964 94.0674 19.592 94.7666 19.592V17.592C94.5817 17.592 94.4874 17.5657 94.452 17.5515C94.4278 17.5418 94.4494 17.5466 94.4706 17.5775L92.8226 18.7105ZM109.339 20.272L110.139 19.672L109.339 20.272ZM108.807 16.688L109.789 16.8769L109.791 16.8701L108.807 16.688ZM109.087 15.232L108.115 14.9986L108.11 15.0172L108.107 15.0359L109.087 15.232ZM109.311 14.336L110.273 14.6107L110.28 14.585L110.286 14.5588L109.311 14.336ZM107.631 10.164L108.412 10.7887L108.418 10.7813L108.424 10.7737L107.631 10.164ZM106.735 12.012L105.776 11.7311L105.765 11.7676L105.757 11.8048L106.735 12.012ZM104.831 21V22H105.642L105.81 21.2072L104.831 21ZM100.799 21L99.821 20.7926L99.5651 22H100.799V21ZM103.767 7V6H102.957L102.789 6.79261L103.767 7ZM107.799 7L108.778 7.20696L109.033 6H107.799V7ZM107.491 8.456L106.513 8.24904L105.736 11.9239L108.237 9.12201L107.491 8.456ZM113.679 11.872L114.66 12.0681L114.661 12.0629L113.679 11.872ZM113.119 14.28L114.088 14.5299L114.088 14.527L113.119 14.28ZM112.699 15.988L111.725 15.7608L111.723 15.773L111.72 15.7854L112.699 15.988ZM114.575 18.284L115.568 18.4008L115.821 16.2515L114.021 17.452L114.575 18.284ZM113.539 20.44L112.897 19.6738L112.89 19.679L112.884 19.6843L113.539 20.44ZM111.495 20.168C110.71 20.168 110.34 19.9402 110.139 19.672L108.539 20.872C109.234 21.7985 110.302 22.168 111.495 22.168V20.168ZM110.139 19.672C109.848 19.2837 109.667 18.752 109.667 18.004H107.667C107.667 19.0853 107.934 20.0656 108.539 20.872L110.139 19.672ZM109.667 18.004C109.667 17.6892 109.705 17.3152 109.789 16.8768L107.825 16.4992C107.723 17.0314 107.667 17.5348 107.667 18.004H109.667ZM109.791 16.8701C109.883 16.3704 109.976 15.8898 110.068 15.4281L108.107 15.0359C108.012 15.5076 107.918 15.9976 107.824 16.5059L109.791 16.8701ZM110.06 15.4654C110.173 14.9928 110.243 14.7166 110.273 14.6107L108.35 14.0613C108.305 14.2167 108.225 14.5379 108.115 14.9986L110.06 15.4654ZM110.286 14.5588C110.437 13.8987 110.579 13.2476 110.711 12.6057L108.752 12.2023C108.623 12.8297 108.484 13.4666 108.336 14.1132L110.286 14.5588ZM110.711 12.6057C110.847 11.9416 110.927 11.3532 110.927 10.864H108.927C108.927 11.1588 108.876 11.5971 108.752 12.2023L110.711 12.6057ZM110.927 10.864C110.927 10.3008 110.833 9.69962 110.492 9.21632C110.106 8.66923 109.523 8.436 108.919 8.436V10.436C108.97 10.436 108.965 10.4447 108.933 10.4295C108.896 10.4119 108.869 10.385 108.858 10.3697C108.852 10.3606 108.871 10.3835 108.891 10.4683C108.911 10.5533 108.927 10.6816 108.927 10.864H110.927ZM108.919 8.436C108.044 8.436 107.347 8.89374 106.839 9.55429L108.424 10.7737C108.662 10.4636 108.824 10.436 108.919 10.436V8.436ZM106.85 9.5393C106.373 10.1357 106.025 10.8801 105.776 11.7311L107.695 12.2929C107.894 11.6132 108.143 11.1257 108.412 10.7887L106.85 9.5393ZM105.757 11.8048L103.853 20.7928L105.81 21.2072L107.714 12.2192L105.757 11.8048ZM104.831 20H100.799V22H104.831V20ZM101.778 21.2074L104.746 7.20739L102.789 6.79261L99.821 20.7926L101.778 21.2074ZM103.767 8H107.799V6H103.767V8ZM106.821 6.79304L106.513 8.24904L108.47 8.66296L108.778 7.20696L106.821 6.79304ZM108.237 9.12201C109.006 8.26067 109.838 7.888 110.767 7.888V5.888C109.196 5.888 107.843 6.56066 106.745 7.78998L108.237 9.12201ZM110.767 7.888C111.53 7.888 112.02 8.09265 112.353 8.40306L113.718 6.94094C112.93 6.20602 111.908 5.888 110.767 5.888V7.888ZM112.353 8.40306C112.641 8.67228 112.875 9.15423 112.875 10.052H114.875C114.875 8.82177 114.549 7.71706 113.718 6.94094L112.353 8.40306ZM112.875 10.052C112.875 10.5151 112.819 11.0564 112.698 11.6811L114.661 12.0629C114.801 11.3436 114.875 10.6716 114.875 10.052H112.875ZM112.699 11.6759C112.573 12.3062 112.39 13.0908 112.15 14.033L114.088 14.527C114.333 13.5652 114.525 12.7444 114.66 12.0681L112.699 11.6759ZM112.151 14.0301C112 14.616 111.858 15.1929 111.725 15.7608L113.673 16.2152C113.802 15.6631 113.94 15.1013 114.088 14.5299L112.151 14.0301ZM111.72 15.7854C111.603 16.3521 111.531 16.8585 111.531 17.276H113.531C113.531 17.0588 113.572 16.7065 113.679 16.1906L111.72 15.7854ZM111.531 17.276C111.531 17.7876 111.646 18.3328 112.009 18.7772L113.557 17.5108C113.585 17.5446 113.531 17.511 113.531 17.276H111.531ZM112.009 18.7772C112.452 19.3181 113.106 19.452 113.651 19.452V17.452C113.59 17.452 113.544 17.4481 113.511 17.4433C113.479 17.4386 113.463 17.4335 113.461 17.4326C113.459 17.4319 113.471 17.4359 113.491 17.4493C113.511 17.4632 113.535 17.4836 113.557 17.5108L112.009 18.7772ZM113.651 19.452C113.912 19.452 114.165 19.4361 114.397 19.3939C114.619 19.3535 114.887 19.2778 115.13 19.1161L114.021 17.452C114.062 17.4241 114.09 17.4146 114.09 17.4145C114.091 17.4142 114.076 17.4195 114.039 17.4261C113.964 17.4399 113.839 17.452 113.651 17.452V19.452ZM113.582 18.1672C113.492 18.9369 113.231 19.3931 112.897 19.6738L114.182 21.2062C115.005 20.5162 115.435 19.5351 115.568 18.4008L113.582 18.1672ZM112.884 19.6843C112.522 19.9985 112.079 20.168 111.495 20.168V22.168C112.517 22.168 113.437 21.8522 114.194 21.1957L112.884 19.6843ZM116.118 25.704L116.825 24.9969L116.118 25.704ZM115.978 20.216L115.207 19.5796L115.978 20.216ZM120.43 19.46L119.996 20.361L120.016 20.3705L120.036 20.3791L120.43 19.46ZM121.046 22.092L120.406 22.8602L121.601 23.8565L122.011 22.3551L121.046 22.092ZM120.178 21.504L120.597 20.596L120.568 20.5824L120.537 20.5707L120.178 21.504ZM117.91 21.98L117.153 21.3264L117.145 21.3365L117.136 21.3468L117.91 21.98ZM117.994 24.892L118.645 24.1327L118.634 24.1236L118.623 24.1148L117.994 24.892ZM120.43 25.116L119.962 24.2322L119.931 24.249L119.9 24.268L120.43 25.116ZM121.27 24.108L120.376 23.6608L120.372 23.6675L120.369 23.6742L121.27 24.108ZM121.97 21.952L122.944 22.181L122.945 22.1739L122.947 22.1668L121.97 21.952ZM126.366 1.96L127.343 2.17476L127.75 0.324302L125.992 1.03248L126.366 1.96ZM123.454 4.284L124.288 4.83526V4.83526L123.454 4.284ZM122.614 9.548L121.708 9.97088L121.714 9.98313L121.72 9.99521L122.614 9.548ZM122.81 9.996V10.996H123.81V9.996H122.81ZM120.542 9.38L119.88 10.129L119.895 10.1424L119.91 10.1552L120.542 9.38ZM121.27 3.808L120.515 3.15213L120.514 3.15307L121.27 3.808ZM125.05 1.064L125.461 1.97555L125.471 1.97131L125.05 1.064ZM130.762 -1.90735e-06L131.741 0.206703L131.995 -1H130.762V-1.90735e-06ZM126.562 19.88L127.541 20.0868L127.541 20.0867L126.562 19.88ZM124.154 25.06L123.436 24.3646L124.154 25.06ZM119.198 25.796C118.058 25.796 117.316 25.4877 116.825 24.9969L115.411 26.4111C116.376 27.3763 117.687 27.796 119.198 27.796V25.796ZM116.825 24.9969C116.339 24.5103 116.054 23.8318 116.054 22.848H114.054C114.054 24.2536 114.479 25.479 115.411 26.4111L116.825 24.9969ZM116.054 22.848C116.054 22.0618 116.288 21.412 116.749 20.8524L115.207 19.5796C114.436 20.5133 114.054 21.6182 114.054 22.848H116.054ZM116.749 20.8524C117.159 20.3562 117.696 20.096 118.47 20.096V18.096C117.153 18.096 116.029 18.5825 115.207 19.5796L116.749 20.8524ZM118.47 20.096C119.183 20.096 119.673 20.2055 119.996 20.361L120.864 18.559C120.179 18.2292 119.362 18.096 118.47 18.096V20.096ZM120.036 20.3791C120.085 20.4001 120.106 20.4202 120.13 20.4663C120.165 20.5324 120.214 20.6824 120.214 20.972H122.214C122.214 19.968 121.855 18.9829 120.824 18.5409L120.036 20.3791ZM120.214 20.972C120.214 21.1992 120.176 21.4823 120.081 21.8289L122.011 22.3551C122.14 21.8804 122.214 21.4168 122.214 20.972H120.214ZM121.686 21.3238C121.32 21.0184 120.954 20.7605 120.597 20.596L119.759 22.412C119.888 22.4715 120.1 22.6056 120.406 22.8602L121.686 21.3238ZM120.537 20.5707C120.164 20.4272 119.769 20.364 119.366 20.364V22.364C119.56 22.364 119.707 22.3941 119.819 22.4373L120.537 20.5707ZM119.366 20.364C118.503 20.364 117.725 20.6646 117.153 21.3264L118.667 22.6336C118.805 22.474 118.997 22.364 119.366 22.364V20.364ZM117.136 21.3468C116.645 21.9465 116.406 22.659 116.406 23.436H118.406C118.406 23.093 118.503 22.8348 118.684 22.6132L117.136 21.3468ZM116.406 23.436C116.406 24.2947 116.673 25.1087 117.365 25.6692L118.623 24.1148C118.532 24.0406 118.406 23.8839 118.406 23.436H116.406ZM117.343 25.6513C117.904 26.1319 118.57 26.396 119.31 26.396V24.396C119.08 24.396 118.868 24.3241 118.645 24.1327L117.343 25.6513ZM119.31 26.396C119.895 26.396 120.465 26.2737 120.96 25.964L119.9 24.268C119.798 24.3316 119.621 24.396 119.31 24.396V26.396ZM120.898 25.9998C121.483 25.69 121.884 25.1379 122.171 24.5418L120.369 23.6742C120.171 24.0861 120.012 24.206 119.962 24.2322L120.898 25.9998ZM122.165 24.5552C122.459 23.9661 122.714 23.1587 122.944 22.181L120.997 21.723C120.779 22.6493 120.566 23.2793 120.376 23.6608L122.165 24.5552ZM122.947 22.1668L127.343 2.17476L125.389 1.74524L120.993 21.7372L122.947 22.1668ZM125.992 1.03248C124.569 1.60621 123.431 2.50511 122.62 3.73274L124.288 4.83526C124.859 3.97223 125.662 3.32178 126.74 2.88752L125.992 1.03248ZM122.62 3.73274C121.802 4.97084 121.418 6.44087 121.418 8.092H123.418C123.418 6.75646 123.725 5.68783 124.288 4.83526L122.62 3.73274ZM121.418 8.092C121.418 8.79155 121.476 9.47392 121.708 9.97088L123.52 9.12511C123.52 9.12549 123.518 9.11999 123.513 9.10718C123.509 9.09445 123.503 9.07614 123.497 9.05141C123.484 9.00117 123.47 8.93203 123.458 8.84059C123.433 8.65596 123.418 8.40925 123.418 8.092H121.418ZM121.72 9.99521C121.75 10.0565 121.776 10.1092 121.797 10.1537C121.819 10.1987 121.834 10.2326 121.845 10.2568C121.85 10.2688 121.854 10.2767 121.855 10.2812C121.857 10.2861 121.856 10.2844 121.854 10.2773C121.852 10.2722 121.845 10.251 121.837 10.2193C121.833 10.2029 121.827 10.1772 121.822 10.1448C121.819 10.1282 121.816 10.1076 121.814 10.0839C121.812 10.0604 121.81 10.0306 121.81 9.996H123.81C123.81 9.79399 123.745 9.62637 123.742 9.61665C123.722 9.55923 123.698 9.50292 123.677 9.45518C123.634 9.35724 123.577 9.23682 123.509 9.10079L121.72 9.99521ZM122.81 8.996C121.912 8.996 121.424 8.80898 121.174 8.60476L119.91 10.1552C120.668 10.7724 121.692 10.996 122.81 10.996V8.996ZM121.205 8.631C121.022 8.46953 120.814 8.10802 120.814 7.28H118.814C118.814 8.39331 119.091 9.4318 119.88 10.129L121.205 8.631ZM120.814 7.28C120.814 6.37982 121.173 5.44647 122.026 4.46293L120.514 3.15307C119.426 4.40953 118.814 5.79084 118.814 7.28H120.814ZM122.025 4.46387C122.909 3.44601 124.047 2.61354 125.461 1.9755L124.639 0.152494C122.992 0.895789 121.61 1.89266 120.515 3.15213L122.025 4.46387ZM125.471 1.97131C126.883 1.31674 128.271 0.999998 129.642 0.999998V-1C127.952 -1 126.278 -0.607406 124.63 0.156689L125.471 1.97131ZM129.642 0.999998H130.762V-1H129.642V0.999998ZM129.784 -0.206707L125.584 19.6733L127.541 20.0867L131.741 0.206703L129.784 -0.206707ZM125.584 19.6732C125.121 21.8645 124.378 23.3908 123.436 24.3646L124.873 25.7554C126.17 24.4145 127.033 22.4875 127.541 20.0868L125.584 19.6732ZM123.436 24.3646C122.563 25.2657 121.211 25.796 119.198 25.796V27.796C121.553 27.796 123.505 27.1689 124.873 25.7554L123.436 24.3646ZM130.29 20.076L129.574 20.7739L130.29 20.076ZM130.038 12.32L129.099 11.9764L129.096 11.9829L130.038 12.32ZM132.502 8.456L133.196 9.1754L133.197 9.17519L132.502 8.456ZM138.13 7.252L138.703 6.43277L138.13 7.252ZM138.69 8.484H137.69L139.669 8.68722L138.69 8.484ZM138.998 7V6H138.184L138.019 6.79678L138.998 7ZM143.03 7L144.008 7.20717L144.264 6H143.03V7ZM141.014 16.52L141.98 16.7777L141.987 16.7526L141.992 16.7272L141.014 16.52ZM143.394 17.892L142.616 17.2637L142.608 17.2729L142.601 17.2823L143.394 17.892ZM144.318 15.988V14.988H143.564L143.356 15.7133L144.318 15.988ZM145.494 15.988L146.44 16.3121L146.893 14.988H145.494V15.988ZM142.918 20.104L143.493 20.9218L143.496 20.9197L142.918 20.104ZM137.962 20.524L137.269 21.2454L137.284 21.2595L137.299 21.273L137.962 20.524ZM137.122 18.592L138.116 18.4816L137.825 15.866L136.305 18.0145L137.122 18.592ZM135.302 20.468L135.883 21.2817L135.887 21.2787L135.302 20.468ZM136.142 17.808L136.834 18.53L136.834 18.5294L136.142 17.808ZM137.094 15.988L138.071 16.2024L138.072 16.1958L137.094 15.988ZM138.438 9.66L139.416 9.86775L139.438 9.76502V9.66H138.438ZM138.158 8.96L137.365 9.56971L137.377 9.58519L137.39 9.60018L138.158 8.96ZM135.274 9.912L136.095 10.4831L136.1 10.4748L135.274 9.912ZM133.874 13.048L134.838 13.3149L134.839 13.3111L133.874 13.048ZM133.762 18.06L133.055 18.7671L133.067 18.7793L133.08 18.7911L133.762 18.06ZM132.95 20.168C132.141 20.168 131.518 19.9031 131.006 19.3781L129.574 20.7739C130.481 21.7049 131.63 22.168 132.95 22.168V20.168ZM131.006 19.3781C130.554 18.9146 130.226 18.0823 130.226 16.66H128.226C128.226 18.3364 128.607 19.7814 129.574 20.7739L131.006 19.3781ZM130.226 16.66C130.226 15.4106 130.471 14.0782 130.979 12.6571L129.096 11.9829C128.522 13.5858 128.226 15.1468 128.226 16.66H130.226ZM130.977 12.6636C131.489 11.2631 132.232 10.107 133.196 9.1754L131.807 7.7366C130.607 8.89562 129.706 10.3156 129.099 11.9764L130.977 12.6636ZM133.197 9.17519C134.114 8.28874 135.173 7.86 136.422 7.86V5.86C134.647 5.86 133.092 6.49526 131.807 7.73681L133.197 9.17519ZM136.422 7.86C137.107 7.86 137.431 7.98335 137.556 8.07123L138.703 6.43277C138.082 5.99798 137.267 5.86 136.422 5.86V7.86ZM137.556 8.07123C137.636 8.12705 137.662 8.16711 137.67 8.18252C137.677 8.19573 137.69 8.22345 137.69 8.288H139.69C139.69 7.50938 139.325 6.86765 138.703 6.43277L137.556 8.07123ZM137.69 8.288V8.484H139.69V8.288H137.69ZM139.669 8.68722L139.977 7.20322L138.019 6.79678L137.711 8.28078L139.669 8.68722ZM138.998 8H143.03V6H138.998V8ZM142.052 6.79283L140.036 16.3128L141.992 16.7272L144.008 7.20717L142.052 6.79283ZM140.048 16.2623C139.949 16.6339 139.902 17.0199 139.902 17.416H141.902C141.902 17.1775 141.93 16.9661 141.98 16.7777L140.048 16.2623ZM139.902 17.416C139.902 17.9599 140.031 18.5535 140.465 19.0091C140.908 19.4736 141.501 19.62 142.05 19.62V17.62C141.943 17.62 141.892 17.6057 141.878 17.6008C141.869 17.5977 141.889 17.6039 141.913 17.6289C141.964 17.6832 141.902 17.6748 141.902 17.416H139.902ZM142.05 19.62C142.938 19.62 143.66 19.1855 144.186 18.5017L142.601 17.2823C142.381 17.5691 142.207 17.62 142.05 17.62V19.62ZM144.172 18.5203C144.67 17.9039 145.029 17.138 145.279 16.2627L143.356 15.7133C143.158 16.406 142.902 16.9094 142.616 17.2637L144.172 18.5203ZM144.318 16.988H145.494V14.988H144.318V16.988ZM144.548 15.6639C143.883 17.6053 143.113 18.74 142.339 19.2883L143.496 20.9197C144.776 20.012 145.724 18.4027 146.44 16.3121L144.548 15.6639ZM142.342 19.2862C141.468 19.9012 140.648 20.168 139.866 20.168V22.168C141.137 22.168 142.351 21.7254 143.493 20.9218L142.342 19.2862ZM139.866 20.168C139.272 20.168 138.89 20.0103 138.624 19.775L137.299 21.273C138.004 21.8964 138.891 22.168 139.866 22.168V20.168ZM138.654 19.8026C138.402 19.5608 138.191 19.1612 138.116 18.4816L136.128 18.7024C136.239 19.7028 136.588 20.5912 137.269 21.2454L138.654 19.8026ZM136.305 18.0145C135.819 18.7016 135.288 19.2443 134.716 19.6573L135.887 21.2787C136.659 20.721 137.342 20.0131 137.938 19.1695L136.305 18.0145ZM134.721 19.6543C134.26 19.9834 133.686 20.168 132.95 20.168V22.168C134.043 22.168 135.037 21.886 135.883 21.2817L134.721 19.6543ZM134.77 19.452C135.57 19.452 136.263 19.0773 136.834 18.53L135.45 17.086C135.125 17.3974 134.903 17.452 134.77 17.452V19.452ZM136.834 18.5294C137.472 17.9176 137.869 17.1198 138.071 16.2024L136.117 15.7736C135.982 16.3869 135.745 16.8024 135.449 17.0866L136.834 18.5294ZM138.072 16.1958L139.416 9.86775L137.46 9.45224L136.116 15.7802L138.072 16.1958ZM139.438 9.66C139.438 9.13857 139.231 8.68579 138.926 8.31982L137.39 9.60018C137.426 9.64419 137.437 9.66936 137.439 9.67439C137.44 9.67693 137.44 9.67601 137.439 9.67216C137.438 9.66824 137.438 9.66389 137.438 9.66H139.438ZM138.95 8.35029C138.523 7.79472 137.897 7.596 137.29 7.596V9.596C137.385 9.596 137.418 9.61096 137.414 9.60919C137.411 9.60807 137.403 9.60386 137.391 9.59511C137.38 9.58627 137.371 9.57691 137.365 9.56971L138.95 8.35029ZM137.29 7.596C136.086 7.596 135.146 8.32259 134.447 9.34921L136.1 10.4748C136.596 9.74675 137 9.596 137.29 9.596V7.596ZM134.453 9.34093C133.778 10.3114 133.269 11.4663 132.909 12.7849L134.839 13.3111C135.151 12.1657 135.575 11.2299 136.095 10.4831L134.453 9.34093ZM132.91 12.7811C132.558 14.0533 132.37 15.2193 132.37 16.268H134.37C134.37 15.45 134.518 14.4694 134.838 13.3149L132.91 12.7811ZM132.37 16.268C132.37 16.7732 132.404 17.2344 132.491 17.6297C132.573 18.0054 132.727 18.4391 133.055 18.7671L134.469 17.3529C134.536 17.4196 134.493 17.4239 134.445 17.2023C134.401 17.0003 134.37 16.6962 134.37 16.268H132.37ZM133.08 18.7911C133.549 19.2297 134.131 19.452 134.77 19.452V17.452C134.625 17.452 134.534 17.413 134.444 17.3289L133.08 18.7911ZM144.972 20.356L144.288 21.0855L144.3 21.0965L144.312 21.1072L144.972 20.356ZM144.216 16.52L143.238 16.3128L143.237 16.316L144.216 16.52ZM146.232 7V6H145.422L145.254 6.79283L146.232 7ZM150.264 7L151.242 7.20717L151.498 6H150.264V7ZM148.248 16.52L147.27 16.3128L147.268 16.3239L148.248 16.52ZM151.44 16.828L150.617 16.2602L150.61 16.27L151.44 16.828ZM153.232 12.964L154.19 13.2513L153.232 12.964ZM153.904 9.1H154.904L152.976 8.72861L153.904 9.1ZM153.54 9.324L153.719 10.3079L153.762 10.3001L153.803 10.2888L153.54 9.324ZM152.252 8.932L151.381 9.42226L151.392 9.4424L151.404 9.462L152.252 8.932ZM152.42 6.86L151.736 6.13046L151.724 6.14149L151.713 6.15289L152.42 6.86ZM155.08 7.14L154.223 7.65449L154.227 7.66229L154.232 7.67L155.08 7.14ZM154.632 14.28L155.589 14.5708L155.59 14.5682L154.632 14.28ZM151.972 19.152L151.225 18.4876L151.972 19.152ZM147.52 20.168C146.601 20.168 146.014 19.9403 145.632 19.6048L144.312 21.1072C145.162 21.8544 146.274 22.168 147.52 22.168V20.168ZM145.656 19.6265C145.323 19.3141 145.076 18.7882 145.076 17.864H143.076C143.076 19.1425 143.427 20.2779 144.288 21.0855L145.656 19.6265ZM145.076 17.864C145.076 17.486 145.115 17.1063 145.195 16.724L143.237 16.316C143.13 16.8297 143.076 17.346 143.076 17.864H145.076ZM145.194 16.7272L147.21 7.20717L145.254 6.79283L143.238 16.3128L145.194 16.7272ZM146.232 8H150.264V6H146.232V8ZM149.286 6.79283L147.27 16.3128L149.226 16.7272L151.242 7.20717L149.286 6.79283ZM147.268 16.3239C147.174 16.7932 147.108 17.2146 147.108 17.528H149.108C149.108 17.4307 149.136 17.1801 149.229 16.7161L147.268 16.3239ZM147.108 17.528C147.108 17.9979 147.231 18.5321 147.65 18.9386C148.063 19.3397 148.596 19.452 149.06 19.452V17.452C148.979 17.452 148.948 17.4418 148.951 17.4428C148.954 17.4436 148.966 17.4477 148.983 17.4579C149.001 17.4683 149.022 17.4833 149.043 17.5034C149.063 17.5236 149.08 17.545 149.093 17.5652C149.105 17.5851 149.111 17.6004 149.113 17.6074C149.118 17.6197 149.108 17.599 149.108 17.528H147.108ZM149.06 19.452C150.4 19.452 151.458 18.5941 152.27 17.386L150.61 16.27C149.967 17.2273 149.438 17.452 149.06 17.452V19.452ZM152.263 17.3957C153.079 16.213 153.717 14.8266 154.19 13.2513L152.274 12.6767C151.851 14.0881 151.295 15.2777 150.617 16.2603L152.263 17.3957ZM154.19 13.2513C154.655 11.702 154.904 10.3124 154.904 9.1H152.904C152.904 10.0529 152.706 11.2393 152.274 12.6767L154.19 13.2513ZM152.976 8.72861C153.064 8.50804 153.213 8.40398 153.261 8.37434C153.311 8.34364 153.328 8.34523 153.277 8.35924L153.803 10.2888C153.957 10.2468 154.138 10.183 154.309 10.0777C154.479 9.97335 154.707 9.78529 154.833 9.47139L152.976 8.72861ZM153.361 8.34013C153.194 8.37061 153.079 8.38 153.008 8.38V10.38C153.236 10.38 153.476 10.3521 153.719 10.3079L153.361 8.34013ZM153.008 8.38C153.008 8.38 153.018 8.38004 153.036 8.38472C153.054 8.38953 153.074 8.39742 153.091 8.40771C153.128 8.42944 153.126 8.44299 153.1 8.402L151.404 9.462C151.75 10.0148 152.303 10.38 153.008 10.38V8.38ZM153.124 8.44174C153.043 8.29812 153 8.14119 153 7.952H151C151 8.47214 151.125 8.96855 151.381 9.42226L153.124 8.44174ZM153 7.952C153 7.73125 153.06 7.63433 153.127 7.56711L151.713 6.15289C151.22 6.64567 151 7.27675 151 7.952H153ZM153.104 7.58954C153.153 7.54391 153.306 7.44 153.736 7.44V5.44C153.009 5.44 152.285 5.61609 151.736 6.13046L153.104 7.58954ZM153.736 7.44C154.056 7.44 154.15 7.5336 154.223 7.65449L155.938 6.6255C155.45 5.81306 154.648 5.44 153.736 5.44V7.44ZM154.232 7.67C154.384 7.91337 154.5 8.2917 154.5 8.876H156.5C156.5 8.04163 156.336 7.26263 155.928 6.61L154.232 7.67ZM154.5 8.876C154.5 10.4415 154.23 12.145 153.675 13.9918L155.59 14.5682C156.191 12.5697 156.5 10.6705 156.5 8.876H154.5ZM153.675 13.9892C153.134 15.7699 152.314 17.2626 151.225 18.4876L152.72 19.8164C154.02 18.3534 154.973 16.5981 155.589 14.5708L153.675 13.9892ZM151.225 18.4876C150.217 19.6216 149.003 20.168 147.52 20.168V22.168C149.584 22.168 151.338 21.3704 152.72 19.8164L151.225 18.4876ZM159.03 4.844L159.737 4.13689L159.03 4.844ZM159.03 1.708L159.737 2.41511L159.745 2.40758L159.752 2.3999L159.03 1.708ZM162.166 1.708L161.444 2.3999L161.459 2.41527L161.474 2.42999L162.166 1.708ZM162.166 4.844L161.474 4.12201L161.466 4.12937L161.459 4.13689L162.166 4.844ZM156.51 20.328L155.791 21.023L155.797 21.0291L155.803 21.0351L156.51 20.328ZM155.922 15.988L154.944 15.7807L154.941 15.7919L155.922 15.988ZM157.826 7V6H157.016L156.848 6.79276L157.826 7ZM161.858 7L162.836 7.20717L163.092 6H161.858V7ZM159.842 16.52L160.808 16.7777L160.815 16.7526L160.82 16.7272L159.842 16.52ZM159.982 18.228L159.275 18.9351L159.314 18.9743L159.357 19.0089L159.982 18.228ZM162.39 17.78L163.082 18.5014L163.09 18.4943L163.097 18.4871L162.39 17.78ZM163.398 15.988V14.988H162.641L162.435 15.7165L163.398 15.988ZM164.574 15.988L165.52 16.3121L165.974 14.988H164.574V15.988ZM161.914 20.104L162.462 20.9405L162.472 20.9338L161.914 20.104ZM160.598 4.488C160.243 4.488 159.976 4.37565 159.737 4.13689L158.323 5.55111C158.943 6.17102 159.721 6.488 160.598 6.488V4.488ZM159.737 4.13689C159.498 3.89814 159.386 3.63111 159.386 3.276H157.386C157.386 4.15288 157.703 4.9312 158.323 5.55111L159.737 4.13689ZM159.386 3.276C159.386 2.92089 159.498 2.65386 159.737 2.41511L158.323 1.00089C157.703 1.6208 157.386 2.39911 157.386 3.276H159.386ZM159.752 2.3999C159.994 2.14708 160.257 2.036 160.598 2.036V0.0359983C159.707 0.0359983 158.924 0.372914 158.308 1.0161L159.752 2.3999ZM160.598 2.036C160.939 2.036 161.202 2.14708 161.444 2.3999L162.888 1.0161C162.271 0.372914 161.489 0.0359983 160.598 0.0359983V2.036ZM161.474 2.42999C161.727 2.67227 161.838 2.93485 161.838 3.276H163.838C163.838 2.38515 163.501 1.60239 162.858 0.986012L161.474 2.42999ZM161.838 3.276C161.838 3.61715 161.727 3.87972 161.474 4.12201L162.858 5.56599C163.501 4.94961 163.838 4.16685 163.838 3.276H161.838ZM161.459 4.13689C161.22 4.37565 160.953 4.488 160.598 4.488V6.488C161.475 6.488 162.253 6.17102 162.873 5.55111L161.459 4.13689ZM158.694 20.168C158.025 20.168 157.564 19.9681 157.217 19.6209L155.803 21.0351C156.576 21.8079 157.571 22.168 158.694 22.168V20.168ZM157.229 19.633C156.934 19.3276 156.698 18.7822 156.698 17.808H154.698C154.698 19.0738 155.003 20.2084 155.791 21.023L157.229 19.633ZM156.698 17.808C156.698 17.4352 156.759 16.9012 156.902 16.1841L154.941 15.7919C154.786 16.5682 154.698 17.2475 154.698 17.808H156.698ZM156.9 16.1952L158.804 7.20724L156.848 6.79276L154.944 15.7808L156.9 16.1952ZM157.826 8H161.858V6H157.826V8ZM160.88 6.79283L158.864 16.3128L160.82 16.7272L162.836 7.20717L160.88 6.79283ZM158.876 16.2623C158.777 16.6339 158.73 17.0199 158.73 17.416H160.73C160.73 17.1775 160.758 16.9661 160.808 16.7777L158.876 16.2623ZM158.73 17.416C158.73 17.9076 158.836 18.4964 159.275 18.9351L160.689 17.5209C160.74 17.5718 160.751 17.6127 160.748 17.6026C160.743 17.5882 160.73 17.5321 160.73 17.416H158.73ZM159.357 19.0089C159.81 19.3708 160.388 19.452 160.878 19.452V17.452C160.729 17.452 160.637 17.438 160.588 17.4259C160.54 17.4137 160.56 17.41 160.607 17.4471L159.357 19.0089ZM160.878 19.452C161.726 19.452 162.468 19.091 163.082 18.5014L161.697 17.0586C161.378 17.365 161.112 17.452 160.878 17.452V19.452ZM163.097 18.4871C163.701 17.8827 164.115 17.1278 164.36 16.2595L162.435 15.7165C162.27 16.3042 162.012 16.7439 161.683 17.0729L163.097 18.4871ZM163.398 16.988H164.574V14.988H163.398V16.988ZM163.628 15.6639C162.967 17.5937 162.175 18.7236 161.356 19.2742L162.472 20.9338C163.818 20.0284 164.8 18.4143 165.52 16.3121L163.628 15.6639ZM161.366 19.2675C160.41 19.8935 159.525 20.168 158.694 20.168V22.168C159.991 22.168 161.252 21.7332 162.462 20.9405L161.366 19.2675ZM164.003 20.356L163.284 21.051L163.29 21.0571L163.296 21.0631L164.003 20.356ZM163.415 15.988L162.437 15.7792L162.434 15.7921L162.432 15.8051L163.415 15.988ZM165.095 8.12L166.073 8.32882L166.331 7.12H165.095V8.12ZM164.171 8.12L163.19 7.92388L162.951 9.12H164.171V8.12ZM164.395 7V6H163.575L163.414 6.80388L164.395 7ZM165.319 7V8H166.125L166.296 7.21243L165.319 7ZM166.159 3.136L166.025 2.14501L165.33 2.23885L165.182 2.92357L166.159 3.136ZM170.303 2.576L171.28 2.78637L171.58 1.39432L170.169 1.58501L170.303 2.576ZM169.351 7L168.373 6.78963L168.113 8H169.351V7ZM175.231 7L176.215 6.82232L176.066 6H175.231V7ZM176.323 13.048L175.339 13.2257L175.692 15.1829L177.052 13.7319L176.323 13.048ZM178.283 10.528L177.423 10.0165L178.283 10.528ZM178.955 8.26L179.903 7.94377L179.639 7.15202L178.813 7.27005L178.955 8.26ZM177.471 7.896L176.647 8.46253L176.655 8.47508L176.664 8.48736L177.471 7.896ZM177.611 5.796L178.211 6.596L178.226 6.58435L178.241 6.57211L177.611 5.796ZM180.131 6.132L179.319 6.7163V6.7163L180.131 6.132ZM179.683 10.836L178.828 10.317L178.825 10.3215L179.683 10.836ZM176.631 14.588L175.91 13.8947L175.556 14.2627L175.647 14.7652L176.631 14.588ZM176.883 15.988L175.899 16.1652L175.9 16.1747L175.902 16.1841L176.883 15.988ZM177.051 16.884L176.067 17.0661L176.071 17.0876L176.076 17.1089L177.051 16.884ZM177.583 18.032L178.338 17.3771L177.583 18.032ZM180.047 17.78L180.739 18.5014L180.747 18.4943L180.754 18.4871L180.047 17.78ZM181.055 15.988V14.988H180.298L180.092 15.7165L181.055 15.988ZM182.231 15.988L183.177 16.3121L183.63 14.988H182.231V15.988ZM179.599 20.104L180.16 20.9315L180.163 20.9293L179.599 20.104ZM174.419 20.3L173.631 20.9156L173.641 20.9293L173.653 20.9426L174.419 20.3ZM173.215 17.332L174.186 17.0956L173.738 15.2529L172.471 16.6637L173.215 17.332ZM169.855 20.076L170.358 20.9402L169.855 20.076ZM170.751 17.724L171.245 18.5935L171.252 18.5893L171.259 18.5849L170.751 17.724ZM172.907 15.82L173.693 16.4378L173.972 16.0823L173.89 15.6377L172.907 15.82ZM171.479 8.12L172.462 7.93765L172.31 7.12H171.479V8.12ZM169.127 8.12V7.12H168.318L168.149 7.91136L169.127 8.12ZM167.335 16.52L168.301 16.7777L168.307 16.7533L168.313 16.7286L167.335 16.52ZM166.159 20.168C165.479 20.168 165.032 19.9708 164.71 19.6489L163.296 21.0631C164.056 21.8238 165.046 22.168 166.159 22.168V20.168ZM164.722 19.661C164.427 19.3556 164.191 18.8102 164.191 17.836H162.191C162.191 19.1018 162.496 20.2364 163.284 21.051L164.722 19.661ZM164.191 17.836C164.191 17.5004 164.252 16.9568 164.398 16.1709L162.432 15.8051C162.279 16.6245 162.191 17.3129 162.191 17.836H164.191ZM164.393 16.1968L166.073 8.32882L164.117 7.91118L162.437 15.7792L164.393 16.1968ZM165.095 7.12H164.171V9.12H165.095V7.12ZM165.151 8.31612L165.375 7.19612L163.414 6.80388L163.19 7.92388L165.151 8.31612ZM164.395 8H165.319V6H164.395V8ZM166.296 7.21243L167.136 3.34843L165.182 2.92357L164.342 6.78757L166.296 7.21243ZM166.293 4.12699L170.437 3.56699L170.169 1.58501L166.025 2.14501L166.293 4.12699ZM169.325 2.36562L168.373 6.78963L170.328 7.21037L171.28 2.78637L169.325 2.36562ZM169.351 8H175.231V6H169.351V8ZM174.247 7.17768L175.339 13.2257L177.307 12.8703L176.215 6.82232L174.247 7.17768ZM177.052 13.7319C177.926 12.8001 178.628 11.9026 179.142 11.0395L177.423 10.0165C177.004 10.7214 176.4 11.5039 175.593 12.3641L177.052 13.7319ZM179.142 11.0395C179.637 10.2082 179.983 9.37366 179.983 8.596H177.983C177.983 8.82634 177.862 9.27975 177.423 10.0165L179.142 11.0395ZM179.983 8.596C179.983 8.45055 179.981 8.17741 179.903 7.94377L178.006 8.57622C177.997 8.54849 177.991 8.52594 177.987 8.51085C177.984 8.49543 177.982 8.48375 177.981 8.4769C177.979 8.46988 177.979 8.46567 177.979 8.46484C177.979 8.46392 177.979 8.46521 177.979 8.46904C177.98 8.47706 177.981 8.49157 177.982 8.51381C177.982 8.53579 177.983 8.563 177.983 8.596H179.983ZM178.813 7.27005C178.686 7.28819 178.59 7.3009 178.523 7.30885C178.489 7.31284 178.467 7.31511 178.453 7.31626C178.434 7.31792 178.448 7.316 178.479 7.316V9.316C178.624 9.316 178.869 9.28242 179.096 9.24995L178.813 7.27005ZM178.479 7.316C178.342 7.316 178.278 7.29502 178.261 7.28792C178.254 7.28483 178.256 7.28464 178.262 7.28967C178.269 7.29488 178.274 7.30076 178.277 7.30464L176.664 8.48736C177.119 9.10708 177.812 9.316 178.479 9.316V7.316ZM178.295 7.32947C178.233 7.23957 178.163 7.07026 178.163 6.748H176.163C176.163 7.35907 176.298 7.9551 176.647 8.46253L178.295 7.32947ZM178.163 6.748C178.163 6.66488 178.177 6.63237 178.18 6.6278C178.181 6.62455 178.183 6.62218 178.185 6.61907C178.188 6.61573 178.195 6.60769 178.211 6.596L177.011 4.996C176.433 5.42964 176.163 6.0589 176.163 6.748H178.163ZM178.241 6.57211C178.333 6.49739 178.473 6.432 178.731 6.432V4.432C178.093 4.432 177.485 4.60928 176.98 5.01988L178.241 6.57211ZM178.731 6.432C179.021 6.432 179.18 6.52237 179.319 6.7163L180.942 5.5477C180.41 4.8083 179.635 4.432 178.731 4.432V6.432ZM179.319 6.7163C179.503 6.97229 179.635 7.3496 179.635 7.924H181.635C181.635 7.0424 181.43 6.22504 180.942 5.54769L179.319 6.7163ZM179.635 7.924C179.635 8.58187 179.401 9.37315 178.828 10.317L180.538 11.355C181.234 10.2082 181.635 9.05813 181.635 7.924H179.635ZM178.825 10.3215C178.266 11.254 177.308 12.4419 175.91 13.8947L177.351 15.2813C178.791 13.7848 179.868 12.4714 180.54 11.3505L178.825 10.3215ZM175.647 14.7652L175.899 16.1652L177.867 15.8108L177.615 14.4108L175.647 14.7652ZM175.902 16.1841C175.919 16.2686 175.973 16.5581 176.067 17.0661L178.034 16.7019C177.941 16.2019 177.884 15.8941 177.863 15.7919L175.902 16.1841ZM176.076 17.1089C176.213 17.7008 176.447 18.2485 176.827 18.6869L178.338 17.3771C178.233 17.2555 178.113 17.0378 178.025 16.6591L176.076 17.1089ZM176.827 18.6869C177.272 19.2001 177.872 19.452 178.535 19.452V17.452C178.414 17.452 178.379 17.4239 178.338 17.3771L176.827 18.6869ZM178.535 19.452C179.383 19.452 180.125 19.091 180.739 18.5014L179.354 17.0586C179.035 17.365 178.769 17.452 178.535 17.452V19.452ZM180.754 18.4871C181.358 17.8827 181.772 17.1278 182.017 16.2595L180.092 15.7165C179.927 16.3042 179.669 16.7439 179.34 17.0729L180.754 18.4871ZM181.055 16.988H182.231V14.988H181.055V16.988ZM181.285 15.6639C180.622 17.5976 179.837 18.729 179.034 19.2787L180.163 20.9293C181.488 20.023 182.458 18.4104 183.177 16.3121L181.285 15.6639ZM179.037 19.2765C178.123 19.8972 177.269 20.168 176.463 20.168V22.168C177.747 22.168 178.984 21.7295 180.16 20.9315L179.037 19.2765ZM176.463 20.168C175.828 20.168 175.449 19.9717 175.185 19.6574L173.653 20.9426C174.36 21.7856 175.343 22.168 176.463 22.168V20.168ZM175.207 19.6844C174.874 19.2587 174.513 18.4389 174.186 17.0956L172.243 17.5684C172.588 18.9877 173.03 20.1467 173.631 20.9156L175.207 19.6844ZM172.471 16.6637C171.549 17.6894 170.51 18.5373 169.352 19.2118L170.358 20.9402C171.701 20.1587 172.901 19.1773 173.959 18.0003L172.471 16.6637ZM169.352 19.2118C168.224 19.868 167.164 20.168 166.159 20.168V22.168C167.58 22.168 168.984 21.74 170.358 20.9402L169.352 19.2118ZM168.455 19.424C169.385 19.424 170.321 19.1183 171.245 18.5935L170.257 16.8545C169.538 17.2631 168.943 17.424 168.455 17.424V19.424ZM171.259 18.5849C172.192 18.0337 173.004 17.3149 173.693 16.4378L172.12 15.2022C171.578 15.8931 170.952 16.4437 170.242 16.8631L171.259 18.5849ZM173.89 15.6377L172.462 7.93765L170.495 8.30235L171.923 16.0023L173.89 15.6377ZM171.479 7.12H169.127V9.12H171.479V7.12ZM168.149 7.91136L166.357 16.3114L168.313 16.7286L170.105 8.32864L168.149 7.91136ZM166.368 16.2623C166.269 16.6339 166.223 17.0199 166.223 17.416H168.223C168.223 17.1775 168.251 16.9661 168.301 16.7777L166.368 16.2623ZM166.223 17.416C166.223 17.965 166.4 18.5391 166.897 18.946C167.356 19.3214 167.933 19.424 168.455 19.424V17.424C168.314 17.424 168.227 17.4093 168.179 17.3962C168.133 17.3838 168.138 17.377 168.164 17.398C168.194 17.4225 168.216 17.4552 168.226 17.4797C168.233 17.498 168.223 17.4841 168.223 17.416H166.223ZM181.639 20.328L180.92 21.023L180.926 21.0291L180.932 21.0351L181.639 20.328ZM181.051 15.988L180.072 15.7807L180.07 15.7919L181.051 15.988ZM182.955 7V6H182.144L181.976 6.79276L182.955 7ZM186.987 7L187.965 7.20717L188.221 6H186.987V7ZM184.971 16.52L185.941 16.7625L185.945 16.7449L185.949 16.7272L184.971 16.52ZM187.071 17.808L187.825 18.4642L187.832 18.4563L187.839 18.4482L187.071 17.808ZM187.967 15.988L188.927 16.2689L188.937 16.2324L188.945 16.1952L187.967 15.988ZM189.871 7V6H189.06L188.892 6.79276L189.871 7ZM193.903 7L194.881 7.20717L195.137 6H193.903V7ZM191.887 16.52L192.853 16.7777L192.86 16.7526L192.865 16.7272L191.887 16.52ZM192.027 18.228L191.32 18.9351L191.359 18.9743L191.402 19.0089L192.027 18.228ZM193.567 18.396L193.842 19.3575L193.88 19.3465L193.918 19.3323L193.567 18.396ZM193.847 18.284L194.844 18.3622L194.982 16.5983L193.4 17.3896L193.847 18.284ZM192.867 20.44L193.509 21.2062L192.867 20.44ZM188.835 20.468L188.128 21.1751L188.135 21.182L188.142 21.1888L188.835 20.468ZM187.995 18.508L188.989 18.3976L188.669 15.5163L187.144 17.9822L187.995 18.508ZM185.979 20.608L185.513 19.723L185.503 19.7283L185.979 20.608ZM183.823 20.168C183.154 20.168 182.693 19.9681 182.346 19.6209L180.932 21.0351C181.704 21.8079 182.7 22.168 183.823 22.168V20.168ZM182.358 19.633C182.063 19.3276 181.827 18.7822 181.827 17.808H179.827C179.827 19.0738 180.132 20.2084 180.92 21.023L182.358 19.633ZM181.827 17.808C181.827 17.4352 181.888 16.9012 182.031 16.1841L180.07 15.7919C179.915 16.5682 179.827 17.2475 179.827 17.808H181.827ZM182.029 16.1952L183.933 7.20724L181.976 6.79276L180.072 15.7808L182.029 16.1952ZM182.955 8H186.987V6H182.955V8ZM186.008 6.79283L183.992 16.3128L185.949 16.7272L187.965 7.20717L186.008 6.79283ZM184.001 16.2775C183.924 16.5847 183.887 16.8997 183.887 17.22H185.887C185.887 17.0549 185.906 16.9033 185.941 16.7625L184.001 16.2775ZM183.887 17.22C183.887 17.7131 183.965 18.2594 184.271 18.7073C184.623 19.2239 185.165 19.452 185.727 19.452V17.452C185.709 17.452 185.742 17.4491 185.798 17.4766C185.859 17.5063 185.902 17.5493 185.923 17.5807C185.94 17.6054 185.929 17.6009 185.914 17.5374C185.9 17.474 185.887 17.3717 185.887 17.22H183.887ZM185.727 19.452C186.567 19.452 187.281 19.0901 187.825 18.4642L186.316 17.1518C186.114 17.3846 185.932 17.452 185.727 17.452V19.452ZM187.839 18.4482C188.326 17.8637 188.677 17.1204 188.927 16.2689L187.007 15.7071C186.808 16.3862 186.562 16.8563 186.303 17.1678L187.839 18.4482ZM188.945 16.1952L190.849 7.20724L188.892 6.79276L186.988 15.7808L188.945 16.1952ZM189.871 8H193.903V6H189.871V8ZM192.924 6.79283L190.908 16.3128L192.865 16.7272L194.881 7.20717L192.924 6.79283ZM190.921 16.2623C190.821 16.6339 190.775 17.0199 190.775 17.416H192.775C192.775 17.1775 192.803 16.9661 192.853 16.7777L190.921 16.2623ZM190.775 17.416C190.775 17.9076 190.881 18.4964 191.32 18.9351L192.734 17.5209C192.785 17.5718 192.796 17.6127 192.793 17.6026C192.788 17.5882 192.775 17.5321 192.775 17.416H190.775ZM191.402 19.0089C191.854 19.3708 192.433 19.452 192.923 19.452V17.452C192.774 17.452 192.682 17.438 192.633 17.4259C192.585 17.4137 192.605 17.41 192.651 17.4471L191.402 19.0089ZM192.923 19.452C193.231 19.452 193.566 19.4361 193.842 19.3575L193.292 17.4345C193.313 17.4285 193.297 17.4352 193.221 17.4418C193.151 17.4478 193.053 17.452 192.923 17.452V19.452ZM193.918 19.3323C194.05 19.2827 194.199 19.2257 194.294 19.1784L193.4 17.3896C193.416 17.3815 193.423 17.3785 193.414 17.3824C193.408 17.3851 193.396 17.3901 193.377 17.3975C193.34 17.4124 193.287 17.4329 193.216 17.4597L193.918 19.3323ZM192.85 18.2058C192.79 18.9649 192.546 19.4038 192.224 19.6738L193.509 21.2062C194.345 20.5056 194.754 19.5071 194.844 18.3622L192.85 18.2058ZM192.224 19.6738C191.846 19.991 191.372 20.168 190.739 20.168V22.168C191.786 22.168 192.73 21.8597 193.509 21.2062L192.224 19.6738ZM190.739 20.168C190.168 20.168 189.796 20.0054 189.528 19.7472L188.142 21.1888C188.844 21.8639 189.742 22.168 190.739 22.168V20.168ZM189.542 19.7609C189.276 19.4952 189.064 19.0762 188.989 18.3976L187.001 18.6184C187.112 19.6198 187.46 20.5074 188.128 21.1751L189.542 19.7609ZM187.144 17.9822C186.559 18.9281 186.004 19.4648 185.513 19.7231L186.445 21.4929C187.372 21.0046 188.161 20.1413 188.845 19.0338L187.144 17.9822ZM185.503 19.7283C184.951 20.0269 184.395 20.168 183.823 20.168V22.168C184.744 22.168 185.625 21.9358 186.454 21.4877L185.503 19.7283Z" fill="black" fill-opacity="0.75"/>
</g>
<defs>
<filter id="filter0_d_19_93" x="0.532013" y="0" width="197.371" height="34.796" filterUnits="userSpaceOnUse" color-interpolation-filters="sRGB">
<feFlood flood-opacity="0" result="BackgroundImageFix"/>
<feColorMatrix in="SourceAlpha" type="matrix" values="0 0 0 0 0 0 0 0 0 0 0 0 0 0 0 0 0 0 127 0" result="hardAlpha"/>
<feOffset dy="4"/>
<feGaussianBlur stdDeviation="2"/>
<feComposite in2="hardAlpha" operator="out"/>
<feColorMatrix type="matrix" values="0 0 0 0 0 0 0 0 0 0 0 0 0 0 0 0 0 0 0.25 0"/>
<feBlend mode="normal" in2="BackgroundImageFix" result="effect1_dropShadow_19_93"/>
<feBlend mode="normal" in="SourceGraphic" in2="effect1_dropShadow_19_93" result="shape"/>
</filter>
</defs>
</svg>
